<svg width="25" height="25" viewBox="0 0 25 25" fill="none" xmlns="http://www.w3.org/2000/svg">
<path d="M0.732532 10.61L9.89857 0.785177C10.8753 -0.261726 12.453 -0.261726 13.4298 0.785177C14.4065 1.83208 14.4065 3.52323 13.4298 4.57014L8.52116 9.80465H22.4956C23.873 9.80465 25 11.0126 25 12.489C25 13.9654 23.873 15.1734 22.4956 15.1734H8.52116L13.4298 20.4079C14.4065 21.4548 14.4065 23.146 13.4298 24.1929C12.9289 24.7297 12.3028 24.9713 11.6767 24.9982C11.0506 25.025 10.3995 24.7566 9.89857 24.1929L0.732532 14.3681C-0.244177 13.3212 -0.244177 11.63 0.732532 10.61Z" fill="#FFB566"/>
</svg>
