<svg width="774" height="670" viewBox="0 0 774 670" fill="none" xmlns="http://www.w3.org/2000/svg">
<g clip-path="url(#clip0_410_58)">
<path d="M725.215 207.133C723.733 92.3341 665.168 0 593.131 0C549.84 0 511.413 33.346 487.316 84.8733L515.648 155.96L476.493 112.144C466.617 141.792 461.012 175.64 461.012 211.589C460.932 238.838 464.287 265.988 470.999 292.398L546.927 280.157L478.976 318.153C501.113 378.844 541.574 420.295 588.212 423.03L579.224 667.548L607.038 668.541L601.093 422.784C667.505 416.46 720.703 331.58 724.964 225.356L679.07 199.694L725.215 207.133Z" fill="#FFB566"/>
<path d="M164.117 354.402H157.516V403.655H164.117V354.402Z" fill="#776E9A"/>
<path d="M187.815 376.276L182.98 380.779L160.823 356.936L138.658 380.779L133.823 376.276L160.823 347.243L187.815 376.276Z" fill="#776E9A"/>
<path d="M158.988 428.41C148.543 428.41 138.332 425.313 129.647 419.51C120.962 413.707 114.193 405.459 110.196 395.809C106.199 386.158 105.153 375.54 107.191 365.295C109.228 355.051 114.258 345.64 121.644 338.254C129.03 330.869 138.44 325.839 148.685 323.801C158.929 321.763 169.548 322.809 179.198 326.806C188.848 330.803 197.096 337.573 202.9 346.257C208.703 354.942 211.8 365.153 211.8 375.598C211.784 389.6 206.215 403.024 196.314 412.925C186.413 422.825 172.99 428.395 158.988 428.41ZM158.988 329.388C149.848 329.388 140.914 332.098 133.315 337.176C125.715 342.253 119.792 349.47 116.295 357.914C112.797 366.358 111.882 375.65 113.665 384.613C115.448 393.577 119.849 401.811 126.312 408.274C132.775 414.737 141.009 419.138 149.973 420.921C158.937 422.704 168.228 421.789 176.672 418.291C185.116 414.794 192.333 408.871 197.411 401.272C202.488 393.672 205.198 384.738 205.198 375.598C205.185 363.347 200.312 351.601 191.648 342.938C182.985 334.274 171.239 329.401 158.988 329.388Z" fill="#776E9A"/>
<path d="M216.393 253.932H212.753V281.087H216.393V253.932Z" fill="#FFB566"/>
<path d="M229.458 265.992L226.793 268.475L214.576 255.328L202.356 268.475L199.69 265.992L214.576 249.984L229.458 265.992Z" fill="#FFB566"/>
<path d="M213.564 294.736C207.805 294.736 202.176 293.028 197.387 289.829C192.599 286.629 188.867 282.082 186.663 276.761C184.459 271.44 183.882 265.586 185.006 259.937C186.129 254.289 188.903 249.101 192.975 245.028C197.047 240.956 202.235 238.183 207.884 237.06C213.532 235.936 219.387 236.513 224.707 238.716C230.028 240.92 234.576 244.652 237.775 249.441C240.975 254.229 242.682 259.859 242.682 265.618C242.674 273.338 239.603 280.739 234.144 286.198C228.685 291.657 221.284 294.727 213.564 294.736ZM213.564 240.14C208.525 240.14 203.599 241.634 199.409 244.434C195.22 247.233 191.954 251.212 190.026 255.868C188.097 260.524 187.593 265.646 188.576 270.589C189.559 275.531 191.985 280.071 195.548 283.634C199.112 287.197 203.651 289.624 208.594 290.607C213.536 291.59 218.659 291.085 223.314 289.157C227.97 287.229 231.949 283.963 234.749 279.773C237.548 275.583 239.042 270.657 239.043 265.618C239.035 258.863 236.348 252.387 231.572 247.611C226.795 242.834 220.319 240.147 213.564 240.14Z" fill="#FFB566"/>
<path d="M103.162 186.739H99.5225V213.894H103.162V186.739Z" fill="#776E9A"/>
<path d="M116.229 198.799L113.563 201.282L101.346 188.136L89.126 201.282L86.46 198.799L101.346 182.792L116.229 198.799Z" fill="#776E9A"/>
<path d="M100.335 227.543C94.5758 227.543 88.9461 225.835 84.1577 222.636C79.3693 219.436 75.6372 214.889 73.4333 209.568C71.2294 204.247 70.6528 198.393 71.7763 192.745C72.8998 187.096 75.673 181.908 79.7453 177.836C83.8175 173.763 89.0058 170.99 94.6542 169.867C100.303 168.743 106.157 169.32 111.478 171.524C116.798 173.727 121.346 177.46 124.546 182.248C127.745 187.036 129.453 192.666 129.453 198.425C129.444 206.145 126.374 213.546 120.915 219.005C115.456 224.464 108.055 227.534 100.335 227.543ZM100.335 172.947C95.2957 172.947 90.3697 174.441 86.1799 177.241C81.99 180.04 78.7244 184.02 76.796 188.675C74.8676 193.331 74.3631 198.453 75.3462 203.396C76.3292 208.338 78.7558 212.878 82.319 216.441C85.8822 220.004 90.422 222.431 95.3643 223.414C100.307 224.397 105.429 223.892 110.085 221.964C114.74 220.036 118.72 216.77 121.519 212.58C124.319 208.39 125.813 203.464 125.813 198.425C125.805 191.67 123.119 185.194 118.342 180.418C113.566 175.641 107.09 172.955 100.335 172.947Z" fill="#776E9A"/>
<path d="M305.733 520.67C304.92 519.832 304.294 518.831 303.898 517.733C303.502 516.636 303.344 515.466 303.434 514.302C303.525 513.139 303.862 512.008 304.424 510.984C304.985 509.961 305.758 509.069 306.691 508.368C307.088 508.056 307.51 507.777 307.951 507.532L300.958 477.398L317.223 483.238L321.371 510.959C322.345 512.693 322.658 514.722 322.251 516.669C321.844 518.616 320.744 520.35 319.156 521.548C317.199 523.069 314.751 523.82 312.278 523.658C309.804 523.497 307.475 522.433 305.733 520.67Z" fill="#FFB8B8"/>
<path d="M303.885 497.157L303.798 496.861C295.005 467.056 285.916 436.246 274.82 402.699L274.747 402.479L274.992 402.348C281.177 399.041 290.473 399.261 296.615 402.86C302.298 406.19 305.171 412.632 303.618 418.544L311.711 457.217C315.002 469.858 318.407 482.944 321.661 495.846L321.754 496.211L321.25 496.241C315.324 496.586 309.202 496.944 304.297 497.141L303.885 497.157Z" fill="#CCCCCC"/>
<path d="M229.16 657.57H217.627L212.138 616.801H229.16V657.57Z" fill="#FFB8B8"/>
<path d="M232.102 667.816H194.914V667.385C194.914 660.07 201.408 654.119 209.389 654.119H232.102V667.816Z" fill="#2F2E41"/>
<path d="M337.837 648.851L326.848 652.06L308.113 614.743L324.331 610.006L337.837 648.851Z" fill="#FFB8B8"/>
<path d="M308.602 668.141L308.459 667.731C306.036 660.761 310.251 653.285 317.856 651.064L339.497 644.744L344.034 657.794L308.602 668.141Z" fill="#2F2E41"/>
<path d="M279.464 375.385C292.224 375.385 302.569 365.905 302.569 354.21C302.569 342.516 292.224 333.035 279.464 333.035C266.703 333.035 256.358 342.516 256.358 354.21C256.358 365.905 266.703 375.385 279.464 375.385Z" fill="#FFB8B8"/>
<path d="M289.837 350.286C289.968 341.745 286.068 333.287 280.038 329.034C277.122 326.962 273.621 325.875 270.045 325.933C266.469 325.991 263.005 327.191 260.158 329.356C254.221 333.803 250.504 342.384 250.818 350.918C264.121 350.953 277.423 350.987 289.837 350.286Z" fill="#2F2E41"/>
<path d="M235.744 644.447L235.282 644.406C225.248 643.503 214.873 642.571 205.068 642.464L204.534 642.458L204.607 641.974C206.93 626.554 207.915 610.524 208.867 595.021C209.808 579.713 210.78 563.884 213.045 548.85C214.003 544.824 214.937 540.847 215.868 536.883C223.568 504.085 230.841 473.105 245.855 442.439L245.997 442.149L246.341 442.187C260.428 443.749 273.964 448.46 284.455 455.45L284.658 455.585L284.648 455.815C284.359 460.534 284.325 465.265 284.546 469.988C289.267 475.869 292.428 482.846 293.735 490.273C295.043 497.7 294.456 505.337 292.029 512.477C296.16 525.129 300.43 538.208 304.788 551.109C315.37 577.696 326.319 605.21 337.544 633.099L337.728 633.557L337.21 633.668C329.134 635.406 320.803 637.197 312.585 637.893L312.275 637.919L312.127 637.667C291.284 602.178 274.23 564.596 261.244 525.54C258.44 533.379 254.399 540.455 250.485 547.309C246.757 553.512 243.462 559.965 240.624 566.622C238.892 579.659 238.432 593.783 237.988 607.442C237.568 620.356 237.172 632.554 235.795 644.024L235.744 644.447Z" fill="#2F2E41"/>
<path d="M271.576 329.426C281.591 327.448 292.668 329.33 300.534 335.522C308.399 341.715 312.393 352.428 309.162 361.616C305.931 370.804 294.961 377.268 285.042 374.896C287.883 367.557 284.686 358.547 277.74 354.319C269.503 349.306 267.235 337.338 271.576 329.426Z" fill="#2F2E41"/>
<path d="M283.735 456.37L283.368 456.217C270.592 450.875 258.064 446.776 246.327 443.036L245.967 442.965L245.966 442.009L246.199 442.083C246.249 441.984 246.304 441.871 246.359 441.759C246.52 441.434 246.629 441.212 246.722 441.066L246.72 441.065C247.698 439.237 248.476 437.471 249.228 435.763C250.005 434.001 250.806 432.181 251.841 430.255C249.365 428.067 247.643 425.153 246.92 421.929C246.198 418.704 246.512 415.334 247.818 412.298C250.411 406.666 257.023 402.28 263.969 401.552C266.515 395.13 272.186 381.636 272.186 381.636C272.186 381.636 284.113 381.336 288.909 380.778L288.99 380.769L289.069 380.785C299.54 382.888 308.282 391.968 310.328 402.868C312.054 412.067 309.433 422.589 302.945 432.496C299.596 437.367 295.916 442.001 291.93 446.367C289.008 449.715 286.248 452.877 283.956 456.062L283.735 456.37Z" fill="#CCCCCC"/>
<path d="M306.861 341.974C299.85 341.015 294.345 334.447 295.142 327.992C295.939 321.537 302.906 316.262 309.973 316.763C317.04 317.264 323.04 323.457 322.745 329.947C322.449 336.438 315.812 343.198 306.861 341.974Z" fill="#2F2E41"/>
<path d="M305.767 337.789C298.756 336.829 293.251 330.262 294.048 323.807C294.594 319.391 298.027 315.53 302.404 313.69C296.75 314.824 291.884 319.339 291.226 324.669C290.429 331.124 295.934 337.692 302.944 338.651C305.549 339.028 308.207 338.687 310.632 337.665C309.028 337.973 307.384 338.015 305.767 337.789Z" fill="#2F2E41"/>
<path d="M169.776 451.572C171.152 449.519 173.239 448.049 175.636 447.445C178.032 446.841 180.567 447.146 182.751 448.301C183.199 448.537 183.626 448.809 184.031 449.112L212.703 433.029L212.114 449.029L184.976 461.849C183.444 463.291 181.502 464.22 179.418 464.509C177.334 464.798 175.212 464.433 173.345 463.464C172.285 462.965 171.343 462.249 170.578 461.361C169.814 460.474 169.244 459.436 168.908 458.314C168.571 457.192 168.474 456.012 168.624 454.851C168.774 453.689 169.166 452.572 169.776 451.572Z" fill="#FFB8B8"/>
<path d="M193.351 442.142L193.626 441.968C221.36 424.439 250.03 406.32 280.846 385.554L281.048 385.418L281.264 385.586C286.727 389.828 289.598 397.934 287.942 404.441C286.41 410.461 280.739 415.09 274.14 415.718L237.049 435.596C225.14 442.651 212.812 449.954 200.623 457.065L200.277 457.267L200.079 456.841C197.749 451.835 195.342 446.664 193.505 442.491L193.351 442.142Z" fill="#CCCCCC"/>
<path d="M773 669.5H1C0.734784 669.5 0.480429 669.395 0.292892 669.207C0.105356 669.02 0 668.765 0 668.5C0 668.235 0.105356 667.98 0.292892 667.793C0.480429 667.605 0.734784 667.5 1 667.5H773C773.265 667.5 773.52 667.605 773.707 667.793C773.895 667.98 774 668.235 774 668.5C774 668.765 773.895 669.02 773.707 669.207C773.52 669.395 773.265 669.5 773 669.5Z" fill="#CACACA"/>
</g>
<defs>
<clipPath id="clip0_410_58">
<rect width="774" height="669.5" fill="white"/>
</clipPath>
</defs>
</svg>
