<svg xmlns="http://www.w3.org/2000/svg" height="24" width="24" viewBox="0 0 24 24"><title>bell</title><g fill="#ffb566" class="nc-icon-wrapper"><path d="M20.95 16.63c-0.92 0-1.66-0.75-1.66-1.67v-6.31c0-4.03-3.28-7.32-7.32-7.32s-7.32 3.28-7.31 7.32v6.31c0 0.92-0.75 1.66-1.67 1.67-0.55 0-1 0.45-0.99 0.99s0.45 1 0.99 1h17.96c0.55 0 1-0.45 1-1s-0.45-1-1-0.99z" fill="#776e9a"></path><path d="M13.57 19.95h-3.19c-0.2 0-0.39 0.09-0.52 0.25-0.13 0.16-0.18 0.36-0.14 0.55 0.23 1.09 1.15 1.86 2.25 1.86s2.02-0.76 2.25-1.86c0.04-0.2-0.01-0.4-0.14-0.55-0.13-0.16-0.32-0.25-0.51-0.25z" data-color="color-2"></path></g></svg>