<svg xmlns="http://www.w3.org/2000/svg" height="24" width="24" viewBox="0 0 24 24"><title>book open</title><g fill="#ffb566" stroke="#ffb566" class="nc-icon-wrapper"><path d="M11.97 20.02c0.23 0 0.45-0.06 0.66-0.18 0.86-0.49 2.3-1.13 4.17-1.12 1.2 0 2.22 0.26 3.02 0.57 0.86 0.34 1.79-0.32 1.79-1.24v-12.08c0-0.47-0.24-0.9-0.65-1.15-0.85-0.5-2.3-1.15-4.17-1.14-2.51 0-4.25 1.16-4.82 1.57" fill="none" stroke-linecap="round" stroke-linejoin="round" stroke-width="1.5" data-color="color-2"></path><path d="M11.97 20.02c-0.23 0-0.45-0.06-0.66-0.18-0.86-0.49-2.3-1.13-4.17-1.12-1.2 0-2.22 0.26-3.02 0.57-0.86 0.34-1.79-0.32-1.79-1.24 0-3.45 0-9.94 0-12.09 0-0.47 0.24-0.9 0.65-1.13 0.85-0.5 2.3-1.15 4.17-1.15 2.51 0 4.25 1.16 4.82 1.57h0s0 14.77 0 14.77z" fill="none" stroke="#776e9a" stroke-linecap="round" stroke-linejoin="round" stroke-width="1.5"></path></g></svg>