<svg width="950" height="529" viewBox="0 0 950 529" fill="none" xmlns="http://www.w3.org/2000/svg">
<g clip-path="url(#clip0_378_418)">
<path d="M0 526.3C0 527.24 1.07 527.99 2.41 527.99H947.44C948.77 527.99 949.85 527.24 949.85 526.3C949.85 525.36 948.78 524.61 947.44 524.61H2.41C1.08 524.61 0 525.36 0 526.3Z" fill="#2F2E43"/>
<path d="M744.56 0H149.23C141.32 0 134.89 6.43 134.89 14.34V413.25C134.89 421.16 141.32 427.59 149.23 427.59H744.56C752.47 427.59 758.9 421.16 758.9 413.25V14.34C758.9 6.43 752.47 0 744.56 0Z" fill="#D7D7D8"/>
<path d="M747.17 13.4702H150.97V350.68H747.17V13.4702Z" fill="white"/>
<path d="M758.9 365.45V413.25C758.9 421.16 752.47 427.59 744.56 427.59H149.23C141.32 427.59 134.89 421.16 134.89 413.25V365.45H758.9Z" fill="#2F2E41"/>
<path d="M522.95 418.47H375.2V526.24H522.95V418.47Z" fill="#2F2E41"/>
<path d="M523.37 512.76H374.76V517.11H523.37V512.76Z" fill="#D7D7D8"/>
<path d="M658.38 45.2201V52.7901H236.29V45.2201C236.29 41.1601 239.58 37.8701 243.64 37.8701H651.03C655.09 37.8701 658.38 41.1601 658.38 45.2201Z" fill="#D7D7D8"/>
<path d="M245.28 47.4001C246.473 47.4001 247.44 46.433 247.44 45.2401C247.44 44.0471 246.473 43.0801 245.28 43.0801C244.087 43.0801 243.12 44.0471 243.12 45.2401C243.12 46.433 244.087 47.4001 245.28 47.4001Z" fill="white"/>
<path d="M252.47 47.4001C253.663 47.4001 254.63 46.433 254.63 45.2401C254.63 44.0471 253.663 43.0801 252.47 43.0801C251.277 43.0801 250.31 44.0471 250.31 45.2401C250.31 46.433 251.277 47.4001 252.47 47.4001Z" fill="white"/>
<path d="M259.65 47.4001C260.843 47.4001 261.81 46.433 261.81 45.2401C261.81 44.0471 260.843 43.0801 259.65 43.0801C258.457 43.0801 257.49 44.0471 257.49 45.2401C257.49 46.433 258.457 47.4001 259.65 47.4001Z" fill="white"/>
<path d="M611.84 60.6899H278.16C275.084 60.6899 272.59 63.1837 272.59 66.2599C272.59 69.3362 275.084 71.8299 278.16 71.8299H611.84C614.916 71.8299 617.41 69.3362 617.41 66.2599C617.41 63.1837 614.916 60.6899 611.84 60.6899Z" fill="#D7D7D8"/>
<path d="M383.49 192.76H309.21C304.73 192.76 301.08 189.11 301.08 184.63V121.13C301.08 116.65 304.73 113 309.21 113H383.49C387.97 113 391.62 116.65 391.62 121.13V184.63C391.62 189.11 387.97 192.76 383.49 192.76ZM309.21 115.49C306.1 115.49 303.58 118.02 303.58 121.12V184.62C303.58 187.73 306.11 190.25 309.21 190.25H383.49C386.6 190.25 389.12 187.72 389.12 184.62V121.12C389.12 118.01 386.59 115.49 383.49 115.49H309.21Z" fill="#D7D7D8"/>
<path d="M484.48 192.76H410.2C405.72 192.76 402.07 189.11 402.07 184.63V121.13C402.07 116.65 405.72 113 410.2 113H484.48C488.96 113 492.61 116.65 492.61 121.13V184.63C492.61 189.11 488.96 192.76 484.48 192.76ZM410.2 115.49C407.09 115.49 404.57 118.02 404.57 121.12V184.62C404.57 187.73 407.1 190.25 410.2 190.25H484.48C487.59 190.25 490.11 187.72 490.11 184.62V121.12C490.11 118.01 487.58 115.49 484.48 115.49H410.2Z" fill="#D7D7D8"/>
<path d="M585.46 192.76H511.18C506.7 192.76 503.05 189.11 503.05 184.63V121.13C503.05 116.65 506.7 113 511.18 113H585.46C589.94 113 593.59 116.65 593.59 121.13V184.63C593.59 189.11 589.94 192.76 585.46 192.76ZM511.18 115.49C508.07 115.49 505.55 118.02 505.55 121.12V184.62C505.55 187.73 508.08 190.25 511.18 190.25H585.46C588.57 190.25 591.09 187.72 591.09 184.62V121.12C591.09 118.01 588.56 115.49 585.46 115.49H511.18Z" fill="#D7D7D8"/>
<path d="M383.49 292.04H309.21C304.73 292.04 301.08 288.39 301.08 283.91V220.41C301.08 215.93 304.73 212.28 309.21 212.28H383.49C387.97 212.28 391.62 215.93 391.62 220.41V283.91C391.62 288.39 387.97 292.04 383.49 292.04ZM309.21 214.77C306.1 214.77 303.58 217.3 303.58 220.4V283.9C303.58 287.01 306.11 289.53 309.21 289.53H383.49C386.6 289.53 389.12 287 389.12 283.9V220.4C389.12 217.29 386.59 214.77 383.49 214.77H309.21Z" fill="#D7D7D8"/>
<path d="M484.48 292.04H410.2C405.72 292.04 402.07 288.39 402.07 283.91V220.41C402.07 215.93 405.72 212.28 410.2 212.28H484.48C488.96 212.28 492.61 215.93 492.61 220.41V283.91C492.61 288.39 488.96 292.04 484.48 292.04ZM410.2 214.77C407.09 214.77 404.57 217.3 404.57 220.4V283.9C404.57 287.01 407.1 289.53 410.2 289.53H484.48C487.59 289.53 490.11 287 490.11 283.9V220.4C490.11 217.29 487.58 214.77 484.48 214.77H410.2Z" fill="#D7D7D8"/>
<path d="M585.46 292.04H511.18C506.7 292.04 503.05 288.39 503.05 283.91V220.41C503.05 215.93 506.7 212.28 511.18 212.28H585.46C589.94 212.28 593.59 215.93 593.59 220.41V283.91C593.59 288.39 589.94 292.04 585.46 292.04Z" fill="#FFB566"/>
<path d="M786.54 150.66L798.81 141.11C798.81 141.11 812.81 145.47 813.17 145.65C813.53 145.83 834.9 195.39 834.9 195.39C834.9 195.39 780.16 223.41 784.16 220.67C788.16 217.95 787.33 181.02 783.61 176.21C779.88 171.39 783.06 159.29 783.06 159.29L786.51 150.65H786.53L786.54 150.66Z" fill="#2F2E43"/>
<path d="M820.46 172.99H803.83V199.39L822.17 193.36L820.46 172.99Z" fill="#F3A3A6"/>
<path d="M766.1 343.24C766.53 340.83 766.36 338.34 765.6 335.98L771.4 311.05L759.03 308.46L754.49 334.03C753.01 335.99 752.05 338.29 751.69 340.71C750.69 346.76 753.12 352.24 757.1 352.93C761.08 353.63 765.11 349.29 766.11 343.24H766.1Z" fill="#F3A3A6"/>
<path d="M815.27 488.92H798.09V513.29H815.27V488.92Z" fill="#F3A3A6"/>
<path d="M781.37 528.05C788.91 528.05 799.92 527.26 800 527.25C802.95 527.51 817.65 528.67 818.38 525.31C819.05 522.22 818.06 518.99 817.92 518.54C816.5 504.49 815.98 504.32 815.66 504.23C815.16 504.08 813.7 504.78 811.33 506.31L811.18 506.41L811.15 506.58C811.11 506.79 810.06 511.95 805.08 511.17C801.67 510.63 800.56 509.87 800.21 509.5C800.5 509.37 800.86 509.14 801.11 508.75C801.48 508.18 801.54 507.44 801.3 506.55C800.66 504.22 798.74 500.77 798.66 500.62L798.44 500.23L778.92 513.4L766.86 516.85C765.95 517.1 765.22 517.76 764.85 518.63C764.34 519.84 764.65 521.26 765.64 522.14C767.83 524.11 772.19 527.48 776.75 527.9C777.96 528.01 779.57 528.06 781.38 528.06L781.37 528.05Z" fill="#2F2E43"/>
<path d="M864.186 469.782L849.609 478.873L862.505 499.551L877.082 490.46L864.186 469.782Z" fill="#F3A3A6"/>
<path d="M844.82 524.72C847.22 524.72 849.87 524.38 852.1 523.25C857.73 520.42 871.42 510.47 871.5 510.4C874.13 509.07 887.22 502.27 886.06 499.03C884.99 496.05 882.44 493.83 882.09 493.53C873.45 482.35 872.93 482.49 872.61 482.58C872.1 482.72 871.24 484.08 870.03 486.63L869.96 486.79L870.03 486.95C870.11 487.16 871.95 492.09 867.31 494.05C864.13 495.4 862.79 495.35 862.3 495.21C862.48 494.94 862.66 494.56 862.67 494.09C862.69 493.41 862.35 492.74 861.67 492.12C859.89 490.48 856.44 488.57 856.29 488.49L855.9 488.28L846.3 509.79L837.89 519.09C837.25 519.79 836.98 520.73 837.13 521.67C837.34 522.97 838.36 524 839.66 524.23C840.98 524.46 842.83 524.71 844.85 524.71L844.82 524.72Z" fill="#2F2E43"/>
<path d="M827.92 285.11C827.92 285.11 833.49 285.11 842.22 302.57C850.95 320.04 839.84 390.14 839.84 390.14L870.94 470.62L849.12 485.9L809.29 399.7L819.11 495.18H794.56L775.46 329.86L779.82 285.12H827.92V285.11Z" fill="#2F2E43"/>
<path d="M831.66 189.08H798.38L768.37 287.84H851.84L831.66 189.08Z" fill="#776E9A"/>
<path d="M803.64 189.09L769.81 329.31H752.89C752.89 329.31 778.53 199.46 780.72 194C782.9 188.54 803.63 189.09 803.63 189.09H803.64Z" fill="#776E9A"/>
<path d="M806.1 180.29C816.196 180.29 824.38 172.106 824.38 162.01C824.38 151.914 816.196 143.73 806.1 143.73C796.004 143.73 787.82 151.914 787.82 162.01C787.82 172.106 796.004 180.29 806.1 180.29Z" fill="#F3A3A6"/>
<path d="M783.33 158.68L787.81 159.44C791.99 142.7 801.46 148.17 802.36 147.98C803.26 147.79 816.72 162.52 815.63 177.44C814.54 192.35 833.82 199.34 833.82 199.34C833.82 199.34 840.56 212 834.55 234.91C828.54 257.82 841.28 265.51 841.28 265.51C866.38 263.38 851.29 228.36 847.29 222C843.29 215.63 846.02 204.54 846.02 204.54C852.21 199.08 844.93 187.08 844.93 187.08C844.93 187.08 846.21 171.07 842.39 167.98C838.57 164.89 838.39 157.25 838.39 157.25C831.65 127.97 809.65 133.61 809.65 133.61C781.46 130.52 783.34 158.67 783.34 158.67L783.33 158.68Z" fill="#2F2E43"/>
<path d="M866.09 340.31C865.63 337.9 864.59 335.63 863.04 333.7L859.6 308.33L847.11 310.31L851.94 335.83C851.27 338.19 851.19 340.67 851.7 343.07C852.91 349.08 857.12 353.33 861.09 352.57C865.06 351.81 867.3 346.32 866.08 340.31H866.09Z" fill="#F3A3A6"/>
<path d="M848.47 327.66H865.39C865.39 327.66 839.75 197.81 837.56 192.35C835.38 186.89 817.12 189.21 817.12 189.21L848.47 327.66Z" fill="#776E9A"/>
</g>
<defs>
<clipPath id="clip0_378_418">
<rect width="949.85" height="528.05" fill="white"/>
</clipPath>
</defs>
</svg>
