<svg width="32" height="32" viewBox="0 0 32 32" fill="none" xmlns="http://www.w3.org/2000/svg">
<path d="M27.493 21.2798H24.3863V18.1732C24.3863 17.4398 23.7863 16.8398 23.053 16.8398C22.3196 16.8398 21.7196 17.4398 21.7196 18.1732V21.2798H18.6263C17.893 21.2798 17.293 21.8798 17.293 22.6132C17.293 23.3465 17.893 23.9465 18.6263 23.9465H21.7196V27.0398C21.7196 27.7732 22.3196 28.3732 23.053 28.3732C23.7863 28.3732 24.3863 27.7732 24.3863 27.0398V23.9465H27.493C28.2263 23.9465 28.8263 23.3465 28.813 22.6132C28.7996 21.8798 28.213 21.2798 27.493 21.2798Z" fill="#FFB566"/>
<path d="M8.86645 3.10645C8.11003 3.10645 7.36102 3.25543 6.66219 3.5449C5.96335 3.83437 5.32838 4.25865 4.79351 4.79351C4.25865 5.32838 3.83437 5.96335 3.5449 6.66219C3.25543 7.36102 3.10645 8.11003 3.10645 8.86645C3.10645 9.62286 3.25543 10.3719 3.5449 11.0707C3.83437 11.7695 4.25865 12.4045 4.79351 12.9394C5.32838 13.4742 5.96335 13.8985 6.66219 14.188C7.36102 14.4775 8.11003 14.6264 8.86645 14.6264C9.62286 14.6264 10.3719 14.4775 11.0707 14.188C11.7695 13.8985 12.4045 13.4742 12.9394 12.9394C13.4742 12.4045 13.8985 11.7695 14.188 11.0707C14.4775 10.3719 14.6264 9.62286 14.6264 8.86645C14.6264 8.11003 14.4775 7.36102 14.188 6.66219C13.8985 5.96335 13.4742 5.32838 12.9394 4.79351C12.4045 4.25865 11.7695 3.83437 11.0707 3.5449C10.3719 3.25543 9.62286 3.10645 8.86645 3.10645Z" fill="#776E9A"/>
<path d="M23.053 3.10645C22.2966 3.10645 21.5475 3.25543 20.8487 3.5449C20.1499 3.83437 19.5149 4.25865 18.98 4.79351C18.4452 5.32838 18.0209 5.96335 17.7314 6.66219C17.442 7.36102 17.293 8.11003 17.293 8.86645C17.293 9.62286 17.442 10.3719 17.7314 11.0707C18.0209 11.7695 18.4452 12.4045 18.98 12.9394C19.5149 13.4742 20.1499 13.8985 20.8487 14.188C21.5475 14.4775 22.2966 14.6264 23.053 14.6264C23.8094 14.6264 24.5584 14.4775 25.2572 14.188C25.9561 13.8985 26.591 13.4742 27.1259 12.9394C27.6608 12.4045 28.085 11.7695 28.3745 11.0707C28.664 10.3719 28.813 9.62286 28.813 8.86645C28.813 8.11003 28.664 7.36102 28.3745 6.66219C28.085 5.96335 27.6608 5.32838 27.1259 4.79351C26.591 4.25865 25.9561 3.83437 25.2572 3.5449C24.5584 3.25543 23.8094 3.10645 23.053 3.10645Z" fill="#776E9A"/>
<path d="M8.86645 17.293C8.11003 17.293 7.36102 17.442 6.66219 17.7314C5.96335 18.0209 5.32838 18.4452 4.79351 18.98C4.25864 19.5149 3.83437 20.1499 3.5449 20.8487C3.25543 21.5475 3.10645 22.2966 3.10645 23.053C3.10645 23.8094 3.25543 24.5584 3.5449 25.2572C3.83437 25.9561 4.25864 26.591 4.79351 27.1259C5.32838 27.6608 5.96335 28.085 6.66219 28.3745C7.36102 28.664 8.11003 28.813 8.86645 28.813C10.3941 28.813 11.8592 28.2061 12.9394 27.1259C14.0196 26.0457 14.6264 24.5806 14.6264 23.053C14.6264 21.5253 14.0196 20.0602 12.9394 18.98C11.8592 17.8998 10.3941 17.293 8.86645 17.293Z" fill="#776E9A"/>
</svg>
