<svg xmlns="http://www.w3.org/2000/svg" height="24" width="24" viewBox="0 0 24 24"><title>computer</title><g fill="#ffb566" class="nc-icon-wrapper"><path d="M6.98 15.3h-3.32c-1.28 0-2.33-1.04-2.33-2.33v-5.99c0-1.28 1.04-2.33 2.33-2.32h3.32c0.55 0 1 0.45 1 0.99s-0.45 1-1 1h-3.32c-0.18 0-0.33 0.15-0.34 0.33v5.99c0 0.18 0.15 0.33 0.34 0.33h3.32c0.55 0 1 0.45 1 1s-0.45 1-1 1z" data-color="color-2"></path><path d="M3.66 19.61c-0.3 0-0.59-0.13-0.79-0.38-0.33-0.43-0.26-1.05 0.17-1.39 0.06-0.05 1.57-1.21 3.94-1.21 0.55 0 1 0.45 1 0.99s-0.45 1-1 1c-1.65 0-2.71 0.78-2.71 0.79-0.18 0.14-0.39 0.2-0.61 0.2z" data-color="color-2"></path><path d="M19.62 2.66h-7.32c-1.65 0-2.99 1.34-2.99 2.99v12.64c0 1.65 1.34 2.99 2.99 2.99h7.32c1.65 0 2.99-1.34 2.99-2.99v-12.64c0-1.65-1.34-2.99-2.99-2.99z m-3.66 14.63c-0.73 0-1.33-0.6-1.33-1.33s0.6-1.33 1.33-1.33 1.33 0.6 1.33 1.33-0.6 1.33-1.33 1.33z m1.66-5.32h-3.32c-0.55 0-1-0.45-1-1s0.45-1 1-1h3.32c0.55 0 1 0.45 1 1s-0.45 1-1 1z m0-3.33h-3.32c-0.55 0-1-0.45-1-0.99s0.45-1 1-1h3.32c0.55 0 1 0.45 1 1s-0.45 1-1 0.99z" fill="#776e9a"></path></g></svg>