<svg width="872" height="520" viewBox="0 0 872 520" fill="none" xmlns="http://www.w3.org/2000/svg">
<g clip-path="url(#clip0_21_421)">
<path d="M744.013 330.14C744.801 329.935 745.536 329.55 746.168 329.013C746.799 328.476 747.312 327.798 747.669 327.029C748.026 326.26 748.219 325.417 748.234 324.561C748.249 323.704 748.087 322.855 747.757 322.072L762.159 307.848L752.196 305.319L740.047 319.214C738.838 319.886 737.905 321.002 737.423 322.351C736.942 323.701 736.946 325.191 737.434 326.537C737.923 327.884 738.863 328.995 740.075 329.659C741.288 330.323 742.689 330.494 744.013 330.14Z" fill="#FFB6B6"/>
<path d="M751.453 318.683L744.736 308.682L769.964 281.127L775.822 237.694C776.112 235.547 776.845 233.494 777.971 231.68C779.096 229.866 780.586 228.336 782.335 227.199C784.083 226.061 786.047 225.344 788.087 225.099C790.128 224.853 792.194 225.085 794.14 225.777C797.654 227.032 800.552 229.708 802.2 233.217C803.848 236.726 804.11 240.782 802.929 244.495L787.983 291.322L751.453 318.683Z" fill="#E4E4E4"/>
<path d="M798.821 503.749H791.366L787.818 473.379L798.823 473.38L798.821 503.749Z" fill="#FFB6B6"/>
<path d="M802.833 518.699H797.542L796.598 513.424L794.179 518.699H780.147C779.474 518.699 778.819 518.472 778.277 518.051C777.736 517.631 777.336 517.038 777.135 516.36C776.935 515.682 776.946 514.954 777.165 514.282C777.384 513.611 777.801 513.031 778.355 512.627L789.56 504.455V499.122L801.347 499.865L802.833 518.699Z" fill="#2F2E41"/>
<path d="M844.821 495.737L838.272 499.5L821.41 474.614L831.076 469.06L844.821 495.737Z" fill="#FFB6B6"/>
<path d="M855.111 506.844L850.464 509.515L847.247 505.358L847.51 511.212L835.184 518.295C834.594 518.634 833.915 518.766 833.249 518.669C832.583 518.573 831.963 518.254 831.48 517.76C830.997 517.265 830.677 516.621 830.566 515.92C830.454 515.22 830.558 514.5 830.862 513.866L837.005 501.031L834.592 496.347L845.281 491.051L855.111 506.844Z" fill="#2F2E41"/>
<path d="M801.963 492.934H786.554V434.991L777.015 397.216C770.169 370.201 768.349 342.04 771.657 314.293L771.671 314.18L771.754 314.106C771.999 313.889 796.413 292.571 811.857 308.879C822.266 319.872 812.485 359.399 811.938 361.568V429.709L801.963 492.934Z" fill="#2F2E41"/>
<path d="M801.925 219.725L801.844 219.639L782.197 219.955L771.707 245.954C761.997 261.88 771.282 270.939 771.934 272.374L770.077 291.916L768.881 304.523L766.961 324.821L811.989 309.287L806.98 288.099L812.768 257.538C814.053 250.779 813.736 243.791 811.844 237.193C809.952 230.596 806.545 224.595 801.925 219.725Z" fill="#E4E4E4"/>
<path d="M792.771 435.291L824.425 482.309L836.567 473.192L810.131 415.822L792.771 435.291Z" fill="#2F2E41"/>
<path d="M790.185 214.673C800.202 214.673 808.323 206.097 808.323 195.518C808.323 184.94 800.202 176.364 790.185 176.364C780.167 176.364 772.046 184.94 772.046 195.518C772.046 206.097 780.167 214.673 790.185 214.673Z" fill="#FFB6B6"/>
<path opacity="0.1" d="M807.677 269.619L787.894 293.724L768.881 304.523L770.077 291.916L781.273 285.277L807.677 269.619Z" fill="black"/>
<path d="M777.48 231.414L775.778 223.538C775.219 220.903 775.165 218.176 775.619 215.518C776.074 212.86 777.027 210.325 778.423 208.062C779.706 205.929 780.421 203.47 780.493 200.944C780.565 198.418 779.992 195.918 778.833 193.707C777.978 191.92 776.678 190.412 775.074 189.344C773.469 188.277 771.62 187.69 769.724 187.648H769.271V187.17C769.271 180.301 774.34 175.454 779.052 175.176C779.223 173.747 780.182 172.465 781.852 171.448C785.842 169.019 793.557 168.492 799.386 171.73C799.493 170.683 799.867 169.686 800.468 168.846C801.069 168.005 801.873 167.352 802.797 166.955C803.755 166.603 804.786 166.541 805.776 166.774C805.861 165.052 806.534 163.421 807.671 162.184C809.28 160.537 811.862 159.911 814.755 160.463C818.727 161.225 822.643 163.897 825.781 167.989C828.562 171.618 830.493 175.894 832.361 180.029C834.197 184.095 836.096 188.3 838.849 191.861C841.864 195.761 845.601 198.288 849.37 198.977C853.766 199.78 858.277 197.869 860.342 194.331L860.752 193.628L861.125 194.353C863.445 198.854 862.496 205.038 858.869 209.058C855.616 212.663 850.512 214.499 845.219 213.966C840.737 213.516 836.218 211.505 831.785 207.989C827.381 204.498 824.658 200.638 823.691 196.517C823.42 195.242 823.226 193.95 823.109 192.649C822.809 189.924 822.527 187.35 820.939 185.456C819.512 183.753 817.305 183.015 815.347 182.457L814.963 182.348C814.892 183.115 814.665 183.858 814.295 184.523C813.926 185.187 813.423 185.759 812.823 186.198C812.462 186.427 812.067 186.588 811.654 186.674C813.924 196.321 812.991 203.707 808.878 208.631C801.935 216.944 788.595 215.235 788.03 215.158L787.654 215.107L787.635 214.708C787.585 213.636 787.461 212.57 787.264 211.517C785.354 216.378 778.926 229.234 778.066 230.531L777.48 231.414Z" fill="#2F2E41"/>
<path d="M136.942 262.342C136.412 263.078 135.735 263.683 134.959 264.114C134.183 264.544 133.328 264.79 132.452 264.834C131.577 264.877 130.703 264.718 129.893 264.366C129.082 264.014 128.354 263.479 127.761 262.799L108.226 271.77L110.129 260.255L128.387 253.501C129.536 252.523 130.985 252.025 132.459 252.1C133.932 252.175 135.329 252.819 136.383 253.909C137.438 254.998 138.077 256.459 138.18 258.013C138.283 259.567 137.842 261.107 136.942 262.342Z" fill="#A0616A"/>
<path d="M123.906 265.937L78.5348 287.279L78.4375 287.243L26.7255 267.783C22.8736 265.657 19.937 262.057 18.5169 257.719C17.0968 253.381 17.3007 248.634 19.0867 244.45C20.0767 242.138 21.5191 240.074 23.319 238.394C25.1189 236.713 27.2355 235.454 29.5294 234.699C31.8233 233.945 34.2425 233.712 36.6278 234.016C39.0131 234.32 41.3104 235.154 43.3685 236.463L81.8518 260.943L119.169 255.836L123.906 265.937Z" fill="#3F3D56"/>
<path d="M142.915 125.418C125.763 85.353 126.395 34.5694 153.015 0.76123C161.921 47.6417 186.242 89.6847 221.676 119.452C235.381 130.879 251.751 142.082 255.494 160.094C257.824 171.301 254.522 183.155 248.813 192.917C243.104 202.68 235.147 210.711 227.28 218.625L226.397 221.333C192.165 196.305 160.067 165.482 142.915 125.418Z" fill="#776E9A"/>
<path d="M153.756 1.24996C147.63 36.6747 152.181 74.3956 167.071 106.851C170.29 113.868 174.134 120.69 179.281 126.334C184.337 131.794 190.686 135.725 197.668 137.717C204.142 139.714 210.983 140.964 216.885 144.587C223.106 148.406 226.967 154.815 228.471 162.164C230.311 171.155 228.982 180.309 227.388 189.213C225.618 199.099 223.631 209.337 226.196 219.275C226.507 220.48 224.719 220.918 224.409 219.716C219.946 202.426 228.623 185.373 227.41 167.989C226.844 159.878 223.96 151.897 217.374 147.197C211.615 143.088 204.561 141.792 197.989 139.831C191.088 137.771 184.891 134.625 179.618 129.407C174.223 124.069 170.119 117.392 166.744 110.492C159.201 94.7874 154.043 77.9277 151.46 60.5308C148.407 40.6932 148.591 20.4503 152.002 0.678014C152.214 -0.54567 153.966 0.0342574 153.756 1.24996Z" fill="white"/>
<path d="M161.704 96.5712C156.147 98.4519 150.138 98.1854 144.75 95.8194C139.362 93.4533 134.946 89.1419 132.291 83.6549C131.757 82.5428 133.369 81.6147 133.903 82.7283C136.367 87.8426 140.481 91.8583 145.502 94.0507C150.524 96.2431 156.122 96.4677 161.287 94.6841C162.409 94.2979 162.82 96.1872 161.704 96.5712Z" fill="white"/>
<path d="M194.259 137.162C199.811 126.013 201.181 113.064 198.094 100.897C197.787 99.6916 199.575 99.2524 199.881 100.456C203.071 113.124 201.62 126.597 195.817 138.185C195.263 139.289 193.708 138.26 194.259 137.162Z" fill="white"/>
<path d="M150.766 41.3228C153.06 41.0682 155.258 40.2161 157.163 38.8429C159.067 37.4696 160.619 35.6183 161.679 33.4552C162.219 32.3443 163.774 33.3743 163.238 34.478C162.056 36.8621 160.34 38.9045 158.239 40.4266C156.138 41.9487 153.715 42.9043 151.184 43.2099C150.947 43.2598 150.702 43.2128 150.497 43.0785C150.292 42.9441 150.144 42.7325 150.082 42.4867C150.028 42.2365 150.069 41.9739 150.197 41.756C150.326 41.5381 150.53 41.3824 150.766 41.3228Z" fill="white"/>
<path d="M293.987 1.15332C293.668 1.85716 293.349 2.56098 293.038 3.27921C288.8 12.7652 285.299 22.5991 282.57 32.6838C282.347 33.4599 282.132 34.2501 281.931 35.0314C275.6 59.4017 273.609 84.8015 276.059 109.94C277.042 119.942 278.745 129.85 281.152 139.579C284.476 153.016 289.094 167.305 288.052 180.721C287.958 182.122 287.782 183.516 287.525 184.894L229.594 222.26C229.422 222.275 229.258 222.305 229.085 222.32L226.836 223.924C226.679 223.431 226.526 222.917 226.369 222.424C226.276 222.139 226.197 221.845 226.104 221.56C226.047 221.367 225.99 221.173 225.928 221.003C225.908 220.939 225.89 220.874 225.878 220.824C225.816 220.653 225.775 220.488 225.721 220.331C224.857 217.458 224.011 214.573 223.183 211.677C223.175 211.663 223.175 211.663 223.18 211.641C216.922 189.556 212.355 166.725 211.214 143.888C211.18 143.201 211.137 142.5 211.13 141.796C210.67 131.499 211.007 121.18 212.139 110.941C212.776 105.337 213.682 99.7703 214.852 94.2626C217.901 80.0379 223.049 66.408 230.109 53.8729C244.186 28.8864 265.674 8.93231 291.972 1.68618C292.645 1.50123 293.306 1.32418 293.987 1.15332Z" fill="#776E9A"/>
<path d="M294.305 2.01419C269.217 26.4039 251.345 59.4154 244.73 94.7967C243.3 102.446 242.48 110.337 243.371 118.115C244.296 125.69 247.124 132.865 251.562 138.895C255.593 144.605 260.343 149.953 262.99 156.598C265.779 163.603 265.208 171.174 262.219 177.998C258.562 186.348 252.282 192.811 245.933 198.907C238.883 205.675 231.459 212.587 227.841 222.152C227.403 223.311 225.726 222.525 226.163 221.368C232.458 204.725 249.108 196.626 258.051 181.975C262.224 175.139 264.471 166.933 261.892 158.993C259.636 152.05 254.743 146.531 250.614 140.786C246.278 134.755 243.124 128.303 241.888 120.783C240.624 113.092 241.154 105.15 242.393 97.4958C245.324 80.1606 250.819 63.4199 258.674 47.887C267.547 30.107 279.235 14.0607 293.231 0.442572C294.098 -0.399927 295.166 1.17721 294.305 2.01419Z" fill="white"/>
<path d="M246.306 83.1764C240.797 81.145 236.151 77.1118 233.198 71.7971C230.245 66.4824 229.177 60.2322 230.185 54.1628C230.393 52.9355 232.209 53.2191 232.001 54.448C231.052 60.098 232.047 65.92 234.807 70.8631C237.566 75.8062 241.908 79.5449 247.048 81.4043C248.165 81.8098 247.416 83.5795 246.306 83.1764Z" fill="white"/>
<path d="M249.157 136.284C259.947 130.913 268.423 121.444 272.895 109.767C273.337 108.61 275.015 109.395 274.573 110.551C269.898 122.694 261.058 132.528 249.818 138.091C248.747 138.621 248.091 136.81 249.157 136.284Z" fill="white"/>
<path d="M269.072 32.1092C271.048 33.3642 273.289 34.0812 275.593 34.1958C277.896 34.3103 280.191 33.8188 282.27 32.7655C283.335 32.2219 283.99 34.0331 282.932 34.5731C280.629 35.7256 278.095 36.2651 275.549 36.1445C273.004 36.0239 270.525 35.2469 268.329 33.8812C268.112 33.7708 267.943 33.5773 267.856 33.3398C267.769 33.1024 267.771 32.839 267.862 32.6031C267.961 32.369 268.144 32.1858 268.371 32.0933C268.597 32.0008 268.849 32.0065 269.072 32.1092Z" fill="white"/>
<path d="M516.108 146.461C498.956 106.397 499.589 55.6133 526.208 21.8052C535.114 68.6857 559.435 110.729 594.869 140.495C608.574 151.923 624.944 163.126 628.688 181.138C631.017 192.345 627.715 204.199 622.007 213.961C616.298 223.724 608.34 231.755 600.473 239.669L599.59 242.377C565.358 217.349 533.261 186.526 516.108 146.461Z" fill="#776E9A"/>
<path d="M526.949 22.2939C520.823 57.7186 525.374 95.4395 540.264 127.895C543.483 134.912 547.327 141.734 552.474 147.378C557.53 152.838 563.879 156.769 570.861 158.761C577.335 160.758 584.176 162.008 590.078 165.631C596.3 169.45 600.16 175.859 601.664 183.208C603.504 192.199 602.175 201.353 600.581 210.257C598.811 220.143 596.824 230.381 599.389 240.319C599.7 241.524 597.912 241.962 597.602 240.76C593.139 223.47 601.816 206.417 600.603 189.033C600.037 180.922 597.153 172.941 590.567 168.241C584.808 164.131 577.754 162.836 571.182 160.875C564.281 158.815 558.084 155.669 552.811 150.451C547.417 145.113 543.312 138.435 539.937 131.536C532.394 115.831 527.237 98.9716 524.653 81.5748C521.601 61.7372 521.784 41.4943 525.195 21.722C525.407 20.4983 527.159 21.0782 526.949 22.2939Z" fill="white"/>
<path d="M534.897 117.615C529.34 119.496 523.331 119.229 517.944 116.863C512.556 114.497 508.14 110.186 505.484 104.699C504.95 103.587 506.562 102.659 507.096 103.772C509.56 108.887 513.674 112.902 518.696 115.095C523.717 117.287 529.315 117.512 534.48 115.728C535.603 115.342 536.013 117.231 534.897 117.615Z" fill="white"/>
<path d="M567.452 158.206C573.005 147.058 574.374 134.109 571.287 121.941C570.981 120.736 572.768 120.297 573.074 121.501C576.264 134.169 574.813 147.641 569.011 159.229C568.457 160.333 566.901 159.304 567.452 158.206Z" fill="white"/>
<path d="M523.96 62.3667C526.254 62.1122 528.451 61.26 530.356 59.8868C532.261 58.5136 533.813 56.6623 534.872 54.4992C535.413 53.3882 536.968 54.4182 536.431 55.522C535.25 57.9061 533.533 59.9484 531.432 61.4706C529.331 62.9927 526.909 63.9483 524.377 64.2538C524.141 64.3037 523.895 64.2568 523.691 64.1224C523.486 63.9881 523.337 63.7765 523.275 63.5306C523.221 63.2805 523.263 63.0179 523.391 62.7999C523.519 62.582 523.724 62.4263 523.96 62.3667Z" fill="white"/>
<path d="M667.18 22.1978C666.861 22.9016 666.543 23.6054 666.231 24.3236C661.994 33.8096 658.493 43.6435 655.763 53.7282C655.541 54.5044 655.326 55.2945 655.125 56.0758C648.794 80.4462 646.802 105.846 649.252 130.984C650.235 140.986 651.938 150.895 654.345 160.624C657.67 174.06 662.287 188.349 661.245 201.766C661.151 203.167 660.975 204.56 660.718 205.938L602.788 243.305C602.616 243.32 602.451 243.349 602.278 243.365L600.03 244.968C599.873 244.476 599.719 243.961 599.562 243.469C599.47 243.183 599.39 242.889 599.298 242.604C599.24 242.411 599.183 242.218 599.121 242.047C599.102 241.983 599.083 241.919 599.072 241.868C599.009 241.698 598.969 241.532 598.914 241.376C598.051 238.502 597.205 235.618 596.376 232.721C596.368 232.707 596.368 232.707 596.373 232.685C590.115 210.6 585.548 187.769 584.408 164.932C584.373 164.245 584.331 163.545 584.323 162.841C583.863 152.544 584.201 142.224 585.333 131.986C585.97 126.381 586.875 120.815 588.045 115.307C591.094 101.082 596.243 87.4525 603.303 74.9173C617.38 49.9308 638.867 29.9767 665.165 22.7306C665.838 22.5457 666.499 22.3686 667.18 22.1978Z" fill="#776E9A"/>
<path d="M667.499 23.0581C642.411 47.4478 624.538 80.4594 617.923 115.841C616.493 123.49 615.673 131.381 616.565 139.159C617.489 146.734 620.317 153.909 624.755 159.939C628.787 165.649 633.536 170.997 636.183 177.642C638.973 184.647 638.402 192.218 635.413 199.042C631.755 207.392 625.475 213.855 619.126 219.951C612.076 226.719 604.653 233.63 601.035 243.196C600.596 244.355 598.919 243.569 599.357 242.412C605.651 225.769 622.302 217.67 631.244 203.019C635.417 196.183 637.664 187.977 635.085 180.037C632.83 173.094 627.936 167.575 623.807 161.83C619.471 155.799 616.317 149.347 615.081 141.827C613.818 134.136 614.348 126.194 615.586 118.54C618.518 101.205 624.012 84.4639 631.868 68.931C640.741 51.1509 652.428 35.1047 666.425 21.4865C667.291 20.644 668.36 22.2212 667.499 23.0581Z" fill="white"/>
<path d="M619.499 104.22C613.99 102.189 609.344 98.1557 606.391 92.841C603.438 87.5263 602.37 81.2762 603.378 75.2068C603.586 73.9794 605.402 74.263 605.194 75.492C604.245 81.142 605.241 86.9639 608 91.907C610.76 96.8501 615.101 100.589 620.242 102.448C621.358 102.854 620.609 104.623 619.499 104.22Z" fill="white"/>
<path d="M622.35 157.328C633.14 151.957 641.616 142.488 646.088 130.811C646.531 129.653 648.208 130.439 647.766 131.595C643.091 143.738 634.251 153.572 623.011 159.135C621.94 159.665 621.284 157.854 622.35 157.328Z" fill="white"/>
<path d="M642.265 53.1531C644.241 54.4082 646.482 55.1251 648.786 55.2397C651.09 55.3542 653.384 54.8628 655.464 53.8094C656.528 53.2659 657.183 55.077 656.125 55.617C653.822 56.7695 651.288 57.3091 648.742 57.1885C646.197 57.0679 643.718 56.2908 641.522 54.9252C641.305 54.8148 641.136 54.6212 641.049 54.3838C640.962 54.1464 640.964 53.8829 641.055 53.647C641.154 53.4129 641.337 53.2297 641.564 53.1372C641.79 53.0448 642.042 53.0505 642.265 53.1531Z" fill="white"/>
<path d="M169.21 409.728H610.503V139.935C610.501 137.914 609.739 135.976 608.386 134.546C607.032 133.117 605.197 132.313 603.283 132.311H176.43C174.516 132.313 172.681 133.117 171.327 134.546C169.974 135.976 169.212 137.914 169.21 139.935V409.728Z" fill="#CACACA"/>
<path d="M596.869 142.856H182.845V391.071H596.869V142.856Z" fill="white"/>
<path d="M168.826 402.427V435.72C168.826 437.1 169.084 438.467 169.584 439.742C170.084 441.017 170.817 442.176 171.741 443.152C172.665 444.128 173.762 444.902 174.97 445.43C176.177 445.958 177.472 446.23 178.779 446.23H341.656V511.934H339.492C339.323 511.934 339.155 511.969 338.998 512.038C338.841 512.106 338.698 512.207 338.578 512.334C338.458 512.461 338.363 512.611 338.298 512.777C338.233 512.942 338.2 513.12 338.2 513.299V517.869C338.2 518.048 338.233 518.226 338.298 518.392C338.363 518.557 338.458 518.708 338.578 518.835C338.698 518.961 338.841 519.062 338.998 519.131C339.155 519.199 339.323 519.234 339.492 519.234H440.605C440.775 519.234 440.943 519.199 441.1 519.131C441.256 519.062 441.399 518.961 441.519 518.835C441.639 518.708 441.734 518.557 441.799 518.392C441.864 518.226 441.898 518.048 441.898 517.869V513.299C441.898 513.12 441.864 512.942 441.799 512.777C441.734 512.611 441.639 512.461 441.519 512.334C441.399 512.207 441.256 512.106 441.1 512.038C440.943 511.969 440.775 511.934 440.605 511.934H438.441V446.23H601.319C602.626 446.23 603.92 445.958 605.127 445.43C606.335 444.902 607.432 444.128 608.356 443.152C609.28 442.176 610.013 441.017 610.514 439.742C611.014 438.467 611.271 437.1 611.271 435.72V402.427L168.826 402.427Z" fill="#3F3D56"/>
<path d="M311.586 265.607H210.691C209.988 265.607 209.314 265.311 208.817 264.786C208.32 264.261 208.04 263.549 208.039 262.807V219.575C208.04 218.832 208.32 218.121 208.817 217.596C209.314 217.071 209.988 216.775 210.691 216.774H311.586C312.289 216.775 312.963 217.071 313.46 217.596C313.958 218.121 314.237 218.832 314.238 219.575V262.807C314.237 263.549 313.958 264.261 313.46 264.786C312.963 265.311 312.289 265.607 311.586 265.607Z" fill="#FFB566"/>
<path d="M301.979 286.346H220.298C219.454 286.346 218.645 285.992 218.048 285.362C217.451 284.732 217.116 283.877 217.116 282.986C217.116 282.094 217.451 281.239 218.048 280.609C218.645 279.979 219.454 279.625 220.298 279.625H301.979C306.083 279.564 306.124 286.407 301.979 286.346Z" fill="#E4E4E4"/>
<path d="M301.979 301.749H220.298C219.454 301.749 218.645 301.395 218.048 300.765C217.451 300.134 217.116 299.28 217.116 298.388C217.116 297.497 217.451 296.642 218.048 296.012C218.645 295.382 219.454 295.028 220.298 295.028H301.979C306.083 294.967 306.124 301.81 301.979 301.749Z" fill="#E4E4E4"/>
<path d="M301.979 317.152H220.298C219.454 317.152 218.645 316.798 218.048 316.168C217.451 315.537 217.116 314.682 217.116 313.791C217.116 312.9 217.451 312.045 218.048 311.415C218.645 310.785 219.454 310.431 220.298 310.431H301.979C306.083 310.37 306.124 317.213 301.979 317.152Z" fill="#E4E4E4"/>
<path d="M440.304 265.607H339.409C338.706 265.607 338.032 265.311 337.535 264.786C337.038 264.261 336.758 263.549 336.757 262.807V219.575C336.758 218.832 337.038 218.121 337.535 217.596C338.032 217.071 338.706 216.775 339.409 216.774H440.304C441.007 216.775 441.681 217.071 442.178 217.596C442.676 218.121 442.955 218.832 442.956 219.575V262.807C442.955 263.549 442.676 264.261 442.178 264.786C441.681 265.311 441.007 265.607 440.304 265.607Z" fill="#FFB566"/>
<path d="M430.697 286.346H349.016C348.172 286.346 347.363 285.992 346.766 285.362C346.169 284.732 345.834 283.877 345.834 282.986C345.834 282.094 346.169 281.239 346.766 280.609C347.363 279.979 348.172 279.625 349.016 279.625H430.697C434.801 279.564 434.842 286.407 430.697 286.346Z" fill="#E4E4E4"/>
<path d="M430.697 301.749H349.016C348.172 301.749 347.363 301.395 346.766 300.765C346.169 300.134 345.834 299.28 345.834 298.388C345.834 297.497 346.169 296.642 346.766 296.012C347.363 295.382 348.172 295.028 349.016 295.028H430.697C434.801 294.967 434.842 301.81 430.697 301.749Z" fill="#E4E4E4"/>
<path d="M430.697 317.152H349.016C348.172 317.152 347.363 316.798 346.766 316.168C346.169 315.537 345.834 314.682 345.834 313.791C345.834 312.9 346.169 312.045 346.766 311.415C347.363 310.785 348.172 310.431 349.016 310.431H430.697C434.801 310.37 434.842 317.213 430.697 317.152Z" fill="#E4E4E4"/>
<path d="M569.022 265.607H468.127C467.424 265.607 466.75 265.311 466.253 264.786C465.756 264.261 465.476 263.549 465.475 262.807V219.575C465.476 218.832 465.756 218.121 466.253 217.596C466.75 217.071 467.424 216.775 468.127 216.774H569.022C569.725 216.775 570.399 217.071 570.896 217.596C571.394 218.121 571.673 218.832 571.674 219.575V262.807C571.673 263.549 571.394 264.261 570.896 264.786C570.399 265.311 569.725 265.607 569.022 265.607Z" fill="#FFB566"/>
<path d="M559.415 286.346H477.734C476.89 286.346 476.081 285.992 475.484 285.362C474.887 284.732 474.552 283.877 474.552 282.986C474.552 282.094 474.887 281.239 475.484 280.609C476.081 279.979 476.89 279.625 477.734 279.625H559.415C563.519 279.564 563.56 286.407 559.415 286.346Z" fill="#E4E4E4"/>
<path d="M559.415 301.749H477.734C476.891 301.748 476.083 301.393 475.488 300.763C474.892 300.133 474.557 299.279 474.557 298.388C474.557 297.498 474.892 296.644 475.488 296.014C476.083 295.384 476.891 295.029 477.734 295.028H559.415C563.519 294.967 563.56 301.81 559.415 301.749Z" fill="#E4E4E4"/>
<path d="M559.415 317.152H477.734C476.89 317.152 476.081 316.798 475.484 316.168C474.887 315.537 474.552 314.682 474.552 313.791C474.552 312.9 474.887 312.045 475.484 311.415C476.081 310.785 476.89 310.431 477.734 310.431H559.415C563.519 310.37 563.56 317.213 559.415 317.152Z" fill="#E4E4E4"/>
<path d="M741.429 217.358L741.704 271.546L742.829 271.479L743.898 291.541L741.81 291.661L741.868 303.714L743.539 303.679L743.878 323.758L741.975 323.795L742.881 500.618C742.901 505.248 741.18 509.697 738.097 512.989C735.014 516.281 730.82 518.146 726.435 518.176L541.47 519.234C537.085 519.256 532.872 517.439 529.755 514.183C526.637 510.926 524.871 506.497 524.843 501.867L523.391 218.607C523.371 213.977 525.092 209.528 528.175 206.236C531.258 202.945 535.453 201.079 539.837 201.049L724.802 199.991C729.186 199.972 733.398 201.789 736.515 205.045C739.632 208.301 741.399 212.729 741.429 217.358Z" fill="#3F3D56"/>
<path d="M726.703 507.036L541.087 508.099C539.735 508.105 538.437 507.545 537.476 506.541C536.515 505.538 535.971 504.172 535.962 502.745L534.498 217.602C534.492 216.175 535.022 214.804 535.973 213.789C536.923 212.775 538.216 212.2 539.567 212.19L725.184 211.127C726.535 211.121 727.834 211.682 728.794 212.685C729.755 213.689 730.3 215.054 730.308 216.481L731.773 501.624C731.779 503.051 731.248 504.422 730.298 505.437C729.347 506.452 728.055 507.027 726.703 507.036Z" fill="white"/>
<path d="M631.642 207.355C632.419 207.355 633.049 206.69 633.049 205.87C633.049 205.049 632.419 204.384 631.642 204.384C630.865 204.384 630.236 205.049 630.236 205.87C630.236 206.69 630.865 207.355 631.642 207.355Z" fill="white"/>
<path d="M686.85 291.386H579.421C578.672 291.385 577.954 291.07 577.425 290.511C576.896 289.952 576.598 289.194 576.597 288.404V242.372C576.598 241.581 576.896 240.824 577.425 240.265C577.954 239.706 578.672 239.391 579.421 239.39H686.85C687.598 239.391 688.316 239.705 688.845 240.265C689.375 240.824 689.672 241.581 689.673 242.372V288.404C689.672 289.194 689.375 289.952 688.845 290.511C688.316 291.07 687.598 291.385 686.85 291.386Z" fill="#FFB566"/>
<path d="M676.62 313.468H589.65C588.751 313.468 587.889 313.091 587.254 312.419C586.618 311.748 586.261 310.838 586.261 309.889C586.261 308.94 586.618 308.03 587.254 307.359C587.889 306.688 588.751 306.311 589.65 306.311H676.62C680.99 306.247 681.034 313.533 676.62 313.468Z" fill="#E4E4E4"/>
<path d="M676.62 329.868H589.65C588.752 329.866 587.892 329.489 587.258 328.818C586.623 328.147 586.267 327.238 586.267 326.29C586.267 325.342 586.623 324.432 587.258 323.761C587.892 323.091 588.752 322.713 589.65 322.711H676.62C680.99 322.647 681.034 329.933 676.62 329.868Z" fill="#E4E4E4"/>
<path d="M676.62 346.268H589.65C588.751 346.268 587.889 345.891 587.254 345.22C586.618 344.549 586.261 343.639 586.261 342.69C586.261 341.741 586.618 340.831 587.254 340.16C587.889 339.489 588.751 339.112 589.65 339.112H676.62C680.99 339.047 681.034 346.333 676.62 346.268Z" fill="#E4E4E4"/>
<path d="M686.85 424.953H579.421C578.672 424.952 577.954 424.638 577.425 424.079C576.896 423.52 576.598 422.762 576.597 421.971V375.939C576.598 375.149 576.896 374.391 577.425 373.832C577.954 373.273 578.672 372.958 579.421 372.958H686.85C687.598 372.958 688.316 373.273 688.845 373.832C689.375 374.391 689.672 375.149 689.673 375.939V421.971C689.672 422.762 689.375 423.52 688.845 424.079C688.316 424.638 687.598 424.952 686.85 424.953Z" fill="#FFB566"/>
<path d="M676.62 447.035H589.65C588.751 447.035 587.889 446.658 587.254 445.987C586.618 445.316 586.261 444.406 586.261 443.457C586.261 442.508 586.618 441.597 587.254 440.926C587.889 440.255 588.751 439.878 589.65 439.878H676.62C680.99 439.814 681.034 447.1 676.62 447.035Z" fill="#E4E4E4"/>
<path d="M676.62 463.435H589.65C588.752 463.434 587.892 463.056 587.258 462.385C586.623 461.714 586.267 460.805 586.267 459.857C586.267 458.909 586.623 458 587.258 457.329C587.892 456.658 588.752 456.28 589.65 456.279H676.62C680.99 456.214 681.034 463.5 676.62 463.435Z" fill="#E4E4E4"/>
<path d="M676.62 479.836H589.65C588.751 479.836 587.889 479.459 587.254 478.788C586.618 478.117 586.261 477.206 586.261 476.257C586.261 475.308 586.618 474.398 587.254 473.727C587.889 473.056 588.751 472.679 589.65 472.679H676.62C680.99 472.615 681.034 479.901 676.62 479.836Z" fill="#E4E4E4"/>
<path d="M209.53 505.32L209.173 349.16L210.521 349.156L210.456 320.434L209.107 320.438L208.997 272.492C208.993 270.701 208.655 268.929 208.002 267.276C207.35 265.623 206.395 264.123 205.193 262.859C203.991 261.596 202.565 260.595 200.997 259.914C199.429 259.233 197.749 258.884 196.053 258.889L99.9598 259.134C98.264 259.138 96.5857 259.495 95.0205 260.184C93.4554 260.873 92.0342 261.881 90.8379 263.151C89.6417 264.42 88.694 265.926 88.0487 267.582C87.4035 269.238 87.0735 271.012 87.0776 272.802L87.1541 306.233L85.007 306.29L85.4812 326.371L87.2001 326.326L87.2102 330.757L85.381 330.805L85.8553 350.886L87.2562 350.849L87.6104 505.631C87.6113 507.422 87.9472 509.196 88.5987 510.851C89.2503 512.505 90.2048 514.007 91.4074 515.271C92.61 516.535 94.0371 517.536 95.6067 518.216C97.1764 518.896 98.8578 519.242 100.554 519.235L196.648 518.99C200.071 518.977 203.35 517.53 205.765 514.968C208.18 512.405 209.534 508.936 209.53 505.32Z" fill="#3F3D56"/>
<path d="M97.616 512.985C96.4176 512.53 95.3808 511.697 94.6466 510.598C93.9123 509.5 93.5162 508.189 93.5121 506.844L92.974 271.559C92.9702 269.826 93.6184 268.162 94.7759 266.934C95.9335 265.706 97.5056 265.013 99.1466 265.009L119.592 264.957L119.339 265.616C118.9 266.761 118.734 268.002 118.856 269.23C118.978 270.459 119.385 271.637 120.039 272.66C120.694 273.684 121.577 274.521 122.611 275.099C123.644 275.678 124.797 275.978 125.966 275.976L171.341 275.86C172.471 275.756 173.561 275.373 174.524 274.741C175.487 274.109 176.296 273.247 176.885 272.224C177.466 271.219 177.813 270.083 177.899 268.909C177.985 267.735 177.806 266.556 177.378 265.468L177.122 264.81L198.241 264.756C199.882 264.754 201.456 265.439 202.619 266.661C203.781 267.883 204.438 269.542 204.444 271.275L204.958 495.757C204.963 500.354 203.241 504.765 200.171 508.023C197.1 511.281 192.931 513.12 188.578 513.136L99.7147 513.363C98.9997 513.366 98.2897 513.238 97.616 512.985Z" fill="white"/>
<path d="M132.622 270.534C133.399 270.534 134.029 269.869 134.029 269.049C134.029 268.228 133.399 267.563 132.622 267.563C131.845 267.563 131.215 268.228 131.215 269.049C131.215 269.869 131.845 270.534 132.622 270.534Z" fill="white"/>
<path d="M187 342.844H113.994C113.485 342.844 112.997 342.63 112.638 342.25C112.278 341.87 112.076 341.355 112.075 340.818V309.536C112.076 308.998 112.278 308.483 112.638 308.104C112.997 307.724 113.485 307.51 113.994 307.509H187C187.509 307.51 187.997 307.724 188.356 308.104C188.716 308.483 188.918 308.998 188.919 309.536V340.818C188.918 341.355 188.716 341.87 188.356 342.25C187.997 342.63 187.509 342.844 187 342.844Z" fill="#FFB566"/>
<path d="M180.048 357.85H120.945C120.643 357.851 120.343 357.789 120.063 357.667C119.783 357.545 119.529 357.366 119.314 357.14C119.1 356.914 118.93 356.646 118.814 356.35C118.698 356.055 118.638 355.739 118.638 355.419C118.638 355.099 118.698 354.782 118.814 354.487C118.93 354.192 119.1 353.923 119.314 353.698C119.529 353.472 119.783 353.293 120.063 353.171C120.343 353.049 120.643 352.986 120.945 352.987H180.048C183.018 352.943 183.048 357.895 180.048 357.85Z" fill="#E4E4E4"/>
<path d="M180.048 368.996H120.945C120.335 368.996 119.749 368.739 119.317 368.283C118.885 367.827 118.643 367.209 118.643 366.564C118.643 365.919 118.885 365.3 119.317 364.844C119.749 364.388 120.335 364.132 120.945 364.132H180.048C183.018 364.088 183.048 369.04 180.048 368.996Z" fill="#E4E4E4"/>
<path d="M180.048 380.141H120.945C120.643 380.142 120.343 380.079 120.063 379.957C119.783 379.835 119.529 379.656 119.314 379.431C119.1 379.205 118.93 378.936 118.814 378.641C118.698 378.346 118.638 378.029 118.638 377.709C118.638 377.39 118.698 377.073 118.814 376.778C118.93 376.482 119.1 376.214 119.314 375.988C119.529 375.762 119.783 375.583 120.063 375.461C120.343 375.339 120.643 375.277 120.945 375.278H180.048C183.018 375.234 183.048 380.185 180.048 380.141Z" fill="#E4E4E4"/>
<path d="M187 436.586H113.994C113.485 436.585 112.997 436.372 112.638 435.992C112.278 435.612 112.076 435.097 112.075 434.559V403.277C112.076 402.74 112.278 402.225 112.638 401.845C112.997 401.465 113.485 401.252 113.994 401.251H187C187.509 401.252 187.997 401.465 188.356 401.845C188.716 402.225 188.918 402.74 188.919 403.277V434.559C188.918 435.097 188.716 435.612 188.356 435.992C187.997 436.372 187.509 436.585 187 436.586Z" fill="#FFB566"/>
<path d="M180.048 451.592H120.945C120.643 451.593 120.343 451.53 120.063 451.409C119.783 451.287 119.529 451.108 119.314 450.882C119.1 450.656 118.93 450.388 118.814 450.092C118.698 449.797 118.638 449.48 118.638 449.161C118.638 448.841 118.698 448.524 118.814 448.229C118.93 447.933 119.1 447.665 119.314 447.439C119.529 447.213 119.783 447.034 120.063 446.912C120.343 446.791 120.643 446.728 120.945 446.729H180.048C183.018 446.685 183.048 451.636 180.048 451.592Z" fill="#E4E4E4"/>
<path d="M180.048 462.738H120.945C120.335 462.738 119.749 462.482 119.317 462.026C118.885 461.569 118.643 460.951 118.643 460.306C118.643 459.661 118.885 459.043 119.317 458.587C119.749 458.131 120.335 457.874 120.945 457.874H180.048C183.018 457.831 183.048 462.782 180.048 462.738Z" fill="#E4E4E4"/>
<path d="M180.048 473.883H120.945C120.643 473.884 120.343 473.821 120.063 473.7C119.783 473.578 119.529 473.399 119.314 473.173C119.1 472.947 118.93 472.679 118.814 472.383C118.698 472.088 118.638 471.771 118.638 471.452C118.638 471.132 118.698 470.815 118.814 470.52C118.93 470.224 119.1 469.956 119.314 469.73C119.529 469.504 119.783 469.325 120.063 469.204C120.343 469.082 120.643 469.019 120.945 469.02H180.048C183.018 468.976 183.048 473.927 180.048 473.883Z" fill="#E4E4E4"/>
<path d="M23.801 510.689L31.7341 510.688L35.5077 478.377H23.7992L23.801 510.689Z" fill="#A0616A"/>
<path d="M21.7775 507.954L24.0103 507.954L32.7277 504.21L37.3999 507.953C40.0403 507.953 42.5732 509.061 44.4402 511.033C46.3073 513.004 47.3563 515.678 47.3564 518.467V518.808L21.7779 518.809L21.7775 507.954Z" fill="#2F2E41"/>
<path d="M54.5424 505.41L62.2798 507.255L72.7011 476.615L61.2807 473.892L54.5424 505.41Z" fill="#A0616A"/>
<path d="M53.1388 502.271L55.3168 502.79L64.601 501.166L68.3777 505.904C70.9532 506.518 73.1927 508.188 74.6026 510.546C76.0126 512.903 76.478 515.755 75.8966 518.475L75.8253 518.809L50.8749 512.86L53.1388 502.271Z" fill="#2F2E41"/>
<path d="M13.7539 313.151C10.0346 324.997 10.4278 337.855 14.6479 351.655L16.4519 429.354C16.4519 429.354 13.7641 480.307 22.4371 498.237H35.0153L41.243 424.701L42.0251 375.343L68.9916 416.984L51.8158 497.035L67.2967 498.497L95.1684 411.623L60.7802 327.34L13.7539 313.151Z" fill="#2F2E41"/>
<path d="M63.0232 329.829L17.2858 322.103C16.0862 321.698 14.984 321.023 14.0548 320.125C13.1256 319.227 12.3914 318.127 11.9027 316.901C11.4139 315.675 11.1821 314.352 11.2233 313.023C11.2644 311.693 11.5775 310.389 12.141 309.199L14.2152 304.818L13.4095 258.788C13.3124 252.801 14.7101 246.892 17.4622 241.656C20.2142 236.421 24.2234 232.043 29.0865 228.963L33.5467 226.146L35.8008 220.102L56.5855 220.637L56.6461 228.565L64.0896 241.099L64.0893 241.151L63.6222 309.374L61.5708 316.414L64.6727 324.603L63.0232 329.829Z" fill="#3F3D56"/>
<path d="M48.0965 212.585C58.5264 212.585 66.9815 203.656 66.9815 192.642C66.9815 181.628 58.5264 172.699 48.0965 172.699C37.6665 172.699 29.2114 181.628 29.2114 192.642C29.2114 203.656 37.6665 212.585 48.0965 212.585Z" fill="#A0616A"/>
<path d="M28.4314 196.989C27.8682 194.484 28.1268 190.957 28.4451 188.434C28.8527 185.107 29.9178 181.908 31.5713 179.043C33.2247 176.179 35.4297 173.713 38.0433 171.806C39.0454 171.002 40.2362 170.502 41.4873 170.36C42.1127 170.305 42.7387 170.46 43.2756 170.803C43.8126 171.146 44.233 171.659 44.4767 172.27C44.7917 171.44 45.2644 170.687 45.8657 170.057C46.467 169.427 47.1842 168.934 47.9729 168.609C49.5573 167.968 51.2613 167.725 52.9498 167.901C56.2227 168.186 59.3615 169.401 62.0331 171.417C64.7046 173.434 66.8094 176.177 68.1239 179.355C68.6283 180.62 70.0372 175.946 70.6763 177.142C71.2636 178.385 72.2882 179.335 73.5309 179.791C74.7832 180.16 75.2918 185.608 75.7847 184.338C76.167 185.277 76.3182 186.302 76.224 187.32C76.1298 188.337 75.7934 189.312 75.2461 190.155C74.6988 190.998 73.9584 191.681 73.0938 192.141C72.2292 192.6 71.2686 192.821 70.3014 192.783C69.0371 192.61 67.7839 192.357 66.5486 192.024C64.2804 191.722 61.9861 192.308 60.0988 193.67C58.2114 195.033 56.8618 197.078 56.3046 199.419C55.9599 198.058 55.4092 196.764 54.6738 195.588C54.3005 195.003 53.8004 194.52 53.2149 194.181C52.6295 193.841 51.9757 193.654 51.308 193.635C50.6697 193.712 50.0531 193.926 49.4961 194.264C48.9391 194.603 48.4534 195.057 48.0689 195.601C47.2375 196.632 46.6131 197.834 45.7755 198.86C43.318 201.868 39.9942 208.885 36.4919 208.373C33.7281 207.969 29.2005 200.411 28.4314 196.989Z" fill="#2F2E41"/>
<path d="M118.498 315.272C117.694 315.641 116.824 315.819 115.948 315.794C115.072 315.769 114.211 315.541 113.428 315.127C112.644 314.713 111.956 314.123 111.411 313.398C110.867 312.672 110.48 311.83 110.277 310.93L89.0836 308.668L96.0757 299.606L115.13 303.143C116.585 302.883 118.079 303.197 119.33 304.023C120.58 304.85 121.5 306.132 121.916 307.627C122.331 309.122 122.212 310.726 121.582 312.135C120.952 313.544 119.855 314.66 118.498 315.272Z" fill="#A0616A"/>
<path d="M105.462 311.677L56.0026 306.865L55.9347 306.782L19.8378 263.105C17.4622 259.261 16.5678 254.604 17.3376 250.087C18.1075 245.57 20.4833 241.535 23.9788 238.807C25.9128 237.302 28.1268 236.246 30.4751 235.71C32.8233 235.173 35.2526 235.168 37.6029 235.694C39.9533 236.22 42.1714 237.266 44.1113 238.763C46.0513 240.26 47.669 242.174 48.8581 244.379L71.0909 285.605L106.007 300.419L105.462 311.677Z" fill="#3F3D56"/>
<path d="M870.922 520H1.07858C0.793077 519.999 0.519549 519.878 0.31796 519.665C0.11637 519.451 0.00317383 519.162 0.00317383 518.861C0.00317383 518.559 0.11637 518.27 0.31796 518.056C0.519549 517.843 0.793077 517.723 1.07858 517.722H870.922C871.208 517.722 871.482 517.842 871.684 518.055C871.886 518.269 872 518.559 872 518.861C872 519.163 871.886 519.452 871.684 519.666C871.482 519.88 871.208 520 870.922 520Z" fill="#CCCCCC"/>
<path d="M719.651 316.423C720.458 316.505 721.273 316.399 722.038 316.113C722.802 315.826 723.498 315.366 724.076 314.765C724.654 314.164 725.1 313.436 725.383 312.633C725.665 311.83 725.778 310.972 725.713 310.118L743.76 301.727L735.15 295.86L719.332 304.727C717.981 304.938 716.75 305.665 715.873 306.771C714.996 307.876 714.533 309.283 714.572 310.725C714.611 312.166 715.15 313.543 716.086 314.593C717.022 315.643 718.291 316.294 719.651 316.423Z" fill="#FFB6B6"/>
<path d="M730.262 308.21L727.057 296.427L759.498 279.239L778.635 240.299C779.581 238.374 780.916 236.693 782.547 235.374C784.177 234.056 786.063 233.133 788.069 232.67C790.075 232.208 792.153 232.218 794.156 232.699C796.158 233.18 798.036 234.121 799.655 235.454C802.577 237.866 804.474 241.404 804.93 245.291C805.385 249.178 804.361 253.098 802.084 256.189L773.307 295.156L730.262 308.21Z" fill="#E4E4E4"/>
</g>
<defs>
<clipPath id="clip0_21_421">
<rect width="872" height="520" fill="white"/>
</clipPath>
</defs>
</svg>
