<svg xmlns="http://www.w3.org/2000/svg" height="24" width="24" viewBox="0 0 24 24"><title>arrow door out 3</title><g fill="#ffb566" class="nc-icon-wrapper"><path d="M8.31 15.3c0.55 0 1 0.45 1 0.99v3.33c0 0.19 0.15 0.33 0.33 0.33h7.05l-2.29-1.42c-0.69-0.43-1.1-1.17-1.1-1.98v-9.16c0-0.81 0.41-1.56 1.1-1.98l2.29-1.42h-7.05c-0.19 0-0.33 0.15-0.33 0.33v3.33c0 0.55-0.45 1-1 0.99s-1-0.45-1-0.99v-3.33c0-1.28 1.05-2.33 2.33-2.33h8.65c1.28 0 2.33 1.05 2.32 2.33v15.3c0 1.28-1.05 2.33-2.32 2.33h-8.65c-1.28 0-2.33-1.05-2.33-2.33v-3.33c0-0.55 0.45-1 1-0.99z" fill="#776e9a"></path><path d="M0.29 11.27l3.66-3.66c0.39-0.39 1.02-0.39 1.41 0s0.39 1.02 0 1.41l-1.96 1.95h5.58c0.55 0 1 0.45 1 1s-0.45 1-1 1h-5.58l1.96 1.95c0.39 0.39 0.39 1.02 0 1.41-0.2 0.2-0.45 0.29-0.7 0.3s-0.51-0.09-0.71-0.3l-3.66-3.66c-0.39-0.39-0.39-1.02 0-1.4z" data-color="color-2"></path></g></svg>