<svg width="570" height="616" viewBox="0 0 570 616" fill="none" xmlns="http://www.w3.org/2000/svg">
<g clip-path="url(#clip0_247_163)">
<path d="M323.137 474.638C459.476 474.638 570 368.387 570 237.319C570 106.251 459.476 0 323.137 0C186.798 0 76.2735 106.251 76.2735 237.319C76.2735 368.387 186.798 474.638 323.137 474.638Z" fill="#F2F2F2"/>
<path d="M484.458 106.129H32.2386C31.2689 106.109 30.4996 105.337 30.5203 104.405C30.5404 103.501 31.2981 102.772 32.2386 102.753H484.458C485.428 102.773 486.197 103.545 486.176 104.477C486.156 105.381 485.399 106.109 484.458 106.129Z" fill="#CACACA"/>
<path d="M330.343 163.015H205.331C195.942 163.015 188.33 170.332 188.33 179.359V179.359C188.33 188.386 195.942 195.703 205.331 195.703H330.343C339.732 195.703 347.344 188.386 347.344 179.359C347.344 170.332 339.732 163.015 330.343 163.015Z" fill="white"/>
<path d="M124.574 228.392H411.101C420.49 228.392 428.102 235.71 428.102 244.736C428.102 253.763 420.49 261.081 411.101 261.081H124.574C115.184 261.081 107.572 253.763 107.572 244.736C107.572 235.71 115.184 228.392 124.574 228.392Z" fill="white"/>
<path d="M124.574 293.77H411.101C420.49 293.77 428.102 301.087 428.102 310.114C428.102 319.141 420.49 326.458 411.101 326.458H124.574C115.184 326.458 107.572 319.141 107.572 310.114C107.572 301.087 115.184 293.77 124.574 293.77Z" fill="white"/>
<path d="M89.066 614.563L88.3916 614.499C65.5124 612.23 44.8296 600.401 31.8381 582.154C28.2796 577.07 25.4012 571.575 23.2708 565.8L23.066 565.249L23.6722 565.202C30.91 564.642 38.3454 563.461 41.6484 562.899L20.3494 555.962L20.2177 555.354C18.955 549.651 21.4288 543.783 26.4656 540.534C31.516 537.129 38.2133 537.02 43.3807 540.259C45.6996 541.683 48.1251 543.093 50.4706 544.457C58.5308 549.144 66.8654 553.991 73.1142 560.622C82.5898 570.879 86.7432 584.7 84.4175 598.234L89.066 614.563Z" fill="#F2F2F2"/>
<path d="M166.487 604.38L176.984 604.379L181.978 565.453L166.484 565.454L166.487 604.38Z" fill="#A0616A"/>
<path d="M166.117 614.907L198.398 614.906V614.514C198.397 607.843 192.772 602.435 185.833 602.435L179.936 598.134L168.934 602.435L166.116 602.436L166.117 614.907Z" fill="#2F2E41"/>
<path d="M82.3601 576.428L90.7564 582.484L119.051 554.229L106.658 545.291L82.3601 576.428Z" fill="#A0616A"/>
<path d="M75.492 584.637L101.314 603.26L101.559 602.946C105.723 597.609 104.6 590.038 99.0493 586.035L97.0166 579.193L85.5313 576.286L83.2771 574.66L75.492 584.637Z" fill="#2F2E41"/>
<path d="M117.255 421.711C117.255 421.711 117.834 436.907 118.565 449.094C118.685 451.092 113.814 453.264 113.94 455.438C114.024 456.881 114.94 458.283 115.025 459.787C115.115 461.374 113.85 462.779 113.94 464.421C114.028 466.025 115.47 467.864 115.557 469.506C116.494 487.174 119.887 508.324 116.489 514.237C114.814 517.15 93.4691 557.519 93.4691 557.519C93.4691 557.519 105.362 574.668 108.76 568.952C113.248 561.401 147.836 526.078 147.836 519.332C147.836 512.595 155.838 462.102 155.838 462.102L161.418 491.983L163.977 497.904L163.173 501.379L164.826 506.07L164.915 510.712L166.525 519.332C166.525 519.332 161.683 586.493 164.41 588.363C167.145 590.242 180.389 593.614 181.952 590.242C183.506 586.869 193.625 520.149 193.625 520.149C193.625 520.149 195.256 489.574 197.023 461.154C197.125 459.505 198.331 457.512 198.425 455.887C198.535 454.001 197.771 451.551 197.873 449.721C197.983 447.623 198.951 446.145 199.045 444.136C199.767 428.611 195.714 409.706 194.422 407.844C190.523 402.226 187.015 397.734 187.015 397.734C187.015 397.734 134.497 381.146 120.464 398.002L117.255 421.711Z" fill="#2F2E41"/>
<path d="M169.634 265.446L148.815 261.443L139.099 274.119C120.971 291.255 120.698 306.379 123.934 330.621V364.645L121.591 387.454C121.591 387.454 113.3 404.127 121.852 408.009C130.404 411.891 186.579 411.56 191.943 410.011C197.306 408.461 192.657 406.559 191.249 399.336C188.603 385.771 190.373 392.314 190.555 387.995C193.165 326.036 187.085 300.6 186.467 293.914L175.88 275.453L169.634 265.446Z" fill="#3F3D56"/>
<path d="M279.363 315.402C277.193 319.354 272.101 320.867 267.99 318.781C267.552 318.559 267.135 318.3 266.744 318.007L221.783 345.451L221.913 330.509L265.589 306.143C268.7 302.79 274.049 302.496 277.537 305.487C280.456 307.989 281.211 312.088 279.363 315.402Z" fill="#A0616A"/>
<path d="M153.196 282.75L148.077 282.229C143.348 281.757 138.707 283.704 135.851 287.359C134.757 288.745 133.972 290.333 133.543 292.023L133.54 292.037C132.256 297.124 134.27 302.456 138.65 305.567L156.33 318.097C168.736 334.213 192.053 344.905 219.404 353.592L261.918 328.209L246.881 310.701L217.721 325.725L174.375 293.469L174.35 293.449L157.853 283.232L153.196 282.75Z" fill="#3F3D56"/>
<path d="M162.599 255.618C176.008 255.618 186.877 245.169 186.877 232.279C186.877 219.389 176.008 208.939 162.599 208.939C149.191 208.939 138.321 219.389 138.321 232.279C138.321 245.169 149.191 255.618 162.599 255.618Z" fill="#A0616A"/>
<path d="M163.16 255.623C162.964 255.629 162.768 255.633 162.572 255.639C162.488 255.848 162.398 256.055 162.293 256.259L163.16 255.623Z" fill="#2F2E41"/>
<path d="M169.823 232.926C169.861 233.156 169.919 233.383 169.997 233.603C169.965 233.372 169.907 233.145 169.823 232.926Z" fill="#2F2E41"/>
<path d="M187.187 209.938C186.188 212.921 185.296 209.137 182.008 209.818C178.054 210.637 173.452 210.355 170.214 208.025C165.388 204.622 159.135 203.705 153.474 205.572C147.933 207.457 138.649 208.786 137.205 214.263C136.704 216.167 136.504 218.234 135.288 219.812C134.224 221.191 132.545 221.978 131.141 223.04C126.401 226.625 130.024 236.811 132.268 242.194C134.511 247.576 139.658 251.497 145.316 253.505C150.79 255.449 156.732 255.791 162.572 255.639C163.588 253.106 163.149 250.181 162.311 247.555C161.404 244.713 160.06 241.97 159.681 239.019C159.302 236.069 160.134 232.717 162.708 231.068C165.074 229.553 168.923 230.476 169.823 232.926C169.298 229.863 172.526 226.899 175.854 226.378C179.427 225.818 183 227.058 186.563 227.676C190.126 228.293 188.861 213.873 187.187 209.938Z" fill="#2F2E41"/>
<path d="M322.967 270.887C325.231 244.598 304.897 221.523 277.551 219.347C250.205 217.171 226.202 236.719 223.939 263.008C221.675 289.297 242.009 312.372 269.355 314.547C296.701 316.723 320.704 297.176 322.967 270.887Z" fill="#776E9A"/>
<path d="M286.504 247.046L273.453 259.593L260.402 247.046C258.289 245.015 254.864 245.015 252.751 247.046C250.639 249.077 250.639 252.37 252.751 254.401L265.802 266.947L252.751 279.494C250.641 281.527 250.644 284.82 252.759 286.849C254.87 288.875 258.29 288.875 260.402 286.849L273.453 274.302L286.504 286.849C288.619 288.878 292.044 288.875 294.155 286.842C296.262 284.812 296.262 281.524 294.155 279.494L281.104 266.947L294.155 254.401C296.267 252.37 296.267 249.077 294.155 247.046C292.042 245.015 288.617 245.015 286.504 247.046Z" fill="white"/>
<path d="M253.874 226.802C255.339 231.044 252.95 235.623 248.538 237.031C248.067 237.181 247.584 237.291 247.094 237.36L236.567 287.549L225.441 277.114L237.388 229.948C237.025 225.468 240.508 221.554 245.168 221.204C249.067 220.912 252.666 223.227 253.874 226.802Z" fill="#A0616A"/>
<path d="M142.019 291.72L138.084 294.91C134.456 297.865 132.705 302.432 133.471 306.943C133.754 308.662 134.402 310.306 135.374 311.773L135.382 311.785C138.312 316.198 143.709 318.492 149.076 317.607L170.721 314.017C191.408 316.568 215.576 307.795 241.031 294.835L251.411 247.77L227.859 246.081L218.948 276.711L164.728 284.448L164.696 284.452L145.605 288.823L142.019 291.72Z" fill="#3F3D56"/>
<path d="M265.268 615.713L1.15349 616C0.514376 615.998 -0.00206395 615.498 6.20197e-06 614.884C0.00205692 614.272 0.517282 613.777 1.15349 613.775L265.268 613.488C265.907 613.49 266.424 613.989 266.421 614.604C266.419 615.215 265.904 615.711 265.268 615.713Z" fill="#CACACA"/>
<path d="M55.1816 84.7464C59.7208 84.7464 63.4006 81.1301 63.4006 76.6691C63.4006 72.2081 59.7208 68.5918 55.1816 68.5918C50.6423 68.5918 46.9626 72.2081 46.9626 76.6691C46.9626 81.1301 50.6423 84.7464 55.1816 84.7464Z" fill="#FFB566"/>
<path d="M83.5745 84.7464C88.1137 84.7464 91.7935 81.1301 91.7935 76.6691C91.7935 72.2081 88.1137 68.5918 83.5745 68.5918C79.0352 68.5918 75.3555 72.2081 75.3555 76.6691C75.3555 81.1301 79.0352 84.7464 83.5745 84.7464Z" fill="#FFB566"/>
<path d="M111.967 84.7464C116.507 84.7464 120.186 81.1301 120.186 76.6691C120.186 72.2081 116.507 68.5918 111.967 68.5918C107.428 68.5918 103.748 72.2081 103.748 76.6691C103.748 81.1301 107.428 84.7464 111.967 84.7464Z" fill="#FFB566"/>
<path d="M144.343 83.0533C144.09 83.0533 143.838 82.9593 143.648 82.7722L138.102 77.3223C137.733 76.9592 137.733 76.3788 138.102 76.0157L143.648 70.5662C144.024 70.1976 144.64 70.1917 145.022 70.5516C145.406 70.9125 145.413 71.5042 145.038 71.8728L140.157 76.669L145.038 81.4656C145.413 81.8343 145.406 82.426 145.022 82.7868C144.834 82.9648 144.588 83.0533 144.343 83.0533Z" fill="#3F3D56"/>
<path d="M153.662 83.053C153.416 83.053 153.171 82.9645 152.982 82.7865C152.598 82.4257 152.592 81.8344 152.967 81.4653L157.847 76.6687L152.967 71.8725C152.592 71.5039 152.598 70.9122 152.982 70.5513C153.365 70.19 153.981 70.1969 154.357 70.5659L159.902 76.0154C160.271 76.3786 160.271 76.9589 159.902 77.322L154.357 82.7719C154.166 82.959 153.914 83.053 153.662 83.053Z" fill="#3F3D56"/>
<path d="M443.784 69.5269H433.472C432.296 69.5269 431.344 70.4425 431.344 71.573V81.4956C431.344 82.6261 432.296 83.5418 433.472 83.5418H443.784C444.96 83.5418 445.922 82.6261 445.922 81.4956V71.573C445.922 70.4425 444.96 69.5269 443.784 69.5269Z" fill="#3F3D56"/>
<path d="M418.515 69.5269H408.203C407.027 69.5269 406.074 70.4425 406.074 71.573V81.4956C406.074 82.6261 407.027 83.5418 408.203 83.5418H418.515C419.691 83.5418 420.653 82.6261 420.653 81.4956V71.573C420.653 70.4425 419.691 69.5269 418.515 69.5269Z" fill="#3F3D56"/>
<path d="M467.596 69.9941H457.284C456.108 69.9941 455.156 70.9098 455.156 72.0403V81.9629C455.156 83.0934 456.108 84.0091 457.284 84.0091H467.596C468.772 84.0091 469.734 83.0934 469.734 81.9629V72.0403C469.734 70.9098 468.772 69.9941 467.596 69.9941Z" fill="#3F3D56"/>
<path d="M312.168 73.7686H229.741C228.302 73.7686 227.146 74.8898 227.146 76.2632C227.146 77.6367 228.302 78.7579 229.741 78.7579H312.168C313.596 78.7579 314.763 77.6367 314.763 76.2632C314.763 74.8898 313.596 73.7686 312.168 73.7686Z" fill="#3F3D56"/>
</g>
<defs>
<clipPath id="clip0_247_163">
<rect width="570" height="616" fill="white"/>
</clipPath>
</defs>
</svg>
