<svg xmlns="http://www.w3.org/2000/svg" width="24" height="24" viewBox="0 0 24 24"><title>eye closed</title><g fill="#ffb566" class="nc-icon-wrapper"><path d="M22.17 8.96c-0.39-0.39-1.02-0.38-1.42 0.01-2.33 2.38-5.45 3.69-8.78 3.69s-6.45-1.31-8.78-3.69c-0.39-0.39-1.02-0.4-1.42-0.01-0.39 0.39-0.4 1.02-0.01 1.41 0.68 0.7 1.43 1.32 2.22 1.85l-1.17 1.92c-0.29 0.47-0.14 1.08 0.33 1.37 0.16 0.1 0.34 0.15 0.52 0.14 0.34 0 0.66-0.17 0.85-0.47l1.21-1.97c0.9 0.44 1.85 0.78 2.82 1.02l-0.44 2.2c-0.11 0.54 0.24 1.07 0.78 1.17 0.07 0.01 0.13 0.02 0.2 0.02 0.47 0 0.88-0.33 0.97-0.8l0.45-2.24c0.48 0.05 0.97 0.08 1.47 0.08s0.98-0.03 1.47-0.08l0.45 2.24c0.1 0.47 0.51 0.8 0.97 0.8 0.07 0 0.13-0.01 0.2-0.02 0.54-0.11 0.89-0.63 0.78-1.17l-0.44-2.2c0.98-0.24 1.92-0.58 2.82-1.02l1.21 1.97c0.19 0.31 0.52 0.48 0.85 0.47 0.18 0 0.36-0.05 0.52-0.14 0.47-0.29 0.62-0.9 0.33-1.37l-1.17-1.92c0.79-0.54 1.53-1.15 2.22-1.85 0.39-0.39 0.38-1.03-0.01-1.41z" fill="#ffb566"></path></g></svg>