<svg xmlns="http://www.w3.org/2000/svg" height="24" width="24" viewBox="0 0 24 24"><title>eye open</title><g fill="#776e9a" class="nc-icon-wrapper"><path d="M19.96 8.09l1.17-1.92c0.29-0.47 0.14-1.08-0.33-1.37-0.47-0.29-1.08-0.14-1.37 0.33l-1.21 1.97c-0.9-0.44-1.85-0.78-2.82-1.02l0.44-2.2c0.11-0.54-0.24-1.07-0.78-1.17-0.54-0.1-1.07 0.24-1.17 0.78l-0.45 2.24c-0.48-0.05-0.97-0.08-1.47-0.08s-0.98 0.03-1.47 0.08l-0.45-2.24c-0.11-0.54-0.64-0.89-1.17-0.78-0.54 0.11-0.89 0.63-0.78 1.17l0.44 2.2c-0.98 0.24-1.92 0.58-2.82 1.02l-1.21-1.97c-0.29-0.47-0.9-0.62-1.37-0.33-0.47 0.29-0.62 0.9-0.33 1.37l1.17 1.92c-0.79 0.53-1.53 1.15-2.22 1.85-0.39 0.39-0.38 1.03 0.02 1.41 0.39 0.39 1.02 0.38 1.41-0.01 2.33-2.38 5.45-3.69 8.78-3.69s6.45 1.31 8.79 3.69c0.2 0.2 0.45 0.3 0.71 0.3 0.25 0 0.5-0.09 0.7-0.29 0.39-0.39 0.4-1.02 0.01-1.41-0.68-0.7-1.43-1.32-2.22-1.85z" fill="#ffb566"></path><path data-color="color-2" d="M11.97 9.31a4.66 4.66 0 1 0 0 9.31 4.66 4.66 0 1 0 0-9.31z"></path></g></svg>