<svg xmlns="http://www.w3.org/2000/svg" height="24" width="24" viewBox="0 0 24 24"><title>gear 2</title><g fill="#ffb566" stroke="#ffb566" class="nc-icon-wrapper"><path fill="none" stroke-linecap="round" stroke-linejoin="round" stroke-width="1.5" data-color="color-2" d="M8.31 5.64l3.66 6.33"></path><path fill="none" stroke-linecap="round" stroke-linejoin="round" stroke-width="1.5" data-color="color-2" d="M8.31 18.31l3.66-6.34"></path><path fill="none" stroke-linecap="round" stroke-linejoin="round" stroke-width="1.5" data-color="color-2" d="M19.29 11.97l-7.32 0"></path><path fill="none" stroke="#776e9a" stroke-linecap="round" stroke-linejoin="round" stroke-width="1.5" d="M11.97 4.66a7.32 7.32 0 1 0 0 14.63 7.32 7.32 0 1 0 0-14.64z"></path><path fill="none" stroke="#776e9a" stroke-linecap="round" stroke-linejoin="round" stroke-width="1.5" d="M11.97 2.33l0 2.33"></path><path fill="none" stroke="#776e9a" stroke-linecap="round" stroke-linejoin="round" stroke-width="1.5" d="M3.62 7.15l2.02 1.16"></path><path fill="none" stroke="#776e9a" stroke-linecap="round" stroke-linejoin="round" stroke-width="1.5" d="M2.33 11.97l2.33 0"></path><path fill="none" stroke="#776e9a" stroke-linecap="round" stroke-linejoin="round" stroke-width="1.5" d="M21.61 11.97l-2.32 0"></path><path fill="none" stroke="#776e9a" stroke-linecap="round" stroke-linejoin="round" stroke-width="1.5" d="M3.62 16.79l2.02-1.16"></path><path fill="none" stroke="#776e9a" stroke-linecap="round" stroke-linejoin="round" stroke-width="1.5" d="M11.97 21.61l0-2.32"></path><path fill="none" stroke="#776e9a" stroke-linecap="round" stroke-linejoin="round" stroke-width="1.5" d="M16.79 20.32l-1.16-2.02"></path><path fill="none" stroke="#776e9a" stroke-linecap="round" stroke-linejoin="round" stroke-width="1.5" d="M7.15 20.32l1.16-2.02"></path><path fill="none" stroke="#776e9a" stroke-linecap="round" stroke-linejoin="round" stroke-width="1.5" d="M20.32 16.79l-2.02-1.16"></path><path fill="none" stroke="#776e9a" stroke-linecap="round" stroke-linejoin="round" stroke-width="1.5" d="M20.32 7.15l-2.02 1.16"></path><path fill="none" stroke="#776e9a" stroke-linecap="round" stroke-linejoin="round" stroke-width="1.5" d="M16.79 3.62l-1.16 2.02"></path><path fill="none" stroke="#776e9a" stroke-linecap="round" stroke-linejoin="round" stroke-width="1.5" d="M7.15 3.62l1.16 2.02"></path></g></svg>