<svg width="32" height="32" viewBox="0 0 32 32" fill="none" xmlns="http://www.w3.org/2000/svg">
<path d="M24.3868 10.6797C23.6535 10.6797 23.0535 10.0797 23.0535 9.34639V4.87972C23.0535 4.14639 23.6535 3.54639 24.3868 3.54639C25.1201 3.54639 25.7201 4.14639 25.7201 4.87972V9.34639C25.7201 10.0797 25.1201 10.6797 24.3868 10.6797Z" fill="#FFB566"/>
<path d="M28.0001 10.3731L16.7467 2.03979C16.2801 1.69312 15.6267 1.69312 15.1734 2.03979L3.92008 10.3731C3.13341 10.9598 2.66675 11.8931 2.66675 12.8665V24.3865C2.66675 27.0798 4.85341 29.2665 7.53341 29.2531H8.86675V20.3865C8.86675 18.9198 10.0534 17.7198 11.5334 17.7331C13.0134 17.7465 14.2001 18.9198 14.1867 20.3865V29.2531H24.3867C27.0801 29.2531 29.2667 27.0665 29.2667 24.3865V12.8665C29.2667 11.8931 28.8001 10.9598 28.0001 10.3731ZM21.7201 18.6265H19.0667C18.3334 18.6265 17.7334 18.0265 17.7334 17.2931C17.7334 16.5598 18.3334 15.9598 19.0667 15.9598H21.7201C22.4534 15.9598 23.0534 16.5598 23.0534 17.2931C23.0534 18.0265 22.4534 18.6265 21.7201 18.6265Z" fill="#776E9A"/>
</svg>
