<svg width="778" height="524" viewBox="0 0 778 524" fill="none" xmlns="http://www.w3.org/2000/svg">
<g clip-path="url(#clip0_21_507)">
<path d="M688.533 246.077H100.583V522.344H688.533V246.077Z" fill="#E6E6E6"/>
<path d="M671.721 269.768H117.395V500.266H671.721V269.768Z" fill="white"/>
<path d="M579.02 312.67H564.666V326.884H579.02V312.67Z" fill="#E6E6E6"/>
<path d="M196.146 312.67H181.792V326.884H196.146V312.67Z" fill="#F9A826"/>
<path d="M229.225 353.385H181.377V400.766H229.225V353.385Z" fill="#E6E6E6"/>
<path d="M688.283 230.115H100.332V254.849H688.283V230.115Z" fill="#FFB566"/>
<path d="M118.894 252.554C121.45 252.554 123.523 250.501 123.523 247.97C123.523 245.438 121.45 243.385 118.894 243.385C116.337 243.385 114.264 245.438 114.264 247.97C114.264 250.501 116.337 252.554 118.894 252.554Z" fill="white"/>
<path d="M136.466 252.554C139.023 252.554 141.095 250.501 141.095 247.97C141.095 245.438 139.023 243.385 136.466 243.385C133.909 243.385 131.836 245.438 131.836 247.97C131.836 250.501 133.909 252.554 136.466 252.554Z" fill="white"/>
<path d="M154.039 252.554C156.596 252.554 158.669 250.501 158.669 247.97C158.669 245.438 156.596 243.385 154.039 243.385C151.482 243.385 149.409 245.438 149.409 247.97C149.409 250.501 151.482 252.554 154.039 252.554Z" fill="white"/>
<path d="M778 522.345H0V524H778V522.345Z" fill="#E6E6E6"/>
<path d="M396.077 358.124H278.85V364.788H396.077V358.124Z" fill="#E6E6E6"/>
<path d="M459.875 382.431H278.85V389.095H459.875V382.431Z" fill="#776E9A"/>
<path d="M426.381 405.33H278.85V411.994H426.381V405.33Z" fill="#E6E6E6"/>
<path d="M364.976 428.145H278.85V434.809H364.976V428.145Z" fill="#E6E6E6"/>
<path d="M408.837 450.959H278.85V457.623H408.837V450.959Z" fill="#E6E6E6"/>
<path d="M603.742 312.67H589.388V326.884H603.742V312.67Z" fill="#E6E6E6"/>
<path d="M628.464 312.67H614.109V326.884H628.464V312.67Z" fill="#776E9A"/>
<path opacity="0.997" d="M599.312 434.808C615.411 434.808 628.463 421.884 628.463 405.942C628.463 389.999 615.411 377.075 599.312 377.075C583.212 377.075 570.16 389.999 570.16 405.942C570.16 421.884 583.212 434.808 599.312 434.808Z" fill="#FFB566"/>
<path d="M157.513 78.1631C175.638 78.1631 190.332 63.6131 190.332 45.6648C190.332 27.7165 175.638 13.1665 157.513 13.1665C139.387 13.1665 124.694 27.7165 124.694 45.6648C124.694 63.6131 139.387 78.1631 157.513 78.1631Z" fill="#2F2E41"/>
<path d="M75.8387 323.724H61.4653L54.6288 268.84H75.837L75.8387 323.724Z" fill="#FEB8B8"/>
<path d="M51.2051 319.658H78.9181V336.937H33.7557C33.7557 332.354 35.5941 327.959 38.8665 324.719C42.1389 321.478 46.5772 319.658 51.2051 319.658Z" fill="#2F2E41"/>
<path d="M53.4071 315.783L39.6972 311.522L49.7686 257.126L70.0033 263.415L53.4071 315.783Z" fill="#FEB8B8"/>
<path d="M31.125 304.602L57.5674 312.819L52.3426 329.305L9.2522 315.914C9.93832 313.749 11.0484 311.739 12.5189 309.999C13.9895 308.259 15.7919 306.823 17.823 305.772C19.8542 304.722 22.0744 304.078 24.3569 303.877C26.6394 303.676 28.9395 303.922 31.1258 304.602L31.125 304.602Z" fill="#2F2E41"/>
<path d="M58.0826 293.881C57.4547 293.881 56.8319 293.769 56.2441 293.55L45.6688 289.625C44.482 289.181 43.496 288.328 42.8906 287.224C42.2852 286.12 42.1006 284.837 42.3705 283.609C45.0321 271.758 54.1032 231.413 59.0703 209.773C64.9609 184.105 150.897 179.335 154.552 179.145L154.853 179.129L164.52 191.153C168.013 202.272 166.906 210.944 161.229 216.93C144.664 234.394 95.2069 223.557 89.3096 222.186L63.0239 290.518C62.6408 291.508 61.9637 292.359 61.0819 292.959C60.2002 293.56 59.1552 293.881 58.0851 293.881H58.0826Z" fill="#2F2E41"/>
<path d="M73.32 302.007C72.6921 302.006 72.0693 301.894 71.4816 301.676L60.9096 297.75C59.7227 297.305 58.7366 296.453 58.1311 295.349C57.5257 294.244 57.3412 292.961 57.6113 291.733C60.2728 279.883 69.3439 239.537 74.3111 217.897C80.2017 192.229 166.138 187.459 169.793 187.269L170.094 187.253L179.757 199.281C183.25 210.399 182.143 219.072 176.466 225.058C159.902 242.518 110.444 231.685 104.547 230.313L78.2579 298.643C77.8748 299.632 77.1977 300.483 76.316 301.084C75.4342 301.684 74.3893 302.006 73.3192 302.006L73.32 302.007Z" fill="#2F2E41"/>
<path d="M42.734 134.845C43.1223 135.359 43.469 135.903 43.7711 136.472L101.58 142.503L109.904 131.204L128.764 141.411L112.419 168.828L41.5207 150.927C39.7319 152.654 37.4546 153.801 34.9916 154.215C32.5287 154.629 29.9967 154.291 27.7326 153.245C25.4685 152.2 23.5795 150.496 22.3169 148.362C21.0542 146.227 20.4777 143.762 20.6641 141.296C20.8505 138.829 21.7909 136.476 23.3602 134.552C24.9295 132.627 27.0534 131.221 29.4495 130.52C31.8455 129.82 34.4 129.859 36.7733 130.631C39.1467 131.403 41.2263 132.873 42.7357 134.844L42.734 134.845Z" fill="#FEB8B8"/>
<path d="M177.074 203.885C176.238 203.883 175.415 203.685 174.671 203.306C163.112 197.485 140.602 187.405 119.729 185.296C119.015 185.227 118.323 185.01 117.698 184.661C117.073 184.311 116.529 183.836 116.101 183.266C115.664 182.689 115.352 182.03 115.184 181.329C115.016 180.628 114.995 179.9 115.124 179.191C117.008 168.866 121.328 142.575 120.771 121.504C120.607 115.026 122.675 108.685 126.633 103.524C130.591 98.3624 136.205 94.6884 142.551 93.1056C146.371 92.1076 150.25 91.35 154.167 90.8374C158.669 90.2728 163.243 90.7602 167.521 92.2606C171.799 93.761 175.663 96.2328 178.803 99.4778C181.943 102.723 184.272 106.651 185.604 110.948C186.935 115.244 187.231 119.79 186.469 124.22C182.747 146.056 178.994 176.555 182.256 197.844C182.406 198.799 182.286 199.775 181.91 200.666C181.533 201.557 180.915 202.328 180.124 202.892C179.239 203.534 178.171 203.882 177.074 203.885Z" fill="#CCCCCC"/>
<path d="M121.842 148.346C121.121 148.344 120.409 148.197 119.748 147.913L104.688 141.458C103.405 140.907 102.396 139.874 101.881 138.586C101.367 137.299 101.389 135.862 101.943 134.59L113.584 107.962C114.275 106.349 115.281 104.886 116.543 103.657C117.806 102.428 119.3 101.458 120.941 100.801C122.583 100.144 124.338 99.814 126.108 99.8291C127.878 99.8442 129.628 100.204 131.258 100.889C132.887 101.574 134.364 102.57 135.605 103.82C136.846 105.07 137.826 106.55 138.489 108.175C139.153 109.8 139.486 111.539 139.471 113.291C139.455 115.044 139.092 116.777 138.4 118.39C138.375 118.449 138.35 118.507 138.324 118.566L126.683 145.194C126.273 146.129 125.597 146.925 124.737 147.485C123.877 148.045 122.871 148.344 121.842 148.346Z" fill="#CCCCCC"/>
<path d="M156.314 81.7792C172.213 81.7792 185.102 69.016 185.102 53.2719C185.102 37.5278 172.213 24.7646 156.314 24.7646C140.414 24.7646 127.525 37.5278 127.525 53.2719C127.525 69.016 140.414 81.7792 156.314 81.7792Z" fill="#FEB8B8"/>
<path d="M127.007 39.2633C140.643 47.5062 156.016 52.5221 171.93 53.9207L167.194 48.3029C170.642 49.5652 174.27 50.2785 177.943 50.4163C179.782 50.4691 181.608 50.0943 183.275 49.3218C184.941 48.5494 186.402 47.4009 187.539 45.9685C188.467 44.4817 189.019 42.7947 189.146 41.0512C189.274 39.3078 188.974 37.5596 188.272 35.9558C186.829 32.7557 184.583 29.9745 181.748 27.8769C176.722 23.9403 170.791 21.2959 164.483 20.1795C158.175 19.0632 151.686 19.5095 145.595 21.4787C141.416 22.7153 137.674 25.0924 134.796 28.3379C132.067 31.6718 126.813 34.6426 128.21 38.7048L127.007 39.2633Z" fill="#2F2E41"/>
<path d="M158.888 15.2483C164.626 9.48476 171.57 5.03683 179.232 2.21773C184.095 0.191971 189.428 -0.463539 194.644 0.323587C199.786 1.34803 204.647 4.86986 206.082 9.86546C207.252 13.95 206.044 18.3481 204.224 22.1952C202.404 26.0422 199.974 29.6062 198.501 33.5948C196.999 37.6646 196.547 42.0415 197.187 46.328C197.826 50.6146 199.537 54.6752 202.163 58.1411C204.79 61.6069 208.249 64.3684 212.226 66.1747C216.204 67.981 220.574 68.775 224.94 68.4845C219.888 69.1556 215.232 71.5065 210.294 72.7569C205.356 74.0072 199.528 73.9236 195.859 70.42C191.976 66.7137 191.899 60.6878 192.087 55.3513L192.922 31.5508C193.064 27.5052 193.186 23.3297 191.712 19.5521C190.238 15.7746 186.737 12.4688 182.649 12.5035C179.55 12.5292 176.808 14.3886 174.323 16.2215C171.838 18.0544 169.208 20.0097 166.122 20.2828C163.036 20.5559 159.512 18.2968 159.742 15.2351" fill="#2F2E41"/>
<path d="M107.913 196.562C106.006 196.56 104.122 196.138 102.399 195.329C100.676 194.519 99.1554 193.341 97.9473 191.879C96.7392 190.417 95.8735 188.708 95.4127 186.876C94.9518 185.043 94.9072 183.131 95.2821 181.279C95.6569 179.427 96.442 177.681 97.5806 176.165C98.7192 174.65 100.183 173.403 101.867 172.516C103.55 171.628 105.412 171.121 107.317 171.031C109.223 170.942 111.124 171.272 112.885 171.998C113.415 172.219 113.928 172.477 114.422 172.769L166.864 149.458L168.337 135.374L190.943 134.774L190.793 158.222C190.766 160.938 189.854 163.573 188.194 165.736C186.534 167.899 184.214 169.474 181.578 170.228L120.253 187.51C120.135 187.911 119.995 188.306 119.835 188.692C118.851 191.02 117.196 193.008 115.076 194.407C112.956 195.807 110.467 196.556 107.919 196.561L107.913 196.562Z" fill="#FEB8B8"/>
<path d="M189.028 146.263C188.385 146.586 187.682 146.774 186.963 146.816L170.584 147.813C169.188 147.897 167.816 147.428 166.769 146.511C165.721 145.594 165.084 144.303 164.996 142.921L163.199 113.959C162.983 110.428 164.192 106.956 166.56 104.307C168.928 101.659 172.26 100.049 175.826 99.8314C179.392 99.6141 182.899 100.807 185.576 103.149C188.254 105.491 189.884 108.789 190.107 112.319L191.905 141.282C191.968 142.299 191.729 143.313 191.218 144.197C190.707 145.082 189.947 145.8 189.03 146.263H189.028Z" fill="#CCCCCC"/>
<path d="M156.047 191.365H58.2171C57.3965 191.365 56.7313 192.024 56.7313 192.837V198.018C56.7313 198.831 57.3965 199.49 58.2171 199.49H156.047C156.868 199.49 157.533 198.831 157.533 198.018V192.837C157.533 192.024 156.868 191.365 156.047 191.365Z" fill="#3F3D56"/>
<path d="M19.1408 191.946V135.073C19.1432 133.073 19.9467 131.155 21.375 129.741C22.8032 128.327 24.7397 127.531 26.7595 127.529H131.078C133.097 127.531 135.034 128.327 136.462 129.741C137.891 131.155 138.694 133.073 138.696 135.073V191.946C138.694 193.946 137.891 195.864 136.462 197.278C135.034 198.693 133.097 199.488 131.078 199.49H26.7595C24.7397 199.488 22.8032 198.692 21.375 197.278C19.9467 195.864 19.1432 193.946 19.1408 191.946Z" fill="#3F3D56"/>
<path d="M80.1733 170.477C84.0574 170.477 87.2062 167.359 87.2062 163.513C87.2062 159.666 84.0574 156.548 80.1733 156.548C76.2891 156.548 73.1404 159.666 73.1404 163.513C73.1404 167.359 76.2891 170.477 80.1733 170.477Z" fill="white"/>
</g>
<defs>
<clipPath id="clip0_21_507">
<rect width="778" height="524" fill="white"/>
</clipPath>
</defs>
</svg>
