<svg xmlns="http://www.w3.org/2000/svg" version="1.1" xmlns:xlink="http://www.w3.org/1999/xlink" xmlns:svgjs="http://svgjs.dev/svgjs" width="1500" height="393" viewBox="0 0 1500 393"><g transform="matrix(1,0,0,1,-0.9090909090909918,-0.2988950507068182)"><svg viewBox="0 0 396 104" data-background-color="#e6e9e0" preserveAspectRatio="xMidYMid meet" height="393" width="1500" xmlns="http://www.w3.org/2000/svg" xmlns:xlink="http://www.w3.org/1999/xlink"><g id="tight-bounds" transform="matrix(1,0,0,1,0.2400000000000091,0.0790969090928968)"><svg viewBox="0 0 395.52 103.8418061818142" height="103.8418061818142" width="395.52"><g><svg viewBox="0 0 552.1268269331927 144.95814864021204" height="103.8418061818142" width="395.52"><g><rect width="6.006346832253275" height="105.41457263633362" x="411.243421026841" y="19.771788001939214" fill="#776e9a" opacity="1" stroke-width="0" stroke="transparent" fill-opacity="1" class="rect-qz-0" data-fill-palette-color="primary" rx="1%" id="qz-0" data-palette-color="#776e9a"></rect></g><g transform="matrix(1,0,0,1,0,20.034013307004713)"><svg viewBox="0 0 395.52 104.89012202620262" height="104.89012202620262" width="395.52"><g id="textblocktransform"><svg viewBox="0 0 395.52 104.89012202620262" height="104.89012202620262" width="395.52" id="textblock"><g><svg viewBox="0 0 395.52 66.60321687440076" height="66.60321687440076" width="395.52"><g transform="matrix(1,0,0,1,0,0)"><svg width="395.52" viewBox="2.44 -33.72132231404958 202.48000000000002 34.31132231404958" height="66.60321687440076" data-palette-color="#776e9a"><g class="wordmark-text-0" data-fill-palette-color="primary" id="text-0"><path d="M2.44-1.1L2.44-32.62Q2.44-33.72 4.44-33.72L4.44-33.72Q6.42-33.72 6.42-32.62L6.42-32.62 6.42-2.22 23.24-2.22Q25.24-2.22 25.24-1.1L25.24-1.1Q25.24 0 23.24 0L23.24 0 4.44 0Q2.44 0 2.44-1.1L2.44-1.1ZM43.5-33.72L43.5-33.72Q51.1-33.72 55.52-28.76 59.93-23.8 59.93-16.58L59.93-16.58Q59.93-9.33 55.52-4.37 51.1 0.59 43.5 0.59L43.5 0.59Q35.91 0.59 31.49-4.37 27.07-9.33 27.07-16.58L27.07-16.58Q27.07-23.8 31.49-28.76 35.91-33.72 43.5-33.72ZM43.5-31.49L43.5-31.49Q37.35-31.49 34.2-26.79 31.05-22.09 31.05-16.58L31.05-16.58Q31.05-11.06 34.2-6.35 37.35-1.64 43.5-1.64L43.5-1.64Q49.66-1.64 52.81-6.35 55.95-11.06 55.95-16.58L55.95-16.58Q55.95-22.09 52.81-26.79 49.66-31.49 43.5-31.49ZM90.72-11.08L90.72-11.08Q92.7-11.08 92.7-9.94L92.7-9.94Q92.7-9.57 92.4-8.54L92.4-8.54Q91.11-4.08 86.9-1.75 82.69 0.59 78.19 0.59L78.19 0.59Q70.7 0.59 66.54-4.17 62.37-8.94 62.37-16.33L62.37-16.33Q62.37-23.83 66.55-28.77 70.72-33.72 78.54-33.72L78.54-33.72Q83.12-33.72 87.32-31.25 91.52-28.78 92.5-24.07L92.5-24.07Q92.65-23.54 92.65-23.24L92.65-23.24Q92.65-22.05 90.64-22.05L90.64-22.05Q88.79-22.05 88.67-23.07L88.67-23.07Q87.57-31.49 78.54-31.49L78.54-31.49Q72.33-31.49 69.33-26.77 66.33-22.05 66.33-16.5L66.33-16.5Q66.33-11.06 69.17-6.35 72.02-1.64 78.19-1.64L78.19-1.64Q81.9-1.64 85.02-3.98 88.13-6.32 88.74-10.08L88.74-10.08Q88.91-11.08 90.72-11.08Z" fill="#776e9a" data-fill-palette-color="primary"></path><path d="M138.3 0.59L138.3 0.59Q136.3 0.59 136.3-0.49L136.3-0.49 136.3-25.81 126.05-0.24Q125.73 0.59 123.9 0.59L123.9 0.59Q122.07 0.59 121.7-0.24L121.7-0.24 110.23-26.2 110.23-0.1Q110.23 0.59 108.79 0.59L108.79 0.59Q107.35 0.59 107.35-0.1L107.35-0.1 107.35-32.59Q107.35-33.72 109.79-33.72L109.79-33.72Q111.45-33.72 111.84-32.89L111.84-32.89 124.56-3.98 136.2-32.89Q136.55-33.72 138.25-33.72L138.25-33.72Q140.28-33.76 140.28-32.59L140.28-32.59 140.28-0.49Q140.28 0.59 138.3 0.59ZM170.97 0.59L170.97 0.59Q169.33 0.59 168.74-0.2L168.74-0.2 148.04-28.44 148.04-0.17Q148.04 0.59 146.6 0.59L146.6 0.59Q145.16 0.59 145.16-0.17L145.16-0.17 145.16-32.35Q145.16-33.72 147.6-33.72L147.6-33.72Q149.26-33.72 149.85-32.93L149.85-32.93 170.55-4.69 170.55-32.93Q170.55-33.72 171.99-33.72L171.99-33.72Q173.43-33.72 173.43-32.93L173.43-32.93 173.43-0.73Q173.43 0.59 170.97 0.59ZM204.92-9.52L204.92-9.52Q204.92-4.81 200.57-2.11 196.21 0.59 190.96 0.59L190.96 0.59Q186.54 0.59 182.3-1.5 178.07-3.59 177.19-8.37L177.19-8.37Q177.09-8.91 177.09-9.03L177.09-9.03Q177.09-10.11 179.14-10.11L179.14-10.11Q180.8-10.11 181.05-9.16L181.05-9.16Q183.02-1.56 191.13-1.64L191.13-1.64Q194.4-1.68 197.67-3.63 200.94-5.57 200.94-9.3L200.94-9.3Q200.94-11.99 197.7-13.5L197.7-13.5Q195.3-14.62 191.67-15.01L191.67-15.01Q189.47-15.23 187.04-15.73 184.61-16.24 182.59-17.29L182.59-17.29Q177.95-19.68 177.95-24.63L177.95-24.63Q177.95-29.57 182.54-31.64 187.13-33.72 191.2-33.72L191.2-33.72Q195.28-33.72 198.98-31.84 202.68-29.96 203.85-25.78L203.85-25.78Q204-25.27 204-25.15L204-25.15Q204-24.15 201.92-24.15L201.92-24.15Q200.26-24.15 200.02-25.12L200.02-25.12Q198.55-31.49 191.23-31.49L191.23-31.49Q188.15-31.49 185.04-29.9 181.93-28.3 181.93-24.66L181.93-24.66Q181.93-22.09 185.51-20.51L185.51-20.51Q187.17-19.8 189.01-19.43 190.84-19.07 192.06-18.95L192.06-18.95Q194.47-18.7 196.96-18.16 199.46-17.63 201.36-16.41L201.36-16.41Q204.92-14.06 204.92-9.52Z" fill="#776e9a" data-fill-palette-color="primary"></path></g></svg></g></svg></g><g transform="matrix(1,0,0,1,163.310208,82.3266379012418)"><svg viewBox="0 0 232.209792 22.56348412496082" height="22.56348412496082" width="232.209792"><g transform="matrix(1,0,0,1,0,0)"><svg width="232.209792" viewBox="5 -36 478.5 46.5" height="22.56348412496082" data-palette-color="#776e9a"><path d="M27.5 0L5 0 5-35 9.7-35 9.7-4.1 27.5-4.1 27.5 0ZM31.25-25L26.75-25 26.75-35 31.25-35 31.25-25ZM49 0.5L49 0.5Q45.65 0.5 42.72-0.95 39.8-2.4 38.02-5.4 36.25-8.4 36.25-13L36.25-13 36.25-14Q36.25-18.4 37.95-21.28 39.65-24.15 42.45-25.58 45.25-27 48.5-27L48.5-27Q54.35-27 57.55-23.8 60.75-20.6 60.75-14.75L60.75-14.75 60.75-11.95 40.65-11.95Q40.65-8.85 41.92-7 43.2-5.15 45.12-4.33 47.05-3.5 49-3.5L49-3.5Q52-3.5 53.62-4.5 55.25-5.5 55.95-7.25L55.95-7.25 60.25-7.25Q59.45-3.45 56.32-1.48 53.2 0.5 49 0.5ZM48.75-23L48.75-23Q46.7-23 44.85-22.23 43-21.45 41.82-19.8 40.65-18.15 40.65-15.55L40.65-15.55 56.6-15.55Q56.55-18.3 55.47-19.93 54.4-21.55 52.65-22.28 50.9-23 48.75-23ZM68.24 0L63.24 0 73.19-13.45 63.74-26.5 68.84-26.5 75.84-16.85 82.84-26.5 87.74-26.5 78.29-13.7 88.24 0 83.04 0 75.64-10.35 68.24 0ZM102.74 0.5L102.74 0.5Q99.34 0.5 96.62-0.98 93.89-2.45 92.32-5.45 90.74-8.45 90.74-13L90.74-13 90.74-14Q90.74-18.3 92.44-21.2 94.14-24.1 96.89-25.55 99.64-27 102.74-27L102.74-27Q105.89-27 108.17-25.88 110.44-24.75 111.84-22.83 113.24-20.9 113.74-18.5L113.74-18.5 109.24-18.5Q108.44-20.4 107.02-21.7 105.59-23 102.74-23L102.74-23Q100.79-23 99.09-22.08 97.39-21.15 96.32-19.18 95.24-17.2 95.24-14L95.24-14 95.24-13Q95.24-9.6 96.32-7.5 97.39-5.4 99.09-4.45 100.79-3.5 102.74-3.5L102.74-3.5Q105.19-3.5 106.87-4.7 108.54-5.9 109.24-8L109.24-8 113.74-8Q113.14-5.4 111.59-3.48 110.04-1.55 107.79-0.53 105.54 0.5 102.74 0.5ZM130.74 0.5L130.74 0.5Q127.39 0.5 124.46-0.95 121.54-2.4 119.76-5.4 117.99-8.4 117.99-13L117.99-13 117.99-14Q117.99-18.4 119.69-21.28 121.39-24.15 124.19-25.58 126.99-27 130.24-27L130.24-27Q136.09-27 139.29-23.8 142.49-20.6 142.49-14.75L142.49-14.75 142.49-11.95 122.39-11.95Q122.39-8.85 123.66-7 124.94-5.15 126.86-4.33 128.79-3.5 130.74-3.5L130.74-3.5Q133.74-3.5 135.36-4.5 136.99-5.5 137.69-7.25L137.69-7.25 141.99-7.25Q141.19-3.45 138.06-1.48 134.94 0.5 130.74 0.5ZM130.49-23L130.49-23Q128.44-23 126.59-22.23 124.74-21.45 123.56-19.8 122.39-18.15 122.39-15.55L122.39-15.55 138.34-15.55Q138.29-18.3 137.21-19.93 136.14-21.55 134.39-22.28 132.64-23 130.49-23ZM156.74 0.25L156.74 0.25Q153.99 0.25 152.26-0.63 150.54-1.5 149.76-3.38 148.99-5.25 148.99-8.25L148.99-8.25 148.99-35 153.39-35 153.39-8.25Q153.39-5.65 154.24-4.7 155.09-3.75 157.24-3.75L157.24-3.75Q157.79-3.75 158.19-3.78 158.59-3.8 158.99-3.85L158.99-3.85 158.99 0.05Q158.74 0.1 158.31 0.15 157.89 0.2 157.46 0.23 157.04 0.25 156.74 0.25ZM172.73 0.25L172.73 0.25Q169.98 0.25 168.26-0.63 166.53-1.5 165.76-3.38 164.98-5.25 164.98-8.25L164.98-8.25 164.98-35 169.38-35 169.38-8.25Q169.38-5.65 170.23-4.7 171.08-3.75 173.23-3.75L173.23-3.75Q173.78-3.75 174.18-3.78 174.58-3.8 174.98-3.85L174.98-3.85 174.98 0.05Q174.73 0.1 174.31 0.15 173.88 0.2 173.46 0.23 173.03 0.25 172.73 0.25ZM191.23 0.5L191.23 0.5Q187.88 0.5 184.96-0.95 182.03-2.4 180.26-5.4 178.48-8.4 178.48-13L178.48-13 178.48-14Q178.48-18.4 180.18-21.28 181.88-24.15 184.68-25.58 187.48-27 190.73-27L190.73-27Q196.58-27 199.78-23.8 202.98-20.6 202.98-14.75L202.98-14.75 202.98-11.95 182.88-11.95Q182.88-8.85 184.16-7 185.43-5.15 187.36-4.33 189.28-3.5 191.23-3.5L191.23-3.5Q194.23-3.5 195.86-4.5 197.48-5.5 198.18-7.25L198.18-7.25 202.48-7.25Q201.68-3.45 198.56-1.48 195.43 0.5 191.23 0.5ZM190.98-23L190.98-23Q188.93-23 187.08-22.23 185.23-21.45 184.06-19.8 182.88-18.15 182.88-15.55L182.88-15.55 198.83-15.55Q198.78-18.3 197.71-19.93 196.63-21.55 194.88-22.28 193.13-23 190.98-23ZM213.63 0L209.23 0 209.23-26.5 213.33-26.5 213.33-21.5Q214.23-23.7 216.5-25.35 218.78-27 222.38-27L222.38-27Q227.38-27 229.8-24.33 232.23-21.65 232.23-16.5L232.23-16.5 232.23 0 227.83 0 227.83-15.5Q227.83-19.2 226.28-21.1 224.73-23 221.08-23L221.08-23Q218.48-23 216.83-21.9 215.18-20.8 214.4-19.1 213.63-17.4 213.63-15.5L213.63-15.5 213.63 0ZM250.23 0.5L250.23 0.5Q246.83 0.5 244.1-0.98 241.38-2.45 239.8-5.45 238.23-8.45 238.23-13L238.23-13 238.23-14Q238.23-18.3 239.93-21.2 241.63-24.1 244.38-25.55 247.13-27 250.23-27L250.23-27Q253.38-27 255.65-25.88 257.93-24.75 259.33-22.83 260.73-20.9 261.23-18.5L261.23-18.5 256.73-18.5Q255.93-20.4 254.5-21.7 253.08-23 250.23-23L250.23-23Q248.28-23 246.58-22.08 244.88-21.15 243.8-19.18 242.73-17.2 242.73-14L242.73-14 242.73-13Q242.73-9.6 243.8-7.5 244.88-5.4 246.58-4.45 248.28-3.5 250.23-3.5L250.23-3.5Q252.68-3.5 254.35-4.7 256.03-5.9 256.73-8L256.73-8 261.23-8Q260.63-5.4 259.08-3.48 257.53-1.55 255.28-0.53 253.03 0.5 250.23 0.5ZM278.22 0.5L278.22 0.5Q274.87 0.5 271.95-0.95 269.02-2.4 267.25-5.4 265.47-8.4 265.47-13L265.47-13 265.47-14Q265.47-18.4 267.17-21.28 268.87-24.15 271.67-25.58 274.47-27 277.72-27L277.72-27Q283.57-27 286.77-23.8 289.97-20.6 289.97-14.75L289.97-14.75 289.97-11.95 269.87-11.95Q269.87-8.85 271.15-7 272.42-5.15 274.35-4.33 276.27-3.5 278.22-3.5L278.22-3.5Q281.22-3.5 282.85-4.5 284.47-5.5 285.17-7.25L285.17-7.25 289.47-7.25Q288.67-3.45 285.55-1.48 282.42 0.5 278.22 0.5ZM277.97-23L277.97-23Q275.92-23 274.07-22.23 272.22-21.45 271.05-19.8 269.87-18.15 269.87-15.55L269.87-15.55 285.82-15.55Q285.77-18.3 284.7-19.93 283.62-21.55 281.87-22.28 280.12-23 277.97-23ZM317.97 0.5L317.97 0.5Q314.72 0.5 312.22-1 309.72-2.5 308.34-5.5 306.97-8.5 306.97-13L306.97-13 306.97-14Q306.97-18.2 308.39-21.1 309.82-24 312.29-25.5 314.77-27 317.97-27L317.97-27Q321.17-27 323.54-25.6 325.92-24.2 327.07-21.75L327.07-21.75 327.07-35 331.47-35 331.47 0 327.37 0 327.37-5Q326.37-2.55 323.87-1.03 321.37 0.5 317.97 0.5ZM318.97-3.4L318.97-3.4Q321.37-3.4 323.19-4.42 325.02-5.45 326.04-7.28 327.07-9.1 327.07-11.5L327.07-11.5 327.07-15.5Q327.07-17.65 326.04-19.38 325.02-21.1 323.19-22.1 321.37-23.1 318.97-23.1L318.97-23.1Q315.77-23.1 313.57-20.73 311.37-18.35 311.37-14L311.37-14 311.37-13Q311.37-8.3 313.57-5.85 315.77-3.4 318.97-3.4ZM344.37 0L339.97 0 339.97-26.5 344.37-26.5 344.37 0ZM342.17-30L342.17-30Q340.87-30 340.02-30.85 339.17-31.7 339.17-33L339.17-33Q339.17-34.3 340.02-35.15 340.87-36 342.17-36L342.17-36Q343.47-36 344.32-35.15 345.17-34.3 345.17-33L345.17-33Q345.17-31.7 344.32-30.85 343.47-30 342.17-30ZM363.36 10.5L363.36 10.5Q359.51 10.5 357.11 9.5 354.71 8.5 353.56 6.8 352.41 5.1 352.11 3L352.11 3 356.71 3Q357.21 4.6 358.61 5.55 360.01 6.5 363.36 6.5L363.36 6.5Q367.41 6.5 369.31 4.55 371.21 2.6 371.21-1L371.21-1 371.21-5.25Q370.06-2.6 367.69-1.3 365.31 0 362.11 0L362.11 0Q358.86 0 356.36-1.5 353.86-3 352.49-5.95 351.11-8.9 351.11-13.25L351.11-13.25 351.11-14.25Q351.11-18.35 352.54-21.18 353.96-24 356.44-25.5 358.91-27 362.11-27L362.11-27Q365.51-27 368.01-25.48 370.51-23.95 371.51-21.5L371.51-21.5 371.51-26.5 375.61-26.5 375.61-1Q375.61 4.4 372.46 7.45 369.31 10.5 363.36 10.5ZM363.11-3.9L363.11-3.9Q365.51-3.9 367.34-4.9 369.16-5.9 370.19-7.68 371.21-9.45 371.21-11.75L371.21-11.75 371.21-15.75Q371.21-17.8 370.19-19.45 369.16-21.1 367.34-22.1 365.51-23.1 363.11-23.1L363.11-23.1Q359.91-23.1 357.71-20.75 355.51-18.4 355.51-14.25L355.51-14.25 355.51-13.25Q355.51-8.7 357.71-6.3 359.91-3.9 363.11-3.9ZM388.51 0L384.11 0 384.11-26.5 388.51-26.5 388.51 0ZM386.31-30L386.31-30Q385.01-30 384.16-30.85 383.31-31.7 383.31-33L383.31-33Q383.31-34.3 384.16-35.15 385.01-36 386.31-36L386.31-36Q387.61-36 388.46-35.15 389.31-34.3 389.31-33L389.31-33Q389.31-31.7 388.46-30.85 387.61-30 386.31-30ZM406.76 0.25L406.76 0.25Q403.96 0.25 402.18-0.6 400.41-1.45 399.58-3.18 398.76-4.9 398.76-7.5L398.76-7.5 398.76-22.6 394.76-22.6 394.76-26.5 398.76-26.5 398.76-32.5 403.16-32.5 403.16-26.5 410.26-26.5 410.26-22.6 403.16-22.6 403.16-8Q403.16-5.75 404.11-4.75 405.06-3.75 407.76-3.75L407.76-3.75Q409.26-3.75 410.76-3.9L410.76-3.9 410.76 0Q409.81 0.1 408.86 0.18 407.91 0.25 406.76 0.25ZM424.56 0.5L424.56 0.5Q421.65 0.5 419.63-0.58 417.61-1.65 416.56-3.53 415.5-5.4 415.5-7.75L415.5-7.75Q415.5-11.7 417.83-13.45 420.15-15.2 424.5-15.2L424.5-15.2 433.11-15.2 433.11-17Q433.11-20.4 431.58-21.7 430.06-23 427-23L427-23Q424.15-23 422.86-21.93 421.56-20.85 421.4-19.5L421.4-19.5 417-19.5Q417.15-21.65 418.45-23.33 419.75-25 422-26 424.25-27 427.25-27L427.25-27Q430.4-27 432.7-26.03 435-25.05 436.25-22.98 437.5-20.9 437.5-17.5L437.5-17.5 437.5-6.75Q437.5-4.65 437.53-3.08 437.56-1.5 437.75 0L437.75 0 433.9 0Q433.75-1.15 433.7-2.18 433.65-3.2 433.65-4.5L433.65-4.5Q432.61-2.4 430.25-0.95 427.9 0.5 424.56 0.5ZM425.5-3.5L425.5-3.5Q427.61-3.5 429.33-4.25 431.06-5 432.08-6.45 433.11-7.9 433.11-10L433.11-10 433.11-11.8 425.25-11.8Q422.81-11.8 421.4-10.83 420-9.85 420-7.75L420-7.75Q420-5.9 421.33-4.7 422.65-3.5 425.5-3.5ZM453.25 0.25L453.25 0.25Q450.5 0.25 448.78-0.63 447.05-1.5 446.28-3.38 445.5-5.25 445.5-8.25L445.5-8.25 445.5-35 449.9-35 449.9-8.25Q449.9-5.65 450.75-4.7 451.6-3.75 453.75-3.75L453.75-3.75Q454.3-3.75 454.7-3.78 455.1-3.8 455.5-3.85L455.5-3.85 455.5 0.05Q455.25 0.1 454.83 0.15 454.4 0.2 453.98 0.23 453.55 0.25 453.25 0.25ZM471.75 0.5L471.75 0.5Q468.4 0.5 465.48-0.95 462.55-2.4 460.77-5.4 459-8.4 459-13L459-13 459-14Q459-18.4 460.7-21.28 462.4-24.15 465.2-25.58 468-27 471.25-27L471.25-27Q477.1-27 480.3-23.8 483.5-20.6 483.5-14.75L483.5-14.75 483.5-11.95 463.4-11.95Q463.4-8.85 464.68-7 465.95-5.15 467.88-4.33 469.8-3.5 471.75-3.5L471.75-3.5Q474.75-3.5 476.38-4.5 478-5.5 478.7-7.25L478.7-7.25 483-7.25Q482.2-3.45 479.07-1.48 475.95 0.5 471.75 0.5ZM471.5-23L471.5-23Q469.45-23 467.6-22.23 465.75-21.45 464.57-19.8 463.4-18.15 463.4-15.55L463.4-15.55 479.35-15.55Q479.3-18.3 478.23-19.93 477.15-21.55 475.4-22.28 473.65-23 471.5-23Z" opacity="1" transform="matrix(1,0,0,1,0,0)" fill="#776e9a" class="slogan-text-1" data-fill-palette-color="secondary" id="text-1"></path></svg></g></svg></g></svg></g></svg></g><g transform="matrix(1,0,0,1,432.9731888859353,0)"><svg viewBox="0 0 119.15363804725739 144.95814864021204" height="144.95814864021204" width="119.15363804725739"><g><svg xmlns="http://www.w3.org/2000/svg" xmlns:xlink="http://www.w3.org/1999/xlink" version="1.1" x="0" y="0" viewBox="29.299 0.9386491851742842 231.056 281.0946483978025" enable-background="new 0 0 283.46 283.46" xml:space="preserve" height="144.95814864021204" width="119.15363804725739" class="icon-icon-0" data-fill-palette-color="accent" id="icon-0"><path d="M214.057 218.789c-0.062-0.049-1.818-0.99-4.425-2.384h-0.004c-7.868-4.198-23.471-12.471-23.471-12.471-0.4-0.212-1.609-1.011-2.738-0.39l-20.438 12.865-9.494 5.973c-0.662 0.48-0.588 1.267 0.52 1.863l26.843 14.19c1.83 0.974 2.321 0.608 3.422 0.026l29.517-18.649C214.419 219.421 214.38 219.03 214.057 218.789zM183.105 236.621l-0.373 0.188c-0.336-0.039-0.549-0.13-0.861-0.295l-25.401-13.43 27.926-17.58c0.123 0.037 0.707 0.338 0.746 0.357l25.342 13.463L183.105 236.621z" fill="#776e9a" data-fill-palette-color="accent"></path><path d="M207.766 175.229c-0.349-0.433-0.834-0.821-1.451-1.129-2.25-1.13-5.647-1.031-7.711 0.267-0.201 0.127-0.385 0.26-0.547 0.398-0.388 0.169-0.761 0.361-1.115 0.587-3.541 2.228-3.272 4.628-1.28 6.321-0.236-0.182-0.502-0.35-0.8-0.498-2.25-1.129-5.647-1.03-7.711 0.268-0.203 0.126-0.385 0.26-0.547 0.398-0.388 0.169-0.76 0.363-1.115 0.588-3.541 2.229-3.272 4.628-1.28 6.32-0.236-0.182-0.502-0.349-0.799-0.498-2.25-1.129-5.648-1.031-7.714 0.268-0.2 0.128-0.383 0.262-0.545 0.398-0.387 0.168-0.76 0.363-1.114 0.588-3.541 2.229-3.273 4.629-1.281 6.322-0.236-0.184-0.504-0.351-0.799-0.498-2.25-1.131-5.65-1.033-7.713 0.265-0.201 0.128-0.384 0.262-0.548 0.399-0.385 0.168-0.758 0.362-1.112 0.588-3.541 2.228-3.273 4.629-1.283 6.32-0.234-0.182-0.502-0.349-0.799-0.497-2.248-1.13-5.648-1.032-7.711 0.267-0.201 0.128-0.383 0.262-0.547 0.4-0.08 0.033-0.16 0.071-0.24 0.112h-0.012c-0.298 0.142-0.584 0.298-0.863 0.474-3.539 2.229-3.271 4.629-1.281 6.32-0.234-0.182-0.502-0.35-0.799-0.498-2.248-1.127-5.648-1.029-7.709 0.268-0.203 0.127-0.385 0.262-0.547 0.399-0.387 0.168-0.76 0.362-1.117 0.586-3.11 1.959-3.281 4.05-1.925 5.677 0.187 0.226 0.403 0.44 0.644 0.646-0.235-0.182-0.502-0.35-0.798-0.498-0.105-0.053-0.213-0.104-0.324-0.146v-0.004c-1.952-0.842-4.615-0.838-6.569-0.002h-0.015c-0.285 0.123-0.554 0.264-0.804 0.42-0.202 0.127-0.384 0.262-0.546 0.399-0.386 0.167-0.759 0.362-1.116 0.586-3.54 2.229-3.272 4.629-1.282 6.321-0.235-0.182-0.502-0.35-0.798-0.497-2.25-1.13-5.649-1.031-7.711 0.267-0.202 0.127-0.384 0.262-0.547 0.4-0.386 0.167-0.759 0.361-1.115 0.586-3.54 2.227-3.272 4.627-1.282 6.32-0.235-0.182-0.502-0.35-0.799-0.498-2.25-1.129-5.648-1.03-7.71 0.268-0.202 0.126-0.384 0.262-0.547 0.398-0.386 0.168-0.759 0.363-1.115 0.588-8.295 5.219 4.316 11.391 11.023 7.172 4.291-2.701 2.988-5.655-0.198-7.294-0.134-0.165-0.288-0.325-0.462-0.478 2.751 2.162 8.358 3.057 12.114 0.695 4.291-2.7 2.988-5.656-0.198-7.296-0.134-0.166-0.288-0.326-0.462-0.476 2.751 2.16 8.358 3.057 12.114 0.692 4.292-2.7 2.988-5.653-0.197-7.295-0.135-0.165-0.289-0.325-0.463-0.478 2.75 2.162 8.359 3.06 12.114 0.694 0.778-0.489 1.375-0.987 1.807-1.489h0.004c1.943-2.242 0.598-4.463-2.008-5.804-0.135-0.167-0.289-0.327-0.463-0.479 2.75 2.164 8.358 3.061 12.112 0.695 4.291-2.699 2.988-5.654-0.196-7.293-0.097-0.119-0.203-0.234-0.32-0.345v-0.003c-0.045-0.045-0.094-0.087-0.143-0.131 0.055 0.044 0.108 0.086 0.166 0.134h0.01c2.807 2.063 8.26 2.876 11.938 0.562 0.299-0.188 0.568-0.375 0.814-0.562v-0.002c3.287-2.539 1.953-5.203-1.012-6.729-0.134-0.166-0.289-0.326-0.464-0.479 2.752 2.164 8.359 3.06 12.113 0.696 4.291-2.699 2.987-5.653-0.197-7.295-0.135-0.168-0.289-0.326-0.463-0.478 2.752 2.161 8.358 3.058 12.115 0.694 4.289-2.699 2.985-5.655-0.199-7.293-0.133-0.168-0.287-0.327-0.463-0.479 2.752 2.161 8.358 3.059 12.114 0.693C212.253 179.823 210.951 176.869 207.766 175.229zM107.848 232.361c3.254-2.048 9.603 0.266 6.413 2.271C111.007 236.68 104.658 234.369 107.848 232.361zM116.674 234.16c1.244 1.082 1.014 2.194-1.207 3.594-2.778 1.746-6.686 1.315-9.444-0.068-2.381-1.193-2.14-2.696-0.652-3.824 0.149 0.934 0.86 1.824 2.05 2.424 2.25 1.129 5.648 1.03 7.71-0.268C115.976 235.485 116.479 234.835 116.674 234.16zM119.301 225.285c3.253-2.049 9.602 0.266 6.413 2.271C122.46 229.604 116.111 227.292 119.301 225.285zM128.127 227.082c1.244 1.082 1.014 2.196-1.207 3.594-2.778 1.748-6.686 1.318-9.444-0.064-2.38-1.195-2.14-2.699-0.652-3.826 0.149 0.936 0.859 1.826 2.049 2.424 2.25 1.129 5.649 1.029 7.711-0.268C127.429 228.41 127.932 227.759 128.127 227.082zM130.754 218.208c3.254-2.049 9.603 0.266 6.413 2.271C133.913 222.529 127.564 220.214 130.754 218.208zM139.58 220.007c1.244 1.08 1.016 2.195-1.206 3.592-2.779 1.748-6.686 1.318-9.444-0.064-2.38-1.195-2.14-2.697-0.652-3.826 0.149 0.935 0.859 1.826 2.049 2.424 2.25 1.13 5.649 1.029 7.711-0.269C138.882 221.332 139.387 220.682 139.58 220.007zM142.207 211.132c3.253-2.049 9.604 0.265 6.414 2.271C145.367 215.451 139.018 213.139 142.207 211.132zM151.033 212.929c1.213 1.055 1.025 2.137-1.035 3.48v0.002c-0.055 0.037-0.113 0.073-0.172 0.111-2.777 1.748-6.686 1.316-9.443-0.066-0.027-0.015-0.053-0.026-0.078-0.047h-0.01c-2.285-1.188-2.033-2.664-0.562-3.779 0.148 0.936 0.857 1.826 2.049 2.424 2.25 1.13 5.648 1.031 7.711-0.268C150.335 214.255 150.839 213.605 151.033 212.929zM162.486 205.853c1.246 1.082 1.016 2.193-1.207 3.593-2.777 1.749-6.684 1.318-9.443-0.065-2.381-1.195-2.139-2.697-0.649-3.825 0.147 0.935 0.856 1.825 2.049 2.423 2.25 1.13 5.647 1.032 7.711-0.266C161.789 207.182 162.292 206.529 162.486 205.853zM160.074 206.328c-3.254 2.047-9.604-0.266-6.414-2.273C156.914 202.007 163.264 204.32 160.074 206.328zM165.113 196.979c3.254-2.048 9.604 0.265 6.414 2.272C168.273 201.298 161.923 198.985 165.113 196.979zM173.941 198.776c1.244 1.083 1.014 2.194-1.209 3.593-0.58 0.365-1.209 0.635-1.867 0.821l0 0c-1.643 0.464-3.463 0.407-5.137 0h-0.002c-0.867-0.211-1.693-0.515-2.438-0.887-2.381-1.194-2.14-2.698-0.65-3.826 0.148 0.935 0.857 1.826 2.049 2.424 2.25 1.128 5.648 1.031 7.711-0.267C173.242 200.104 173.746 199.453 173.941 198.776zM176.566 189.902c3.256-2.048 9.604 0.266 6.414 2.271C179.727 194.222 173.376 191.91 176.566 189.902zM185.395 191.699c1.244 1.083 1.015 2.195-1.207 3.594-2.778 1.748-6.687 1.318-9.442-0.065-2.382-1.194-2.142-2.698-0.652-3.826 0.148 0.937 0.859 1.827 2.049 2.425 2.25 1.127 5.648 1.031 7.711-0.268C184.695 193.027 185.199 192.376 185.395 191.699zM188.02 182.826c3.256-2.049 9.604 0.264 6.414 2.271C191.18 187.146 184.83 184.832 188.02 182.826zM196.848 184.623c1.243 1.082 1.014 2.195-1.207 3.592-2.777 1.75-6.687 1.32-9.442-0.063-2.382-1.194-2.142-2.696-0.652-3.825 0.147 0.936 0.858 1.826 2.049 2.424 2.25 1.129 5.648 1.029 7.711-0.268C196.148 185.951 196.652 185.298 196.848 184.623zM199.475 175.75c3.254-2.047 9.603 0.265 6.412 2.271C202.632 180.069 196.285 177.755 199.475 175.75zM207.094 181.14c-2.777 1.748-6.687 1.318-9.443-0.066-2.381-1.195-2.142-2.697-0.651-3.824 0.147 0.935 0.858 1.824 2.049 2.424 2.25 1.128 5.647 1.029 7.711-0.269 0.844-0.53 1.348-1.183 1.543-1.858C209.544 178.63 209.314 179.742 207.094 181.14z" fill="#776e9a" data-fill-palette-color="accent"></path><path d="M193.736 168.848c-0.348-0.433-0.836-0.821-1.453-1.13-2.25-1.129-5.646-1.031-7.711 0.268-0.201 0.127-0.383 0.26-0.547 0.399-0.385 0.166-0.758 0.36-1.115 0.587-3.539 2.227-3.271 4.627-1.279 6.318-0.237-0.182-0.504-0.348-0.801-0.496-2.25-1.129-5.647-1.03-7.711 0.267-0.201 0.128-0.383 0.261-0.547 0.399-0.385 0.168-0.758 0.361-1.115 0.588-3.539 2.227-3.271 4.628-1.281 6.32-0.235-0.183-0.502-0.35-0.799-0.498-2.25-1.129-5.647-1.031-7.711 0.268-0.201 0.127-0.383 0.261-0.547 0.4-0.387 0.168-0.758 0.362-1.115 0.586-3.539 2.228-3.271 4.627-1.28 6.32-0.236-0.182-0.502-0.349-0.8-0.498-2.25-1.129-5.647-1.029-7.711 0.268-0.2 0.128-0.383 0.262-0.547 0.398-0.385 0.17-0.758 0.362-1.115 0.588-3.538 2.229-3.272 4.629-1.28 6.321-0.235-0.183-0.502-0.349-0.799-0.498-2.25-1.13-5.648-1.032-7.711 0.267-0.201 0.127-0.384 0.262-0.547 0.398-0.386 0.168-0.759 0.363-1.116 0.588-3.265 2.053-3.291 4.26-1.712 5.915l0 0c0.133 0.14 0.277 0.274 0.432 0.405-0.186-0.145-0.392-0.276-0.616-0.405h-0.009c-0.058-0.032-0.115-0.062-0.175-0.092-2.144-1.076-5.332-1.037-7.413 0.093-0.102 0.057-0.202 0.113-0.298 0.174-0.201 0.129-0.384 0.262-0.547 0.399-0.386 0.168-0.759 0.362-1.115 0.587-3.541 2.227-3.272 4.628-1.281 6.32-0.236-0.182-0.502-0.348-0.798-0.496-2.25-1.129-5.649-1.031-7.711 0.267-0.202 0.127-0.384 0.261-0.547 0.399-0.386 0.168-0.759 0.361-1.116 0.586-2.684 1.689-3.179 3.479-2.393 4.982 0.25 0.479 0.631 0.931 1.112 1.338-0.236-0.181-0.502-0.349-0.798-0.498-2.25-1.127-5.649-1.029-7.712 0.27-0.201 0.125-0.383 0.262-0.547 0.4-0.385 0.166-0.759 0.359-1.115 0.584-3.541 2.229-3.272 4.629-1.281 6.322-0.236-0.182-0.502-0.35-0.799-0.498-2.25-1.129-5.649-1.031-7.711 0.267-0.202 0.127-0.383 0.261-0.547 0.399-0.385 0.166-0.758 0.361-1.115 0.586-8.295 5.22 4.316 11.393 11.023 7.174 4.291-2.701 2.988-5.655-0.198-7.295-0.133-0.166-0.288-0.328-0.461-0.479 2.75 2.163 8.357 3.059 12.113 0.694 4.29-2.699 2.987-5.653-0.199-7.294-0.133-0.166-0.288-0.326-0.461-0.479 2.75 2.163 8.357 3.059 12.113 0.694 1.147-0.722 1.896-1.461 2.313-2.188v-0.002c1.146-1.994-0.178-3.9-2.512-5.103-0.133-0.165-0.288-0.325-0.462-0.479 2.75 2.164 8.358 3.062 12.113 0.695 4.29-2.698 2.989-5.654-0.198-7.294-0.134-0.167-0.289-0.326-0.462-0.478 2.75 2.162 8.358 3.06 12.114 0.694 0.662-0.416 1.189-0.839 1.599-1.257v-0.004c2.245-2.319 0.897-4.646-1.798-6.032-0.133-0.167-0.286-0.325-0.461-0.478 2.75 2.162 8.357 3.058 12.113 0.693 4.291-2.699 2.988-5.652-0.199-7.294-0.133-0.167-0.287-0.325-0.463-0.478 2.752 2.162 8.359 3.058 12.115 0.695 4.291-2.701 2.988-5.655-0.199-7.295-0.133-0.166-0.287-0.326-0.463-0.479 2.752 2.163 8.359 3.059 12.115 0.695 4.291-2.699 2.988-5.654-0.197-7.295-0.135-0.166-0.289-0.324-0.463-0.478 2.75 2.162 8.357 3.06 12.113 0.695C198.225 173.443 196.921 170.488 193.736 168.848zM93.817 225.98c3.254-2.048 9.603 0.266 6.414 2.271C96.976 230.3 90.627 227.987 93.817 225.98zM102.644 227.779c1.244 1.081 1.014 2.195-1.207 3.594-2.777 1.748-6.685 1.316-9.443-0.067-2.381-1.194-2.14-2.696-0.652-3.826 0.15 0.937 0.859 1.826 2.049 2.424 2.25 1.13 5.649 1.032 7.712-0.266C101.945 229.105 102.449 228.455 102.644 227.779zM105.271 218.902c3.254-2.046 9.603 0.268 6.414 2.273C108.43 223.224 102.081 220.912 105.271 218.902zM114.097 220.701c1.244 1.084 1.014 2.196-1.207 3.594-2.778 1.748-6.686 1.317-9.444-0.065-2.381-1.194-2.14-2.697-0.652-3.826 0.149 0.937 0.859 1.827 2.049 2.425 2.25 1.129 5.649 1.03 7.711-0.267C113.398 222.03 113.902 221.378 114.097 220.701zM116.724 211.828c3.254-2.049 9.603 0.266 6.414 2.271C119.883 216.146 113.534 213.835 116.724 211.828zM125.55 213.625c0.994 0.864 1.047 1.75-0.104 2.785h-0.002c-0.289 0.26-0.655 0.527-1.1 0.81-2.778 1.747-6.686 1.317-9.443-0.067-0.47-0.234-0.838-0.48-1.114-0.738h-0.002c-1.121-1.033-0.73-2.182 0.464-3.086 0.149 0.935 0.858 1.824 2.049 2.422 0.642 0.323 1.376 0.545 2.147 0.664h1.603l-1.603 0.006c0.95 0.15 1.955 0.147 2.905-0.004h0.032c0.972-0.153 1.886-0.465 2.627-0.932C124.852 214.953 125.356 214.302 125.55 213.625zM139.631 197.673c3.253-2.047 9.604 0.265 6.414 2.273C142.789 201.994 136.441 199.681 139.631 197.673zM128.177 204.751c3.254-2.047 9.604 0.266 6.414 2.271C131.336 209.071 124.987 206.759 128.177 204.751zM137.003 206.548c1.245 1.082 1.014 2.195-1.207 3.593-2.779 1.749-6.686 1.317-9.444-0.065-2.381-1.195-2.14-2.697-0.652-3.826 0.149 0.937 0.859 1.828 2.049 2.424 2.25 1.131 5.649 1.031 7.711-0.266C136.305 207.876 136.809 207.225 137.003 206.548zM148.457 199.472c1.244 1.082 1.015 2.193-1.207 3.593-0.067 0.044-0.137 0.085-0.207 0.126l0 0c-2.631 1.523-6.186 1.196-8.841 0.002v-0.005c-0.135-0.062-0.266-0.124-0.395-0.188-2.381-1.194-2.139-2.697-0.651-3.826 0.149 0.937 0.859 1.828 2.048 2.425 2.25 1.13 5.648 1.032 7.71-0.267C147.757 200.8 148.264 200.147 148.457 199.472zM151.083 190.598c3.254-2.047 9.604 0.266 6.412 2.272C154.242 194.917 147.895 192.605 151.083 190.598zM159.91 192.396c1.244 1.082 1.014 2.195-1.207 3.594-2.777 1.747-6.686 1.317-9.442-0.066-2.382-1.194-2.142-2.696-0.652-3.826 0.149 0.936 0.858 1.826 2.05 2.424 2.25 1.129 5.647 1.032 7.711-0.266C159.21 193.723 159.716 193.071 159.91 192.396zM162.537 183.521c3.254-2.048 9.604 0.266 6.412 2.273C165.697 187.841 159.348 185.528 162.537 183.521zM171.363 185.318c1.244 1.083 1.016 2.196-1.207 3.594-2.777 1.748-6.686 1.317-9.443-0.065-2.381-1.194-2.139-2.697-0.651-3.825 0.149 0.936 0.858 1.827 2.049 2.424 2.25 1.128 5.65 1.029 7.711-0.268C170.664 186.646 171.167 185.994 171.363 185.318zM173.99 176.445c3.254-2.049 9.604 0.264 6.412 2.271C177.15 180.765 170.8 178.453 173.99 176.445zM182.816 178.242c1.244 1.084 1.016 2.194-1.207 3.594-2.777 1.746-6.686 1.317-9.443-0.066-2.381-1.193-2.139-2.696-0.651-3.825 0.149 0.937 0.858 1.826 2.049 2.425 2.25 1.127 5.647 1.029 7.713-0.269C182.119 179.569 182.621 178.919 182.816 178.242zM185.443 169.369c3.254-2.047 9.604 0.266 6.414 2.271C188.604 173.688 182.253 171.375 185.443 169.369zM193.062 174.757c-2.777 1.75-6.686 1.318-9.443-0.064-2.381-1.193-2.139-2.697-0.652-3.824 0.15 0.936 0.859 1.825 2.052 2.424 2.248 1.129 5.647 1.028 7.711-0.269 0.842-0.53 1.347-1.183 1.541-1.858C195.514 172.248 195.285 173.361 193.062 174.757z" fill="#776e9a" data-fill-palette-color="accent"></path><path d="M258.167 194.08l-101.926-51.152c-1.52-0.789-2.762-1.183-3.832-1.306l3.9-2.505c2.631-1.687 4.775-5.765 4.775-9.096V6.634c0-1.958-0.724-3.164-1.826-3.51-3.615-1.458-6.951-3.312-10.961-1.305l-1.9 1.072L34.509 74.628c-2.921 1.874-5.21 6.266-5.21 9.893v118.68 4.721c0.184 4.886 2.621 5.025 6.249 6.548l1.137 0.448c-0.086 0.439-0.181 0.941-0.275 1.496h-0.001c-0.199 1.146-0.402 2.498-0.544 3.881-0.226 2.188 1.297 3.982 1.084 6.205l-0.118 1.078c-0.077 0.963 0.145 1.812 1.066 2.258l101.939 51.135c3.064 1.535 7.707 1.4 10.508-0.363l106.975-67.328c1.798-1.131 1.964-5.546 2.136-7.419 0.516-0.532 0.453-1.614 0.453-1.614l0.062-1.061 0.356-6.048 0.029-0.482C260.296 195.71 259.568 194.781 258.167 194.08zM159.164 6.634v123.387c0 2.725-1.852 6.17-3.893 7.479L52.908 203.198l-13.276 8.521c-1.097 0.704-1.675 0.728-1.675-1.273v-7.245V87.059c0-2.724 1.851-6.168 3.891-7.477l115.64-74.221C158.585 4.658 159.164 4.634 159.164 6.634zM36.035 87.059v116.142 7.245c0 1.203 0.271 2.121 0.737 2.729l-1.419-0.539c-2.492-0.947-4.283-1.154-4.418-4.745v-4.69V84.521c0-3.112 2.04-6.967 4.458-8.518l113.94-73.132c2.029-1.166 4.644-0.27 7.115 0.872L40.81 77.963C38.179 79.651 36.035 83.729 36.035 87.059zM258.119 203.185l-0.047 0.861-0.105 1.086c-0.03 0.162-0.067 0.326-0.104 0.39-0.213 0.349-0.25 0.313-0.336 0.767-0.121 1.524-0.396 4.515-1.231 5.363L149.32 278.979c-2.195 1.381-6.119 1.528-8.621 0.272L38.752 228.145c-0.009-0.024-0.029-0.128-0.005-0.415l0.114-1.044c0.118-1.226-0.173-2.312-0.485-3.3l-0.113-0.354-0.375-1.278c-0.101-0.437-0.153-0.854-0.111-1.262 0.152-1.465 0.373-2.891 0.582-4.068l0 0c0.023-0.133 0.047-0.262 0.07-0.387 0.205 0.137 0.425 0.264 0.653 0.381h0.003c0.019 0.012 0.037 0.021 0.056 0.029l101.933 51.155c2.746 1.38 6.979 1.237 9.435-0.31l80.871-50.889 0 0h0.002l26.933-16.947L258.119 203.185zM257.652 197.604l-108.166 68.062c-1.85 1.166-5.365 1.316-7.551 0.221l-32.723-16.424h-0.001l-65.84-33.045-3.368-1.688c-0.417-0.21-0.696-0.389-0.97-0.631l0.581-0.235 0.37-0.149c0.223-0.104 0.454-0.227 0.687-0.375l15.796-10.139h0.001l92.609-59.439c1.529-0.621 3.215-0.719 6.289 0.88l101.938 51.158C258.852 196.574 258.621 196.994 257.652 197.604z" fill="#776e9a" data-fill-palette-color="accent"></path><path d="M179.705 162.468c-0.348-0.434-0.834-0.821-1.451-1.131-2.25-1.129-5.647-1.03-7.711 0.267-0.201 0.126-0.383 0.261-0.547 0.399-0.387 0.168-0.76 0.36-1.115 0.586-3.541 2.229-3.272 4.63-1.28 6.322-0.236-0.183-0.502-0.351-0.8-0.498-2.25-1.131-5.647-1.031-7.711 0.268-0.202 0.128-0.385 0.26-0.549 0.4-0.385 0.166-0.758 0.36-1.112 0.586-3.541 2.228-3.273 4.627-1.281 6.321-0.235-0.183-0.502-0.35-0.799-0.499-2.25-1.13-5.647-1.031-7.711 0.268-0.203 0.127-0.386 0.26-0.548 0.398-0.387 0.168-0.76 0.362-1.114 0.588-3.541 2.229-3.272 4.629-1.281 6.321-0.235-0.183-0.504-0.351-0.799-0.498-2.25-1.13-5.65-1.032-7.712 0.265-0.202 0.129-0.384 0.262-0.547 0.401-0.386 0.167-0.759 0.361-1.115 0.585-3.54 2.229-3.273 4.631-1.282 6.322-0.235-0.182-0.502-0.348-0.798-0.497-2.25-1.129-5.649-1.031-7.711 0.267-0.201 0.127-0.384 0.26-0.546 0.399-0.387 0.168-0.759 0.362-1.116 0.586-3.54 2.228-3.272 4.629-1.281 6.322-0.235-0.183-0.502-0.351-0.799-0.499-2.25-1.127-5.648-1.029-7.71 0.268-0.202 0.127-0.385 0.262-0.547 0.398-0.386 0.17-0.759 0.363-1.116 0.588-2.83 1.781-3.227 3.672-2.254 5.222v0.002c0.244 0.39 0.574 0.759 0.973 1.099-0.235-0.184-0.502-0.351-0.798-0.498-0.537-0.27-1.141-0.469-1.775-0.603h-0.022c-1.186-0.241-2.48-0.237-3.665 0.001v0.004c-0.83 0.17-1.604 0.459-2.249 0.864-0.201 0.128-0.384 0.263-0.546 0.399-0.387 0.168-0.76 0.361-1.116 0.587-3.54 2.227-3.273 4.628-1.281 6.319-0.236-0.182-0.502-0.348-0.798-0.496-2.25-1.131-5.649-1.033-7.711 0.265-0.202 0.128-0.384 0.262-0.547 0.401-0.386 0.168-0.759 0.362-1.116 0.588-2.283 1.436-2.982 2.942-2.657 4.287 0.18 0.74 0.669 1.433 1.377 2.032-0.236-0.182-0.503-0.35-0.799-0.497-2.25-1.129-5.649-1.031-7.711 0.266-0.202 0.127-0.383 0.262-0.546 0.4-0.387 0.168-0.759 0.361-1.116 0.586-8.295 5.221 4.317 11.394 11.023 7.172 4.291-2.701 2.988-5.654-0.198-7.293-0.133-0.166-0.289-0.326-0.462-0.479 2.751 2.162 8.358 3.059 12.114 0.695 1.516-0.954 2.333-1.94 2.616-2.885v-0.002c0.52-1.736-0.754-3.348-2.815-4.408-0.133-0.166-0.288-0.325-0.462-0.479 2.751 2.164 8.358 3.059 12.114 0.695 4.29-2.7 2.988-5.653-0.198-7.294-0.134-0.167-0.289-0.326-0.463-0.478 2.751 2.162 8.358 3.059 12.114 0.693 1.025-0.645 1.731-1.305 2.168-1.95v-0.007c1.393-2.079 0.059-4.088-2.366-5.336-0.134-0.167-0.288-0.326-0.463-0.479 2.751 2.164 8.359 3.058 12.114 0.694 4.291-2.698 2.988-5.653-0.198-7.293-0.134-0.168-0.288-0.327-0.462-0.478 2.75 2.16 8.359 3.058 12.112 0.695 4.291-2.703 2.988-5.658-0.196-7.295-0.136-0.167-0.287-0.326-0.463-0.478 2.75 2.161 8.358 3.057 12.112 0.694 4.291-2.699 2.988-5.654-0.196-7.295-0.134-0.166-0.287-0.326-0.464-0.478 2.752 2.161 8.359 3.057 12.113 0.694 4.293-2.698 2.988-5.654-0.197-7.295-0.133-0.166-0.286-0.326-0.463-0.477 2.752 2.162 8.359 3.057 12.113 0.693C184.195 167.061 182.891 164.106 179.705 162.468zM79.787 219.599c3.255-2.046 9.604 0.268 6.414 2.273C82.946 223.919 76.598 221.606 79.787 219.599zM88.613 221.397c1.244 1.083 1.015 2.196-1.207 3.595-2.778 1.746-6.686 1.315-9.443-0.068-2.381-1.194-2.14-2.697-0.653-3.825 0.149 0.935 0.859 1.827 2.049 2.424 2.25 1.13 5.649 1.031 7.711-0.265C87.915 222.726 88.419 222.074 88.613 221.397zM91.24 212.522c3.254-2.048 9.603 0.267 6.414 2.272C94.399 216.841 88.05 214.531 91.24 212.522zM100.066 214.321c0.768 0.668 0.974 1.347 0.498 2.093v0.006c-0.296 0.467-0.854 0.961-1.705 1.494-2.778 1.748-6.686 1.316-9.443-0.065-0.893-0.447-1.417-0.938-1.645-1.435v-0.004c-0.38-0.83 0.063-1.683 0.992-2.388 0.147 0.92 0.836 1.796 1.99 2.392v0.002c0.02 0.011 0.04 0.021 0.06 0.029 2.096 1.053 5.19 1.038 7.271-0.023H98.1c0.147-0.077 0.289-0.157 0.425-0.242C99.368 215.648 99.872 214.998 100.066 214.321zM102.693 205.447c3.254-2.048 9.603 0.266 6.414 2.271C105.853 209.767 99.504 207.455 102.693 205.447zM111.52 207.244c1.245 1.082 1.015 2.195-1.206 3.592-2.778 1.75-6.686 1.319-9.444-0.063-2.38-1.194-2.139-2.696-0.652-3.826 0.149 0.937 0.859 1.826 2.049 2.425 2.25 1.129 5.648 1.029 7.711-0.267C110.821 208.571 111.325 207.919 111.52 207.244zM114.147 198.369c3.254-2.047 9.603 0.266 6.413 2.272C117.307 202.69 110.957 200.376 114.147 198.369zM122.973 200.167c1.072 0.933 1.05 1.889-0.396 3.025v0.002c-0.233 0.184-0.503 0.371-0.811 0.564-2.778 1.748-6.686 1.318-9.444-0.065-0.323-0.161-0.598-0.329-0.828-0.5v-0.002c-1.464-1.094-1.109-2.349 0.176-3.323 0.149 0.936 0.859 1.827 2.05 2.424 2.249 1.131 5.648 1.03 7.71-0.269C122.274 201.494 122.779 200.843 122.973 200.167zM125.6 191.294c3.254-2.049 9.603 0.264 6.413 2.272C128.759 195.613 122.411 193.3 125.6 191.294zM134.426 193.089c1.245 1.082 1.015 2.195-1.206 3.596-2.778 1.747-6.686 1.316-9.444-0.066-2.38-1.195-2.139-2.697-0.651-3.826 0.149 0.936 0.859 1.826 2.049 2.424 2.25 1.129 5.648 1.031 7.711-0.266C133.728 194.417 134.232 193.767 134.426 193.089zM137.053 184.216c3.253-2.045 9.603 0.266 6.413 2.273C140.213 188.537 133.864 186.224 137.053 184.216zM145.878 186.014c1.246 1.084 1.017 2.196-1.207 3.594-2.776 1.748-6.685 1.317-9.442-0.065-2.381-1.193-2.14-2.696-0.651-3.826 0.149 0.935 0.859 1.826 2.048 2.425 2.251 1.129 5.649 1.028 7.711-0.267C145.182 187.343 145.686 186.691 145.878 186.014zM148.505 177.14c3.254-2.047 9.604 0.266 6.414 2.271C151.666 181.458 145.316 179.148 148.505 177.14zM157.333 178.938c1.244 1.083 1.015 2.194-1.209 3.593-2.776 1.747-6.684 1.317-9.442-0.066-2.379-1.193-2.14-2.695-0.649-3.824 0.147 0.936 0.858 1.826 2.049 2.425 2.25 1.126 5.647 1.029 7.711-0.271C156.634 180.266 157.139 179.614 157.333 178.938zM159.958 170.065c3.256-2.049 9.604 0.265 6.414 2.271C163.119 174.382 156.77 172.071 159.958 170.065zM168.787 171.86c1.244 1.083 1.014 2.196-1.207 3.595-2.776 1.748-6.686 1.317-9.442-0.065-2.382-1.194-2.142-2.697-0.652-3.825 0.147 0.936 0.859 1.826 2.05 2.423 2.25 1.13 5.647 1.029 7.711-0.267C168.087 173.188 168.591 172.537 168.787 171.86zM171.414 162.987c3.254-2.047 9.603 0.265 6.412 2.271C174.572 167.307 168.223 164.994 171.414 162.987zM179.033 168.378c-2.777 1.748-6.686 1.316-9.443-0.065-2.381-1.196-2.141-2.699-0.651-3.826 0.149 0.935 0.858 1.826 2.049 2.425 2.25 1.129 5.648 1.029 7.712-0.27 0.844-0.531 1.348-1.182 1.543-1.857C181.484 165.869 181.253 166.981 179.033 168.378z" fill="#776e9a" data-fill-palette-color="accent"></path><g fill="#776e9a" data-fill-palette-color="accent"><path d="M165.675 156.087c-0.348-0.435-0.836-0.822-1.452-1.131-2.248-1.129-5.647-1.03-7.711 0.267-0.201 0.127-0.384 0.26-0.548 0.399-0.385 0.166-0.76 0.361-1.114 0.586-3.539 2.228-3.271 4.629-1.281 6.322-0.235-0.182-0.502-0.351-0.799-0.498-2.25-1.13-5.647-1.031-7.711 0.268-0.201 0.126-0.384 0.261-0.547 0.4-0.386 0.166-0.759 0.359-1.115 0.586-3.539 2.228-3.271 4.629-1.281 6.32-0.236-0.182-0.502-0.348-0.799-0.497-2.25-1.13-5.648-1.032-7.711 0.267-0.201 0.127-0.383 0.261-0.547 0.399-0.385 0.167-0.758 0.362-1.115 0.586-3.541 2.228-3.272 4.628-1.281 6.321-0.235-0.182-0.502-0.35-0.799-0.497-2.25-1.13-5.648-1.032-7.711 0.267-0.202 0.127-0.383 0.26-0.547 0.398-0.385 0.167-0.759 0.361-1.116 0.587-3.54 2.229-3.272 4.629-1.281 6.321-0.235-0.182-0.502-0.35-0.799-0.497-2.25-1.13-5.648-1.031-7.71 0.266-0.202 0.127-0.384 0.261-0.547 0.401-0.385 0.167-0.758 0.361-1.115 0.586-3.541 2.229-3.272 4.628-1.281 6.32-0.235-0.183-0.502-0.349-0.798-0.498-2.25-1.129-5.648-1.03-7.711 0.268-0.202 0.127-0.384 0.26-0.547 0.398-0.385 0.168-0.758 0.363-1.115 0.588-3.541 2.229-3.273 4.629-1.282 6.322-0.235-0.184-0.502-0.352-0.798-0.5-2.25-1.129-5.649-1.029-7.711 0.268-0.202 0.128-0.383 0.262-0.547 0.4-0.386 0.168-0.759 0.36-1.115 0.586-2.42 1.521-3.06 3.127-2.588 4.527v0.002c0.219 0.649 0.677 1.256 1.307 1.791-0.236-0.182-0.503-0.348-0.799-0.496-2.25-1.131-5.648-1.031-7.711 0.266-0.201 0.128-0.383 0.262-0.547 0.4-0.386 0.168-0.759 0.362-1.115 0.586-3.54 2.229-3.273 4.629-1.281 6.322-0.236-0.183-0.502-0.35-0.799-0.499-2.25-1.13-5.649-1.032-7.711 0.267-0.202 0.127-0.384 0.263-0.547 0.398-0.386 0.168-0.759 0.363-1.116 0.588-1.895 1.191-2.699 2.437-2.731 3.594v0.002l0 0c-0.104 3.904 8.582 6.83 13.754 3.576 1.884-1.186 2.689-2.418 2.731-3.574l0 0v-0.002l0 0v-0.002c0.049-1.467-1.145-2.799-2.929-3.715-0.133-0.166-0.288-0.326-0.462-0.479 2.751 2.163 8.359 3.059 12.114 0.695 4.291-2.699 2.987-5.653-0.198-7.295-0.133-0.168-0.288-0.326-0.462-0.478 2.75 2.163 8.358 3.058 12.114 0.695 1.387-0.873 2.189-1.771 2.533-2.646l0 0c0.719-1.827-0.575-3.538-2.731-4.649-0.133-0.166-0.288-0.324-0.462-0.477 2.75 2.161 8.358 3.057 12.114 0.694 4.291-2.699 2.988-5.654-0.198-7.293-0.134-0.167-0.288-0.328-0.462-0.479 2.75 2.161 8.358 3.059 12.113 0.694 4.291-2.7 2.988-5.655-0.198-7.294-0.134-0.167-0.288-0.326-0.462-0.479 2.75 2.162 8.358 3.059 12.113 0.695 4.291-2.699 2.989-5.654-0.198-7.294-0.133-0.165-0.287-0.325-0.462-0.478 2.75 2.162 8.358 3.058 12.114 0.695 4.291-2.699 2.987-5.654-0.199-7.296-0.133-0.166-0.287-0.325-0.461-0.476 2.75 2.16 8.356 3.057 12.112 0.693 4.291-2.701 2.988-5.656-0.198-7.293-0.134-0.168-0.287-0.326-0.461-0.479 2.75 2.161 8.356 3.059 12.112 0.693C170.164 160.681 168.861 157.727 165.675 156.087zM65.756 213.218c3.254-2.047 9.604 0.266 6.414 2.273C68.916 217.539 62.567 215.227 65.756 213.218zM73.652 216.417h0.002c0.481-0.429 0.788-0.908 0.929-1.4 0.523 0.455 0.786 0.915 0.75 1.398v0.002c-0.05 0.668-0.668 1.383-1.957 2.191-2.777 1.749-6.685 1.318-9.444-0.066-1.3-0.652-1.818-1.397-1.778-2.125 0.035-0.602 0.452-1.188 1.126-1.699 0.097 0.605 0.43 1.193 0.976 1.697h0.003c0.295 0.271 0.653 0.517 1.07 0.727 2.25 1.128 5.649 1.031 7.711-0.268C73.269 216.731 73.472 216.58 73.652 216.417zM77.209 206.143c3.255-2.048 9.604 0.265 6.414 2.271C80.369 210.462 74.02 208.149 77.209 206.143zM86.036 207.939c1.244 1.082 1.015 2.195-1.207 3.594-2.777 1.747-6.685 1.317-9.443-0.066-2.38-1.193-2.14-2.695-0.652-3.824 0.149 0.936 0.859 1.824 2.049 2.422 2.25 1.13 5.649 1.033 7.711-0.266C85.338 209.268 85.842 208.617 86.036 207.939zM88.663 199.065c3.254-2.048 9.603 0.265 6.414 2.271C91.823 203.385 85.474 201.072 88.663 199.065zM97.49 200.862c0.845 0.735 1.01 1.485 0.333 2.331h-0.001c-0.32 0.396-0.827 0.814-1.539 1.264-2.777 1.748-6.685 1.318-9.443-0.065-0.744-0.374-1.231-0.777-1.505-1.194H85.33c-0.597-0.908-0.164-1.855 0.857-2.632 0.149 0.935 0.858 1.827 2.049 2.425 0.148 0.073 0.301 0.145 0.459 0.207 1.893 0.766 4.405 0.762 6.3 0.001h0.009c0.336-0.136 0.652-0.293 0.943-0.477C96.791 202.189 97.295 201.539 97.49 200.862zM100.116 191.989c3.254-2.047 9.604 0.265 6.414 2.272C103.276 196.309 96.927 193.996 100.116 191.989zM108.943 193.787c1.245 1.084 1.015 2.194-1.207 3.594-2.777 1.746-6.685 1.317-9.443-0.067-2.381-1.192-2.14-2.694-0.652-3.824 0.149 0.935 0.859 1.826 2.049 2.423 2.25 1.129 5.649 1.031 7.711-0.268C108.244 195.114 108.748 194.462 108.943 193.787zM111.569 184.912c3.254-2.045 9.604 0.267 6.414 2.273C114.729 189.232 108.38 186.919 111.569 184.912zM120.396 186.708c1.245 1.084 1.015 2.196-1.207 3.594-2.778 1.75-6.686 1.32-9.444-0.064-2.38-1.195-2.139-2.697-0.651-3.824 0.149 0.935 0.858 1.825 2.049 2.422 2.25 1.129 5.648 1.031 7.71-0.266C119.698 188.037 120.202 187.386 120.396 186.708zM123.023 177.835c3.254-2.047 9.604 0.267 6.414 2.271C126.182 182.156 119.833 179.843 123.023 177.835zM131.85 179.634c1.245 1.084 1.015 2.195-1.208 3.594-2.777 1.747-6.685 1.316-9.443-0.066-2.381-1.195-2.139-2.697-0.651-3.826 0.149 0.936 0.859 1.828 2.049 2.426 2.25 1.127 5.648 1.029 7.711-0.27C131.15 180.96 131.655 180.31 131.85 179.634zM134.476 170.76c3.254-2.048 9.604 0.265 6.415 2.271C137.636 175.078 131.287 172.767 134.476 170.76zM143.303 172.557c1.243 1.083 1.016 2.196-1.207 3.595-2.777 1.746-6.685 1.316-9.444-0.066-2.381-1.193-2.14-2.698-0.651-3.825 0.149 0.936 0.859 1.827 2.049 2.422 2.25 1.13 5.65 1.032 7.71-0.267C142.604 173.882 143.107 173.233 143.303 172.557zM145.93 163.684c3.254-2.049 9.604 0.264 6.414 2.271C149.089 168.001 142.74 165.689 145.93 163.684zM154.755 165.48c1.244 1.082 1.017 2.195-1.207 3.593-2.776 1.748-6.686 1.318-9.442-0.063-2.381-1.196-2.141-2.698-0.651-3.827 0.149 0.937 0.858 1.825 2.051 2.424 2.248 1.13 5.647 1.03 7.709-0.269C154.059 166.807 154.562 166.156 154.755 165.48zM157.382 156.607c3.255-2.049 9.604 0.264 6.414 2.271C160.542 160.925 154.193 158.613 157.382 156.607zM165.001 161.998c-2.776 1.746-6.686 1.317-9.442-0.067-2.381-1.194-2.14-2.696-0.651-3.823 0.149 0.934 0.858 1.824 2.051 2.422 2.248 1.131 5.647 1.032 7.709-0.267 0.846-0.531 1.35-1.183 1.543-1.857C167.453 159.487 167.223 160.6 165.001 161.998z" fill="#776e9a" data-fill-palette-color="accent"></path><path d="M154.02 121.094V26.195c0-4.062-2.979-6.184-6.515-3.916L48.436 85.864c-3.005 1.93-5.335 6.409-5.335 10.123v94.897c0 4.062 2.979 6.185 6.513 3.914l99.07-63.584C151.689 129.287 154.02 124.807 154.02 121.094zM48.436 192.966c-1.73 1.109-3.045 0.639-3.154-1.913 1.057 0.524 2.468 0.36 3.854-0.528l96.596-61.996c2.838-1.823 5.084-6.122 5.084-9.663V27.783c0-1.835-0.637-3.257-1.723-3.906 1.596-0.823 2.746-0.151 2.746 2.318v94.898c0 3.027-1.998 6.788-4.334 8.288L48.436 192.966z" fill="#776e9a" data-fill-palette-color="accent"></path></g></svg></g></svg></g></svg></g><defs></defs></svg><rect width="395.52" height="103.8418061818142" fill="none" stroke="none" visibility="hidden"></rect></g></svg></g></svg>