<svg width="602" height="402" viewBox="0 0 602 402" fill="none" xmlns="http://www.w3.org/2000/svg">
<g clip-path="url(#clip0_67_300)">
<path d="M215.938 231.354C236.568 194.888 275.922 166.888 317.58 169.585C286.852 203.162 268.933 246.579 266.995 292.153C266.311 309.732 267.372 329.356 255.756 342.519C248.528 350.709 237.481 354.676 226.619 355.508C215.756 356.34 204.896 354.368 194.179 352.404L191.579 353.206C190.589 311.271 195.307 267.821 215.938 231.354Z" fill="#776E9A"/>
<path d="M317.642 170.463C286.836 185.365 260.568 210.252 244.443 240.604C240.957 247.166 237.989 254.128 236.694 261.488C235.399 268.852 236.304 275.862 238.807 282.856C241.095 289.25 244.173 295.524 244.874 302.366C245.614 309.577 242.973 316.32 238.22 321.671C232.404 328.219 224.594 332.276 216.819 335.977C208.186 340.087 199.155 344.218 193.04 351.887C192.299 352.816 190.908 351.607 191.647 350.679C202.285 337.335 220.495 334.827 233.123 324.078C239.015 319.063 243.438 312.232 243.159 304.229C242.915 297.231 239.747 290.758 237.374 284.304C234.883 277.527 233.641 270.714 234.534 263.488C235.448 256.098 238.151 249.005 241.455 242.382C248.907 227.446 259.104 213.734 270.785 201.88C284.211 188.255 299.857 177.038 317.047 168.714C318.111 168.199 318.7 169.952 317.642 170.463Z" fill="white"/>
<path d="M249.167 230.46C244.444 226.99 241.103 221.947 239.739 216.23C238.376 210.513 239.079 204.495 241.724 199.251C242.262 198.192 243.926 198.984 243.386 200.044C240.915 204.923 240.26 210.528 241.541 215.849C242.821 221.17 245.952 225.856 250.369 229.061C251.328 229.758 250.12 231.154 249.167 230.46Z" fill="white"/>
<path d="M237.222 279.767C249.055 278.03 259.803 271.874 267.321 262.528C268.065 261.602 269.457 262.811 268.714 263.736C260.872 273.447 249.675 279.83 237.356 281.611C236.182 281.78 236.054 279.935 237.222 279.767Z" fill="white"/>
<path d="M285.12 190.529C286.669 192.255 288.62 193.566 290.798 194.346C292.976 195.127 295.312 195.351 297.598 195C298.77 194.816 298.897 196.661 297.733 196.843C295.206 197.22 292.625 196.969 290.217 196.112C287.809 195.255 285.646 193.819 283.917 191.929C283.74 191.764 283.631 191.538 283.613 191.296C283.595 191.054 283.67 190.814 283.822 190.625C283.982 190.441 284.208 190.327 284.451 190.309C284.694 190.291 284.934 190.37 285.12 190.529Z" fill="white"/>
<path d="M400.469 284.624C399.741 284.76 399.012 284.895 398.277 285.045C388.495 286.92 378.881 289.59 369.53 293.03C368.803 293.284 368.069 293.553 367.351 293.828C344.909 302.356 324.238 314.996 306.388 331.106C299.291 337.524 292.69 344.474 286.643 351.897C278.291 362.15 270.048 373.934 259.135 380.619C258.004 381.329 256.831 381.969 255.622 382.533L192.755 356.331C192.641 356.199 192.522 356.082 192.408 355.95L189.85 355.019C190.135 354.614 190.44 354.201 190.725 353.796C190.89 353.561 191.068 353.331 191.233 353.095C191.347 352.94 191.462 352.785 191.556 352.639C191.594 352.587 191.632 352.536 191.664 352.498C191.758 352.352 191.861 352.225 191.949 352.093C193.645 349.777 195.36 347.468 197.095 345.167C197.101 345.152 197.101 345.152 197.121 345.144C210.379 327.646 225.209 311.106 242.065 297.354C242.572 296.941 243.084 296.513 243.62 296.111C251.252 289.955 259.373 284.435 267.9 279.608C272.577 276.98 277.384 274.592 282.302 272.452C295.02 266.948 308.52 263.488 322.308 262.2C349.794 259.635 377.79 265.932 398.871 283.282C399.41 283.727 399.936 284.165 400.469 284.624Z" fill="#776E9A"/>
<path d="M399.997 285.367C366.471 278.628 330.585 282.608 299.524 297.087C292.809 300.217 286.268 303.98 280.824 309.074C275.377 314.17 271.899 320.314 269.707 327.413C267.703 333.902 266.401 340.774 262.862 346.661C259.132 352.866 252.983 356.652 245.981 358.05C237.415 359.759 228.747 358.274 220.322 356.525C210.967 354.584 201.28 352.418 191.803 354.842C190.655 355.136 190.268 353.329 191.415 353.035C207.904 348.817 223.946 357.831 240.469 356.888C248.179 356.447 255.804 353.67 260.376 347.111C264.374 341.376 265.723 334.291 267.696 327.702C269.767 320.784 272.858 314.592 277.9 309.364C283.058 304.016 289.467 299.988 296.073 296.699C310.972 289.281 327.33 284.501 343.759 282.104C362.643 279.347 381.856 279.856 400.569 283.609C401.727 283.842 401.147 285.598 399.997 285.367Z" fill="white"/>
<path d="M309.373 291.845C307.682 286.218 308.036 280.169 310.373 274.78C312.71 269.39 316.877 265.011 322.13 262.424C323.195 261.904 324.049 263.542 322.983 264.063C318.086 266.463 314.205 270.542 312.039 275.565C309.873 280.589 309.566 286.224 311.172 291.455C311.52 292.592 309.719 292.976 309.373 291.845Z" fill="white"/>
<path d="M270.292 323.988C280.782 329.759 293.051 331.347 304.654 328.432C305.803 328.143 306.19 329.95 305.042 330.239C292.963 333.249 280.198 331.572 269.295 325.541C268.256 324.966 269.259 323.415 270.292 323.988Z" fill="white"/>
<path d="M362.006 281.713C362.209 284.028 362.981 286.255 364.252 288.196C365.524 290.137 367.255 291.73 369.29 292.832C370.336 293.394 369.332 294.944 368.293 294.385C366.05 293.157 364.14 291.396 362.73 289.255C361.321 287.114 360.455 284.658 360.207 282.103C360.164 281.865 360.212 281.618 360.343 281.414C360.474 281.21 360.678 281.064 360.912 281.005C361.151 280.954 361.399 281 361.604 281.133C361.809 281.266 361.953 281.474 362.006 281.713Z" fill="white"/>
<path d="M280.711 327.852C271.907 285.076 260.901 270.815 260.901 270.815L256.697 267.539L251.641 263.592L251.665 263.085L250.466 262.675L250.185 262.455L249.723 262.099L249.649 262.179L249.492 262.343L226.612 254.528L197.586 244.621L184.145 227.066C181.956 224.207 179.138 221.896 175.911 220.315C172.684 218.733 169.137 217.924 165.547 217.951L122.621 218.27C116.817 218.313 111.239 220.536 106.983 224.503L78.7682 250.8L34.8039 271.899L34.7297 271.824L34.2681 272.155L27.4752 275.419L27.7555 276.885L23.5511 279.934C23.5511 279.934 12.5457 293.204 3.74128 333.006C1.50154 343.134 0.399055 364.859 0.00111829 391.63C-0.01887 392.984 0.229276 394.329 0.731121 395.586C1.23297 396.843 1.9785 397.987 2.92438 398.952C3.87025 399.917 4.9976 400.684 6.24086 401.207C7.48413 401.73 8.81851 402 10.1664 402H244.988L274.297 402C275.644 401.999 276.977 401.73 278.22 401.207C279.462 400.685 280.589 399.919 281.535 398.955C282.48 397.992 283.226 396.849 283.729 395.593C284.231 394.337 284.48 392.994 284.462 391.641C284.073 362.51 282.971 338.835 280.711 327.852Z" fill="#3F3D56"/>
<path d="M310.84 37.3042C301.704 37.3042 292.942 40.9509 286.482 47.4422C280.022 53.9334 276.393 62.7374 276.393 71.9174C276.393 81.0974 280.022 89.9014 286.482 96.3926C292.942 102.884 301.704 106.531 310.84 106.531H567.553C576.689 106.531 585.451 102.884 591.911 96.3926C598.371 89.9014 602 81.0974 602 71.9174C602 62.7374 598.371 53.9334 591.911 47.4422C585.451 40.9509 576.689 37.3042 567.553 37.3042H310.84Z" fill="#E5E5E5"/>
<path d="M310.84 44.3091C303.553 44.3091 296.564 47.2178 291.412 52.3953C286.259 57.5729 283.364 64.5951 283.364 71.9172C283.364 79.2394 286.259 86.2616 291.412 91.4391C296.564 96.6167 303.553 99.5254 310.84 99.5254H567.553C574.84 99.5254 581.828 96.6167 586.981 91.4391C592.134 86.2616 595.029 79.2394 595.029 71.9172C595.029 64.5951 592.134 57.5729 586.981 52.3953C581.828 47.2178 574.84 44.3091 567.553 44.3091H310.84Z" fill="white"/>
<path d="M150.825 201.747C181.885 201.747 207.063 176.447 207.063 145.238C207.063 114.028 181.885 88.7285 150.825 88.7285C119.766 88.7285 94.5875 114.028 94.5875 145.238C94.5875 176.447 119.766 201.747 150.825 201.747Z" fill="#9E616A"/>
<path d="M136.438 198.979C136.198 198.448 135.959 197.915 135.72 197.379C135.812 197.382 135.903 197.396 135.995 197.398L136.438 198.979Z" fill="#2F2E41"/>
<path d="M93.0236 91.2984C95.8679 89.0184 99.1923 86.9206 102.829 87.0385C106.465 87.1563 110.153 90.4566 109.4 94.0334C116.079 82.1495 126.711 73.0094 139.43 68.2174C152.148 63.4255 166.139 63.2879 178.948 67.8289C187.987 71.0331 196.85 77.4434 198.926 86.8453C199.459 89.2588 199.574 91.9052 201.074 93.865C202.964 96.336 206.582 96.895 209.561 96.0257C209.591 96.017 209.621 96.0082 209.651 95.9993C210.154 95.8266 210.697 95.8097 211.21 95.9506C211.723 96.0915 212.182 96.3839 212.528 96.7898C212.874 97.1958 213.09 97.6966 213.15 98.2276C213.209 98.7586 213.109 99.2954 212.861 99.7684L210.304 104.561C213.528 105.283 216.877 105.211 220.068 104.352C220.598 104.213 221.158 104.241 221.671 104.434C222.184 104.627 222.625 104.974 222.934 105.429C223.243 105.884 223.404 106.423 223.396 106.974C223.387 107.524 223.21 108.059 222.887 108.504C214.454 120.137 200.366 127.649 185.989 127.561C175.771 127.498 165.447 123.96 155.503 126.321C151.656 127.234 148.061 129.002 144.982 131.493C141.903 133.985 139.419 137.137 137.711 140.72C136.003 144.302 135.114 148.223 135.111 152.195C135.108 156.167 135.99 160.09 137.692 163.675C134.637 160.317 128.731 161.112 125.606 164.404C122.481 167.696 121.672 172.61 121.987 177.148C122.468 184.09 125.175 190.631 128.028 196.997C104.106 196.24 81.4784 179.377 73.862 156.57C66.2138 133.668 74.2294 106.363 93.0236 91.2984Z" fill="#2F2E41"/>
<path opacity="0.2" d="M55.3525 314.938L71.126 401.172L80.5904 402L55.3525 314.938Z" fill="black"/>
<path opacity="0.2" d="M229.1 308.434L213.327 401.109L203.862 402L229.1 308.434Z" fill="black"/>
<path d="M106.477 62.2763C103.453 63.5452 100.297 62.1545 98.9734 58.9698C97.6297 55.7363 98.8847 52.4539 101.958 51.1646C105.031 49.8752 108.13 51.2693 109.496 54.5549C110.84 57.7912 109.599 60.9663 106.477 62.2763ZM100.684 44.8001L98.279 45.8091C97.6782 46.0581 97.0064 46.0716 96.3962 45.8467C95.7861 45.6219 95.2822 45.1751 94.9842 44.5948L94.8653 44.361C92.2779 39.6722 91.9816 33.9736 93.9894 27.4325C95.8494 21.5647 96.6219 17.4379 95.0683 13.6993C93.272 9.37673 89.4363 8.02268 84.5449 9.98417C82.6477 10.7802 82.044 10.7675 80.5511 12.2556C80.2263 12.5833 79.8392 12.8419 79.4129 13.016C78.9865 13.1901 78.5297 13.2761 78.0695 13.2689C77.6247 13.2637 77.1854 13.1685 76.778 12.989C76.3706 12.8094 76.0033 12.5493 75.6981 12.2241C75.1101 11.5974 74.7806 10.7698 74.7763 9.90852C74.772 9.0472 75.0931 8.21631 75.6748 7.58366C78.1842 4.94414 81.2109 2.85595 84.5638 1.45085C95.0734 -2.95876 100.364 3.55139 102.785 9.37736C105.153 15.0758 103.821 20.363 101.681 27.2105C99.887 32.9004 99.9915 37.1165 102.029 41.3086C102.176 41.6255 102.258 41.969 102.27 42.3185C102.281 42.668 102.222 43.0163 102.097 43.3424C101.971 43.6685 101.781 43.9657 101.538 44.2162C101.296 44.4667 101.005 44.6654 100.684 44.8001Z" fill="#F9A826"/>
<path d="M367.545 88.4255H316.468C316.306 88.4266 316.145 88.3955 315.995 88.3338C315.845 88.2722 315.708 88.1813 315.593 88.0664C315.478 87.9515 315.386 87.8149 315.324 87.6644C315.262 87.5138 315.23 87.3524 315.23 87.1893C315.23 87.0263 315.262 86.8648 315.324 86.7143C315.386 86.5638 315.478 86.4271 315.593 86.3122C315.708 86.1973 315.845 86.1065 315.995 86.0448C316.145 85.9832 316.306 85.952 316.468 85.9532H367.545C367.869 85.9554 368.18 86.0866 368.409 86.3182C368.638 86.5498 368.766 86.8629 368.766 87.1893C368.766 87.5157 368.638 87.8289 368.409 88.0605C368.18 88.2921 367.869 88.4233 367.545 88.4255Z" fill="#F9A826"/>
<path d="M432.338 88.8376H381.262C381.099 88.8387 380.938 88.8076 380.788 88.746C380.638 88.6843 380.501 88.5935 380.386 88.4786C380.271 88.3637 380.18 88.227 380.117 88.0765C380.055 87.9259 380.023 87.7645 380.023 87.6015C380.023 87.4384 380.055 87.277 380.117 87.1264C380.18 86.9759 380.271 86.8392 380.386 86.7243C380.501 86.6094 380.638 86.5186 380.788 86.4569C380.938 86.3953 381.099 86.3642 381.262 86.3653H432.338C432.5 86.3642 432.661 86.3953 432.811 86.4569C432.962 86.5186 433.098 86.6094 433.213 86.7243C433.328 86.8392 433.42 86.9759 433.482 87.1264C433.544 87.277 433.577 87.4384 433.577 87.6015C433.577 87.7645 433.544 87.9259 433.482 88.0765C433.42 88.227 433.328 88.3637 433.213 88.4786C433.098 88.5935 432.962 88.6843 432.811 88.746C432.661 88.8076 432.5 88.8387 432.338 88.8376Z" fill="#F9A826"/>
<path d="M497.131 89.2497H446.055C445.73 89.2475 445.419 89.1163 445.19 88.8847C444.961 88.6531 444.833 88.34 444.833 88.0135C444.833 87.6871 444.961 87.374 445.19 87.1424C445.419 86.9108 445.73 86.7796 446.055 86.7774H497.131C497.293 86.7763 497.454 86.8074 497.605 86.869C497.755 86.9307 497.891 87.0216 498.007 87.1365C498.122 87.2514 498.213 87.388 498.275 87.5385C498.338 87.6891 498.37 87.8505 498.37 88.0135C498.37 88.1766 498.338 88.338 498.275 88.4886C498.213 88.6391 498.122 88.7758 498.007 88.8907C497.891 89.0056 497.755 89.0964 497.605 89.1581C497.454 89.2197 497.294 89.2509 497.131 89.2497Z" fill="#F9A826"/>
<path d="M561.925 89.6613H510.848C510.524 89.6591 510.213 89.5279 509.984 89.2963C509.755 89.0647 509.626 88.7515 509.626 88.4251C509.626 88.0987 509.755 87.7856 509.984 87.554C510.213 87.3224 510.524 87.1912 510.848 87.189H561.925C562.25 87.1912 562.56 87.3224 562.789 87.554C563.018 87.7856 563.147 88.0987 563.147 88.4251C563.147 88.7515 563.018 89.0647 562.789 89.2963C562.56 89.5279 562.25 89.6591 561.925 89.6613Z" fill="#F9A826"/>
<path d="M341.894 77.0486C347.137 77.0486 351.387 72.778 351.387 67.5099C351.387 62.2418 347.137 57.9712 341.894 57.9712C336.651 57.9712 332.401 62.2418 332.401 67.5099C332.401 72.778 336.651 77.0486 341.894 77.0486Z" fill="#F9A826"/>
<path d="M407.079 77.0486C412.322 77.0486 416.572 72.778 416.572 67.5099C416.572 62.2418 412.322 57.9712 407.079 57.9712C401.836 57.9712 397.586 62.2418 397.586 67.5099C397.586 72.778 401.836 77.0486 407.079 77.0486Z" fill="#F9A826"/>
<path d="M472.263 77.0486C477.506 77.0486 481.756 72.778 481.756 67.5099C481.756 62.2418 477.506 57.9712 472.263 57.9712C467.021 57.9712 462.771 62.2418 462.771 67.5099C462.771 72.778 467.021 77.0486 472.263 77.0486Z" fill="#F9A826"/>
<path d="M537.448 77.0486C542.691 77.0486 546.941 72.778 546.941 67.5099C546.941 62.2418 542.691 57.9712 537.448 57.9712C532.205 57.9712 527.955 62.2418 527.955 67.5099C527.955 72.778 532.205 77.0486 537.448 77.0486Z" fill="#F9A826"/>
</g>
<defs>
<clipPath id="clip0_67_300">
<rect width="602" height="402" fill="white"/>
</clipPath>
</defs>
</svg>
