<svg xmlns="http://www.w3.org/2000/svg" height="24" width="24" viewBox="0 0 24 24"><title>pen writing 6</title><g fill="#776e9a" class="nc-icon-wrapper"><path d="M5.63 21.28c-0.19 0-0.38-0.05-0.56-0.17-2.3-1.55-3.56-3.26-3.72-5.09-0.16-1.78 0.74-3.12 1.53-4.29 0.71-1.05 1.37-2.05 1.36-3.33-0.01-1.31-0.72-2.67-2.11-4.03-0.4-0.39-0.4-1.02-0.02-1.41 0.39-0.39 1.02-0.4 1.41-0.02 1.79 1.74 2.7 3.58 2.72 5.45 0.01 1.89-0.9 3.25-1.71 4.45-0.7 1.04-1.3 1.93-1.2 3 0.11 1.2 1.07 2.42 2.85 3.62 0.46 0.31 0.58 0.93 0.28 1.38-0.19 0.29-0.51 0.44-0.83 0.44z" data-color="color-2"></path><path d="M22.58 5.47c-0.12-0.86-0.57-1.63-1.27-2.15-1.44-1.08-3.48-0.8-4.56 0.64l-7.73 10.23c-1.76 2.34-1.52 6.01-1.51 6.16 0.02 0.29 0.16 0.55 0.4 0.73 0.18 0.13 0.39 0.2 0.6 0.2 0.07 0 0.14-0.01 0.2-0.02 0.15-0.03 3.75-0.8 5.51-3.14l7.73-10.24c0.53-0.7 0.75-1.55 0.63-2.41z m-2.22 1.21l-0.91 1.21-2.02-1.52 0.91-1.21c0.2-0.27 0.5-0.44 0.83-0.49 0.06-0.01 0.12-0.01 0.18-0.01 0.27 0 0.54 0.09 0.76 0.25 0.27 0.2 0.44 0.5 0.49 0.84 0.05 0.34-0.04 0.67-0.24 0.93z" fill="#ffb566"></path></g></svg>