<svg width="816" height="655" viewBox="0 0 816 655" fill="none" xmlns="http://www.w3.org/2000/svg">
<g clip-path="url(#clip0_378_516)">
<rect width="816" height="655" fill="#F2F2F2"/>
<rect x="-194" y="-50" width="1319" height="755" fill="#F3F3F3"/>
<path d="M640.177 102.309C640.177 102.309 622.215 104.969 621.055 141.519C620.086 171.979 618.114 188.952 627.548 195.305C630.917 197.576 634.879 197.771 638.483 196.223L676.972 179.594C676.972 179.594 677.548 124.775 664.221 111.449C650.894 98.1228 640.177 102.309 640.177 102.309Z" fill="#36344E"/>
<path d="M661.393 186.314L641.914 194.731V157.884H659.587L661.393 186.314Z" fill="#FAAFB2"/>
<path d="M601.846 395.473C600.79 403.913 596.504 409.968 592.28 408.994C588.048 408.019 585.482 400.381 586.538 391.94C586.922 388.557 587.943 385.357 589.505 382.617L594.331 346.927L607.466 350.54L601.313 385.335C602.125 388.626 602.308 392.101 601.846 395.473Z" fill="#FAAFB2"/>
<path d="M646.443 632.786H628.203L617.616 504.685H645.823L646.443 632.786Z" fill="#FAAFB2"/>
<path d="M610.434 653.371C608.514 653.371 606.803 653.314 605.52 653.154C600.676 652.569 596.051 647.867 593.729 645.126C592.691 643.899 592.35 641.926 592.891 640.229C593.284 639.013 594.061 638.107 595.03 637.74L607.833 632.935L628.569 614.551L628.805 615.102C628.892 615.308 630.926 620.125 631.606 623.382C631.868 624.62 631.798 625.653 631.406 626.455C631.135 627.006 630.751 627.327 630.446 627.51C630.821 628.026 631.999 629.07 635.621 629.827C640.919 630.928 642.018 623.726 642.071 623.428L642.106 623.187L642.263 623.049C644.776 620.916 646.33 619.953 646.862 620.159C647.194 620.285 647.752 620.515 649.253 640.126C649.402 640.745 650.458 645.252 649.742 649.575C648.965 654.277 633.352 652.66 630.227 652.282C630.14 652.293 618.454 653.383 610.442 653.383H610.434V653.371Z" fill="#36344E"/>
<path d="M687.663 632.786H669.414L658.836 504.685H687.034L687.663 632.786Z" fill="#FAAFB2"/>
<path d="M651.653 653.371C649.733 653.371 648.023 653.314 646.74 653.154C641.896 652.569 637.27 647.867 634.949 645.126C633.91 643.899 633.57 641.926 634.111 640.229C634.504 639.013 635.281 638.107 636.249 637.74L649.053 632.935L669.789 614.551L670.025 615.102C670.112 615.308 672.145 620.125 672.826 623.382C673.088 624.62 673.018 625.653 672.625 626.455C672.355 627.006 671.971 627.327 671.665 627.51C672.041 628.026 673.219 629.07 676.841 629.827C682.138 630.928 683.238 623.726 683.29 623.428L683.325 623.187L683.482 623.049C686.005 620.916 687.549 619.953 688.082 620.159C688.413 620.285 688.972 620.515 690.473 640.126C690.621 640.745 691.677 645.252 690.962 649.575C690.185 654.277 674.572 652.66 671.447 652.282C671.36 652.293 659.674 653.383 651.662 653.383H651.653V653.371Z" fill="#36344E"/>
<path d="M692.908 318.154H604.263L636.127 180.351H671.473L692.908 318.154Z" fill="#DFDFE0"/>
<path d="M641.704 180.362C641.704 180.362 619.685 179.605 617.372 187.22C615.059 194.835 587.821 376.045 587.821 376.045H605.782L641.704 180.373V180.362Z" fill="#DFDFE0"/>
<path d="M644.322 168.079C655.042 168.079 663.732 156.66 663.732 142.574C663.732 128.488 655.042 117.068 644.322 117.068C633.602 117.068 624.912 128.488 624.912 142.574C624.912 156.66 633.602 168.079 644.322 168.079Z" fill="#FAAFB2"/>
<path d="M639.016 111.827C639.016 111.827 628.334 168.825 640.212 195.465L623.481 190.798C623.481 190.798 616.997 128.422 630.035 117.08L639.016 111.827Z" fill="#36344E"/>
<path d="M674.484 318.153H616.307L584.478 489.822C583.893 497.07 587.393 503.836 592.752 505.729C610.215 511.876 652.125 520.58 715.547 496.325C721.648 493.997 725.112 485.533 723.201 477.563L674.484 318.153Z" fill="#36344E"/>
<path d="M650.964 180.35L669.056 179.307C676.893 180.086 683.98 185.683 688.178 194.41C700.963 220.971 724.885 276.948 703.529 284.62C675.375 294.724 661.734 238.472 661.734 238.472L650.964 180.35Z" fill="#DFDFE0"/>
<path d="M644.759 197.025C641.041 190.007 640.91 181.738 644.453 178.562C648.005 175.385 653.896 178.516 657.614 185.534C659.133 188.31 660.093 191.544 660.424 194.938L675.881 224.962L664.544 234.401L650.51 203.803C648.18 202.186 646.207 199.858 644.759 197.025Z" fill="#FAAFB2"/>
<path d="M653.905 221.304L666.673 205.867L691.922 236.751L668.445 257.841L653.905 221.304Z" fill="#DFDFE0"/>
<path d="M117.752 157.116H500.153C515.057 157.116 527.139 173.802 527.139 194.388C527.139 214.973 515.057 231.66 500.153 231.66H117.752C102.847 231.66 90.7656 214.973 90.7656 194.388C90.7656 173.802 102.847 157.116 117.752 157.116Z" fill="#776E9A"/>
<path d="M177.438 653.635C177.438 654.392 177.901 655 178.477 655H814.961C815.537 655 816 654.392 816 653.635C816 652.878 815.537 652.271 814.961 652.271H178.477C177.901 652.271 177.438 652.878 177.438 653.635Z" fill="#484565"/>
<path d="M370.585 107.745H453.802C455.792 107.745 457.398 109.855 457.398 112.458C457.398 115.061 455.792 117.172 453.802 117.172H370.585C368.596 117.172 366.99 115.061 366.99 112.458C366.99 109.855 368.596 107.745 370.585 107.745Z" fill="#FFB566"/>
<path d="M3.59571 0H86.812C88.8019 0 90.4078 2.11017 90.4078 4.71347C90.4078 7.31677 88.8019 9.42694 86.812 9.42694H3.59571C1.60585 9.4384 0 7.32824 0 4.71347C0 2.11017 1.60585 0 3.59571 0Z" fill="#FFB566"/>
<path d="M3.59571 41.1826H247.851C249.841 41.1826 251.447 43.2928 251.447 45.9076C251.447 48.5109 249.841 50.621 247.851 50.621H3.59571C1.60585 50.621 0 48.5109 0 45.9076C0 43.3042 1.60585 41.1826 3.59571 41.1826Z" fill="#FFB566"/>
<path d="M272 288.735C272 307.917 287.279 323.469 306.125 323.469C311.833 323.469 317.208 322.046 321.928 319.528L354.995 372.911C357.023 376.176 361.35 376.995 364.392 374.682C367.233 372.52 367.845 368.445 365.773 365.509L329.402 314.127C336.071 307.784 340.249 298.753 340.249 288.735C340.249 269.552 324.97 254 306.125 254C287.279 254 272 269.552 272 288.735ZM276.685 288.735C276.685 272.186 289.867 258.76 306.133 258.76C322.4 258.76 335.582 272.177 335.582 288.735C335.582 305.284 322.4 318.709 306.133 318.709C289.875 318.709 276.685 305.292 276.685 288.735Z" fill="#484662"/>
</g>
<defs>
<clipPath id="clip0_378_516">
<rect width="816" height="655" fill="white"/>
</clipPath>
</defs>
</svg>
