<svg width="816" height="553" viewBox="0 0 816 553" fill="none" xmlns="http://www.w3.org/2000/svg">
<g clip-path="url(#clip0_378_516)">
<rect width="816" height="553" fill="white"/>
<rect x="-194" y="-50" width="1319" height="755" fill="#F8F8F8"/>
<path d="M640.177 86.3767C640.177 86.3767 622.215 88.623 621.055 119.481C620.086 145.197 618.114 159.527 627.548 164.891C630.917 166.808 634.879 166.973 638.483 165.666L676.972 151.626C676.972 151.626 677.548 105.345 664.221 94.0936C650.894 82.8426 640.177 86.3767 640.177 86.3767Z" fill="#36344E"/>
<path d="M661.393 157.3L641.914 164.407V133.297H659.587L661.393 157.3Z" fill="#FAAFB2"/>
<path d="M601.846 333.887C600.79 341.014 596.504 346.126 592.28 345.303C588.048 344.48 585.482 338.031 586.538 330.905C586.922 328.049 587.943 325.348 589.505 323.033L594.331 292.902L607.466 295.952L601.313 325.328C602.125 328.107 602.308 331.041 601.846 333.887Z" fill="#FAAFB2"/>
<path d="M646.443 534.245H628.203L617.616 426.093H645.823L646.443 534.245Z" fill="#FAAFB2"/>
<path d="M610.434 551.625C608.514 551.625 606.803 551.577 605.52 551.441C600.676 550.947 596.051 546.977 593.729 544.663C592.691 543.627 592.35 541.962 592.891 540.529C593.284 539.503 594.061 538.738 595.03 538.428L607.833 534.371L628.569 518.85L628.805 519.315C628.892 519.489 630.926 523.556 631.606 526.306C631.868 527.351 631.798 528.223 631.406 528.9C631.135 529.365 630.751 529.636 630.446 529.791C630.821 530.227 631.999 531.108 635.621 531.747C640.919 532.677 642.018 526.596 642.071 526.344L642.106 526.141L642.263 526.025C644.776 524.224 646.33 523.411 646.862 523.585C647.194 523.691 647.752 523.885 649.253 540.442C649.402 540.965 650.458 544.77 649.742 548.42C648.965 552.39 633.352 551.025 630.227 550.705C630.14 550.715 618.454 551.635 610.442 551.635H610.434V551.625Z" fill="#36344E"/>
<path d="M687.663 534.245H669.414L658.836 426.093H687.034L687.663 534.245Z" fill="#FAAFB2"/>
<path d="M651.653 551.625C649.733 551.625 648.023 551.577 646.74 551.441C641.896 550.947 637.27 546.977 634.949 544.663C633.91 543.627 633.57 541.962 634.111 540.529C634.504 539.503 635.281 538.738 636.249 538.428L649.053 534.371L669.789 518.85L670.025 519.315C670.112 519.489 672.145 523.556 672.826 526.306C673.088 527.351 673.018 528.223 672.625 528.9C672.355 529.365 671.971 529.636 671.665 529.791C672.041 530.227 673.219 531.108 676.841 531.747C682.138 532.677 683.238 526.596 683.29 526.344L683.325 526.141L683.482 526.025C686.005 524.224 687.549 523.411 688.082 523.585C688.413 523.691 688.972 523.885 690.473 540.442C690.621 540.965 691.677 544.77 690.962 548.42C690.185 552.39 674.572 551.025 671.447 550.705C671.36 550.715 659.674 551.635 651.662 551.635H651.653V551.625Z" fill="#36344E"/>
<path d="M692.908 268.609H604.263L636.127 152.265H671.473L692.908 268.609Z" fill="#DFDFE0"/>
<path d="M641.704 152.275C641.704 152.275 619.685 151.636 617.372 158.065C615.059 164.494 587.821 317.485 587.821 317.485H605.782L641.704 152.285V152.275Z" fill="#DFDFE0"/>
<path d="M644.322 141.905C655.042 141.905 663.732 132.264 663.732 120.372C663.732 108.479 655.042 98.8379 644.322 98.8379C633.602 98.8379 624.912 108.479 624.912 120.372C624.912 132.264 633.602 141.905 644.322 141.905Z" fill="#FAAFB2"/>
<path d="M639.016 94.4131C639.016 94.4131 628.334 142.535 640.212 165.027L623.481 161.086C623.481 161.086 616.997 108.423 630.035 98.8476L639.016 94.4131Z" fill="#36344E"/>
<path d="M674.484 268.609H616.307L584.478 413.545C583.893 419.664 587.393 425.376 592.752 426.974C610.215 432.164 652.125 439.513 715.547 419.034C721.648 417.069 725.112 409.923 723.201 403.194L674.484 268.609Z" fill="#36344E"/>
<path d="M650.964 152.265L669.056 151.384C676.893 152.043 683.98 156.768 688.178 164.136C700.963 186.56 724.885 233.82 703.529 240.298C675.375 248.828 661.734 201.336 661.734 201.336L650.964 152.265Z" fill="#DFDFE0"/>
<path d="M644.759 166.344C641.041 160.418 640.91 153.437 644.453 150.755C648.005 148.073 653.896 150.716 657.614 156.642C659.133 158.985 660.093 161.715 660.424 164.581L675.881 189.93L664.544 197.898L650.51 172.066C648.18 170.701 646.207 168.735 644.759 166.344Z" fill="#FAAFB2"/>
<path d="M653.905 186.841L666.673 173.809L691.922 199.883L668.445 217.689L653.905 186.841Z" fill="#DFDFE0"/>
<path d="M117.752 132.649H500.153C515.057 132.649 527.139 146.737 527.139 164.117C527.139 181.496 515.057 195.584 500.153 195.584H117.752C102.847 195.584 90.7656 181.496 90.7656 164.117C90.7656 146.737 102.847 132.649 117.752 132.649Z" fill="#776E9A"/>
<path d="M177.438 551.848C177.438 552.487 177.901 553 178.477 553H814.961C815.537 553 816 552.487 816 551.848C816 551.209 815.537 550.696 814.961 550.696H178.477C177.901 550.696 177.438 551.209 177.438 551.848Z" fill="#484565"/>
<path d="M370.585 90.9658H453.802C455.792 90.9658 457.398 92.7474 457.398 94.9453C457.398 97.1432 455.792 98.9247 453.802 98.9247H370.585C368.596 98.9247 366.99 97.1432 366.99 94.9453C366.99 92.7474 368.596 90.9658 370.585 90.9658Z" fill="#FFB566"/>
<path d="M3.59571 0H86.812C88.8019 0 90.4078 1.78156 90.4078 3.97946C90.4078 6.17736 88.8019 7.95892 86.812 7.95892H3.59571C1.60585 7.96861 0 6.18705 0 3.97946C0 1.78156 1.60585 0 3.59571 0Z" fill="#FFB566"/>
<path d="M3.59571 34.7695H247.851C249.841 34.7695 251.447 36.5511 251.447 38.7587C251.447 40.9566 249.841 42.7381 247.851 42.7381H3.59571C1.60585 42.7381 0 40.9566 0 38.7587C0 36.5608 1.60585 34.7695 3.59571 34.7695Z" fill="#FFB566"/>
<path d="M272 243.771C272 259.967 287.279 273.097 306.125 273.097C311.833 273.097 317.208 271.895 321.928 269.769L354.995 314.839C357.023 317.596 361.35 318.287 364.392 316.334C367.233 314.509 367.845 311.069 365.773 308.59L329.402 265.21C336.071 259.854 340.249 252.23 340.249 243.771C340.249 227.576 324.97 214.446 306.125 214.446C287.279 214.446 272 227.576 272 243.771ZM276.685 243.771C276.685 229.8 289.867 218.465 306.133 218.465C322.4 218.465 335.582 229.792 335.582 243.771C335.582 257.743 322.4 269.078 306.133 269.078C289.875 269.078 276.685 257.751 276.685 243.771Z" fill="#484662"/>
</g>
<defs>
<clipPath id="clip0_378_516">
<rect width="816" height="553" fill="white"/>
</clipPath>
</defs>
</svg>
