<svg xmlns="http://www.w3.org/2000/svg" height="24" width="24" viewBox="0 0 24 24"><title>tags</title><g fill="#ffb566" stroke="#ffb566" class="nc-icon-wrapper"><path d="M2.33 5.65h7.43c0.35 0 0.69 0.14 0.94 0.39l7.7 7.71c1.04 1.04 1.04 2.72 0 3.76l-4.22 4.22c-1.04 1.04-2.72 1.04-3.76 0l-7.7-7.71c-0.25-0.25-0.39-0.59-0.39-0.94v-7.43z" fill="none" stroke="#776e9a" stroke-linecap="round" stroke-linejoin="round" stroke-width="1.5"></path><path d="M4.32 2.33v-0.67h7.43c0.35 0 0.69 0.14 0.94 0.39l7.71 7.71c0.57 0.57 0.83 1.35 0.77 2.09" fill="none" stroke="inherit" stroke-linecap="round" stroke-linejoin="round" stroke-width="1.5" data-color="color-2"></path><path data-color="color-2" data-stroke="none" d="M6.98 8.64a1.66 1.66 0 1 0 0 3.33 1.66 1.66 0 1 0 0-3.33z" stroke="none"></path></g></svg>