<svg xmlns="http://www.w3.org/2000/svg" height="24" width="24" viewBox="0 0 24 24"><title>trash</title><g fill="#ffb566" class="nc-icon-wrapper"><path d="M20.28 4.66h-4.32v-1c0-1.28-1.04-2.33-2.33-2.33h-3.32c-1.28 0-2.33 1.04-2.33 2.33v1h-4.32c-0.55 0-1 0.45-1 0.99s0.45 1 1 1h16.62c0.55 0 1-0.45 1-1s-0.45-1-1-0.99z m-10.3-1c0-0.18 0.15-0.33 0.33-0.33h3.32c0.18 0 0.33 0.15 0.34 0.33v1h-3.99v-1z" data-color="color-2"></path><path d="M17.96 7.98h-11.97c-0.27 0-0.53 0.11-0.73 0.31s-0.29 0.47-0.27 0.74l0.53 10.11c0.1 1.94 1.71 3.47 3.65 3.47h5.6c1.95 0 3.55-1.52 3.65-3.46l0.53-10.12c0.01-0.27-0.08-0.54-0.27-0.74s-0.45-0.31-0.73-0.31z" fill="#776e9a"></path></g></svg>