<svg xmlns="http://www.w3.org/2000/svg" height="24" width="24" viewBox="0 0 24 24"><title>users</title><g fill="#ffb566" class="nc-icon-wrapper"><path fill="#776e9a" d="M7.65 4.66a3.66 3.66 0 1 0 0 7.31 3.66 3.66 0 1 0 0-7.31z"></path><path data-color="color-2" d="M15.96 1.33a3.66 3.66 0 1 0 0 7.32 3.66 3.66 0 1 0 0-7.32z"></path><path d="M22.87 14.76c-1.08-2.86-3.86-4.79-6.91-4.78-1.88 0-3.66 0.74-5 1.96 2.47 0.94 4.5 2.88 5.47 5.44 0.15 0.39 0.22 0.8 0.24 1.21 1.61-0.07 3.2-0.35 4.74-0.86 0.61-0.2 1.11-0.65 1.38-1.22 0.27-0.56 0.29-1.18 0.08-1.75z" data-color="color-2"></path><path d="M14.56 18.09c-1.08-2.86-3.86-4.79-6.91-4.79s-5.83 1.92-6.91 4.79c-0.22 0.57-0.19 1.19 0.08 1.75 0.27 0.57 0.78 1.02 1.38 1.22 1.76 0.59 3.6 0.89 5.45 0.89s3.69-0.3 5.45-0.89c0.61-0.2 1.11-0.65 1.38-1.22 0.27-0.56 0.29-1.18 0.08-1.75z" fill="#776e9a"></path></g></svg>