<svg xmlns="http://www.w3.org/2000/svg" height="24" width="24" viewBox="0 0 24 24"><title>user</title><g fill="#ffb566" class="nc-icon-wrapper"><path data-color="color-2" d="M11.97 1.33a4.66 4.66 0 1 0 0 9.31 4.66 4.66 0 1 0 0-9.31z"></path><path d="M11.97 11.97c-3.68 0-7.01 2.18-8.51 5.54-0.34 0.77-0.34 1.66 0.02 2.43 0.36 0.79 1.03 1.39 1.86 1.65 2.15 0.68 4.38 1.02 6.63 1.02s4.48-0.34 6.63-1.02c0.83-0.26 1.51-0.86 1.86-1.65 0.35-0.77 0.35-1.66 0.01-2.43-1.49-3.37-4.83-5.54-8.5-5.54z" fill="#776e9a"></path></g></svg>